<?xml version="1.0" standalone="no"?>
<!DOCTYPE svg PUBLIC "-//W3C//DTD SVG 20010904//EN"
 "http://www.w3.org/TR/2001/REC-SVG-20010904/DTD/svg10.dtd">
<svg version="1.0" xmlns="http://www.w3.org/2000/svg"
 width="512.000000pt" height="512.000000pt" viewBox="0 0 512.000000 512.000000"
 preserveAspectRatio="xMidYMid meet">

<g transform="translate(0.000000,512.000000) scale(0.100000,-0.100000)"
fill="#eab308" stroke="none">
<path d="M585 4935 c-14 -13 -25 -34 -25 -45 0 -34 188 -679 215 -738 14 -30
44 -82 67 -116 41 -61 42 -62 50 -181 27 -425 108 -967 202 -1358 l23 -97 -29
-118 c-59 -242 -107 -574 -124 -855 -6 -111 -9 -122 -40 -174 -114 -190 -186
-504 -201 -879 l-6 -162 26 -26 c33 -33 79 -35 111 -3 21 21 23 34 29 182 10
243 33 405 83 575 29 96 92 240 107 240 5 0 52 -13 105 -30 231 -71 546 -134
834 -167 194 -22 854 -25 1048 -5 294 30 608 91 869 168 64 19 118 34 122 34
12 0 79 -157 104 -245 50 -173 85 -436 85 -638 0 -80 2 -90 25 -112 33 -34 78
-33 112 1 l26 26 -7 166 c-16 391 -98 732 -216 902 -13 19 -19 56 -24 145 -17
282 -65 614 -124 858 l-29 117 19 78 c95 393 179 950 206 1377 8 119 9 120 50
181 23 34 53 86 67 116 27 59 215 704 215 738 0 31 -44 70 -78 70 -60 0 -66
-14 -162 -350 -104 -364 -116 -397 -180 -488 -83 -119 -198 -204 -334 -249
-143 -47 -327 -33 -661 48 -202 50 -277 76 -336 118 -129 92 -169 190 -169
414 0 133 -1 139 -25 162 -15 16 -36 25 -55 25 -19 0 -40 -9 -55 -25 -24 -23
-25 -29 -25 -164 0 -110 -4 -152 -19 -202 -43 -136 -141 -230 -288 -275 -244
-74 -525 -128 -673 -127 -86 0 -119 4 -185 26 -101 33 -217 109 -289 188 -87
96 -123 184 -225 544 -69 243 -96 324 -112 338 -30 25 -75 22 -104 -8z m2004
-901 c41 -60 133 -136 206 -170 127 -60 420 -133 685 -170 189 -26 314 -7 480
74 52 25 97 47 100 49 7 4 -5 -148 -25 -332 -35 -309 -86 -611 -156 -913 l-40
-173 35 -147 c60 -253 100 -529 121 -828 l7 -90 -149 -42 c-462 -131 -863
-179 -1403 -169 -460 9 -779 54 -1180 169 -80 22 -147 42 -148 44 -6 4 17 289
34 416 20 163 57 365 94 517 l31 130 -40 173 c-48 209 -83 390 -115 603 -37
244 -79 649 -66 643 204 -103 255 -120 390 -134 165 -16 688 91 875 180 75 35
170 115 205 172 12 19 25 34 28 34 4 0 18 -16 31 -36z"/>
<path d="M2505 3575 c-24 -23 -25 -28 -25 -175 0 -147 -1 -152 -25 -175 l-24
-25 -271 0 -271 0 -24 25 c-16 15 -25 36 -25 55 0 70 -86 105 -135 55 -48 -47
-26 -144 50 -221 73 -73 87 -76 433 -72 l292 3 0 -218 0 -218 -25 -24 -24 -25
-231 0 -231 0 -24 25 c-16 15 -25 36 -25 55 0 41 -39 80 -80 80 -42 0 -80 -39
-80 -81 0 -62 23 -113 75 -165 72 -72 91 -76 393 -72 l252 3 0 -218 0 -218
-25 -24 c-24 -25 -26 -25 -215 -25 -189 0 -191 0 -215 25 -16 15 -25 36 -25
55 0 70 -86 105 -135 55 -48 -47 -26 -144 50 -221 71 -71 96 -76 353 -72 l212
3 0 -138 c0 -133 1 -139 25 -162 32 -33 78 -33 110 0 24 23 25 29 25 162 l0
138 215 -3 c260 -4 290 3 358 78 69 76 87 170 42 215 -49 50 -135 15 -135 -55
0 -19 -9 -40 -25 -55 -24 -25 -26 -25 -215 -25 -189 0 -191 0 -215 25 l-25 24
0 218 0 218 256 -3 c304 -4 328 1 397 78 69 76 87 170 42 215 -49 50 -135 15
-135 -55 0 -19 -9 -40 -25 -55 l-24 -25 -231 0 -231 0 -24 25 -25 24 0 218 0
218 296 -3 c348 -4 367 0 437 78 69 76 87 170 42 215 -49 50 -135 15 -135 -55
0 -19 -9 -40 -25 -55 l-24 -25 -271 0 -271 0 -24 25 c-24 23 -25 28 -25 175 0
147 -1 152 -25 175 -15 16 -36 25 -55 25 -19 0 -40 -9 -55 -25z"/>
<path d="M1385 4295 c-50 -49 -15 -135 55 -135 41 0 80 39 80 80 0 41 -39 80
-80 80 -19 0 -40 -9 -55 -25z"/>
<path d="M3625 4295 c-16 -15 -25 -36 -25 -55 0 -19 9 -40 25 -55 15 -16 36
-25 55 -25 19 0 40 9 55 25 16 15 25 36 25 55 0 19 -9 40 -25 55 -15 16 -36
25 -55 25 -19 0 -40 -9 -55 -25z"/>
<path d="M2505 615 c-25 -24 -25 -26 -25 -215 0 -189 0 -191 25 -215 15 -16
36 -25 55 -25 19 0 40 9 55 25 25 24 25 26 25 215 0 189 0 191 -25 215 -15 16
-36 25 -55 25 -19 0 -40 -9 -55 -25z"/>
</g>
</svg>
