<?xml version="1.0" encoding="UTF-8"?>
<svg version="1.1" xmlns="http://www.w3.org/2000/svg" width="512" height="512">
<path d="M0 0 C0.25652344 0.75023437 0.51304687 1.50046875 0.77734375 2.2734375 C4.6694432 12.67857879 10.50335072 21.05307275 20.6875 26.0390625 C32.03241406 30.75333422 41.14148664 31.25110917 52.8828125 27.328125 C57.6509836 25.2965734 61.2673562 22.55850423 65 19 C65.84498047 18.21496094 65.84498047 18.21496094 66.70703125 17.4140625 C71.47092535 12.46926102 73.64203793 6.35397744 76 0 C84.73817651 3.14280634 88.21126255 10.61759358 92.09985352 18.55493164 C97.18611795 29.37564984 100.06911025 40.39138621 102.1875 52.125 C102.34250977 52.97521729 102.49751953 53.82543457 102.65722656 54.70141602 C106.20436571 75.92049515 106.29036999 97.18194736 106.19561768 118.62207031 C106.18475357 121.72087248 106.18515106 124.81963052 106.18575573 127.91844845 C106.18548105 130.95662123 106.17995427 133.99476678 106.17275429 137.03293037 C106.16962885 138.45794025 106.16761503 139.88295313 106.16686058 141.30796623 C106.13379344 171.0556076 106.13379344 171.0556076 101 177 C96.56829201 179.72720492 92.97565313 180.53197234 87.9296875 179.6484375 C84.48738489 178.49171233 82.52989881 176.59160366 80 174 C78.82657012 170.47971035 78.89072176 167.34282148 78.93408203 163.68408203 C78.94109131 162.56823982 78.94109131 162.56823982 78.94824219 161.42985535 C78.95875499 159.8093331 78.97142101 158.18882374 78.98596573 156.56833267 C79.00811341 153.97254452 79.02212065 151.37683118 79.03366089 148.78097534 C79.0670682 141.39717402 79.10745512 134.01348865 79.17138672 126.62988281 C79.39453123 99.97697559 78.18744848 74.3799518 74 48 C73.01 48.99 73.01 48.99 72 50 C72.30769984 52.76314458 72.72974712 55.40008 73.25 58.125 C76.81848101 78.48709615 77.28541806 98.87568564 77.125 119.5 C77.11492883 121.79947518 77.10581044 124.09895473 77.09765625 126.3984375 C77.07601936 131.93239014 77.04288356 137.46617321 77 143 C70.49513257 142.33627302 64.28849623 141.31466778 57.9375 139.75 C57.09123047 139.55792969 56.24496094 139.36585938 55.37304688 139.16796875 C50.15024264 137.88743541 46.15638058 136.15883976 41.79125977 132.99707031 C39.75917184 131.67575955 39.75917184 131.67575955 36 132 C34.23192852 132.96433647 34.23192852 132.96433647 32.51171875 134.29296875 C27.31768634 137.70392123 21.80919667 138.92413834 15.8125 140.3125 C14.21245117 140.70791992 14.21245117 140.70791992 12.58007812 141.11132812 C7.924488 142.23228009 3.79671127 143.06053453 -1 143 C-1.05177558 136.31871961 -1.08617024 129.63749292 -1.10986328 122.95605469 C-1.11976632 120.69496733 -1.1332923 118.43389221 -1.15087891 116.17285156 C-1.32256957 93.48948559 0.28685151 71.3779082 4 49 C3.01 48.505 3.01 48.505 2 48 C1.4433308 51.89126859 0.89228737 55.78329284 0.34594727 59.67602539 C0.07003542 61.6340251 -0.21004124 63.59143649 -0.49023438 65.54882812 C-0.66748047 66.81533203 -0.84472656 68.08183594 -1.02734375 69.38671875 C-1.18968506 70.53358154 -1.35202637 71.68044434 -1.51928711 72.86206055 C-2.88557982 83.99785848 -3.11287084 95.02333201 -3.01403427 106.22253418 C-2.99169118 108.87134002 -2.97782485 111.52007124 -2.96633911 114.16894531 C-2.93302214 121.68939239 -2.89079471 129.20971306 -2.82861328 136.72998047 C-2.79096706 141.3550078 -2.76795135 145.97991438 -2.75430679 150.60507202 C-2.7462685 152.35935878 -2.7326822 154.11362944 -2.71337509 155.86782837 C-2.68688869 158.31308051 -2.67900354 160.75774721 -2.67529297 163.203125 C-2.6629361 163.92213486 -2.65057922 164.64114471 -2.6378479 165.38194275 C-2.65934544 170.75572227 -3.99031087 173.91587794 -7.6875 177.75 C-11.02669764 179.5549717 -14.2506469 180.11891605 -18 180 C-22.58725527 178.57118278 -25.60637486 177.25533359 -28 173 C-31.3465163 162.9604511 -30.17469417 150.82894429 -30.203125 140.33984375 C-30.20595238 139.61659975 -30.20877975 138.89335575 -30.21169281 138.14819527 C-30.22655992 134.30867293 -30.23586376 130.46918685 -30.24023438 126.62963867 C-30.24458422 123.52827974 -30.25835749 120.42720446 -30.28125 117.32592773 C-30.91172032 30.09148483 -30.91172032 30.09148483 -5.48046875 2.390625 C-3.62332684 0.64618564 -2.56989919 0 0 0 Z " fill="#000000" transform="translate(218,163)"/>
<path d="M0 0 C1.0209375 0.00580078 1.0209375 0.00580078 2.0625 0.01171875 C4 0.3125 4 0.3125 7 2.3125 C7.99 1.6525 8.98 0.9925 10 0.3125 C14.2475253 0.00358907 17.3586453 -0.01796701 21 2.3125 C21.66 1.6525 22.32 0.9925 23 0.3125 C30.09492669 -0.25058942 30.09492669 -0.25058942 32.60498047 1.31103516 C34.82865644 4.5013914 34.36605157 7.95231629 34.29296875 11.69921875 C34.28872391 12.51622757 34.28447906 13.33323639 34.28010559 14.17500305 C34.26331691 16.78367107 34.22566519 19.39156562 34.1875 22 C34.17245337 23.76886905 34.15876492 25.53775021 34.14648438 27.30664062 C34.11341286 31.64222496 34.0616299 35.97723136 34 40.3125 C37.63 40.3125 41.26 40.3125 45 40.3125 C45 45.9225 45 51.5325 45 57.3125 C60.84 57.3125 76.68 57.3125 93 57.3125 C93 60.6125 93 63.9125 93 67.3125 C77.16 67.3125 61.32 67.3125 45 67.3125 C45 72.9225 45 78.5325 45 84.3125 C41.37 84.3125 37.74 84.3125 34 84.3125 C34.02356567 85.97019409 34.02356567 85.97019409 34.04760742 87.66137695 C34.10188557 91.75944741 34.13634224 95.85748607 34.16479492 99.95581055 C34.17988641 101.72995343 34.20036191 103.50405898 34.22631836 105.27807617 C34.26268641 107.82740487 34.27972238 110.37624059 34.29296875 112.92578125 C34.30845261 113.71962723 34.32393646 114.51347321 34.33988953 115.33137512 C34.34156994 120.82321286 34.34156994 120.82321286 32.6027832 123.31396484 C30.6007416 124.56123829 29.34874388 124.68282892 27 124.625 C25.9790625 124.61919922 25.9790625 124.61919922 24.9375 124.61328125 C23 124.3125 23 124.3125 20 122.3125 C19.01 122.9725 18.02 123.6325 17 124.3125 C12.7524747 124.62141093 9.6413547 124.64296701 6 122.3125 C5.34 122.9725 4.68 123.6325 4 124.3125 C-3.22870318 124.8862066 -3.22870318 124.8862066 -5.602005 123.12089539 C-7.50157752 120.6636776 -7.36216228 119.1017064 -7.34057617 116.01489258 C-7.34034958 114.93399857 -7.34012299 113.85310455 -7.33988953 112.73945618 C-7.32440567 111.57375595 -7.30892181 110.40805573 -7.29296875 109.20703125 C-7.28872391 108.01268967 -7.28447906 106.81834808 -7.28010559 105.58781433 C-7.26328959 101.76664856 -7.22563093 97.94600684 -7.1875 94.125 C-7.17245699 91.53711698 -7.15876792 88.94922571 -7.14648438 86.36132812 C-7.11592627 80.01135357 -7.05720734 73.66251457 -7 67.3125 C-24.49 67.3125 -41.98 67.3125 -60 67.3125 C-59.505 79.6875 -59.505 79.6875 -59 92.3125 C-58.48148148 111.23842593 -58.48148148 111.23842593 -64.375 118.0625 C-69.68847599 122.61690799 -73.98273987 124.46107391 -81 124.3125 C-87.59105394 123.37564451 -91.35683913 120.55652741 -95.58984375 115.54296875 C-98.78034685 110.49649432 -99.35339365 105.27814448 -99.5546875 99.4296875 C-99.58354034 98.69299835 -99.61239319 97.9563092 -99.64212036 97.19729614 C-99.69888001 95.64944186 -99.75071207 94.10139978 -99.79785156 92.55322266 C-99.87503363 90.1864689 -99.98384403 87.82246295 -100.09375 85.45703125 C-100.1451719 83.94798161 -100.19471603 82.43886657 -100.2421875 80.9296875 C-100.27843231 80.22544647 -100.31467712 79.52120544 -100.35202026 78.79562378 C-100.4227973 75.42181562 -100.37127424 73.7374848 -98.10986328 71.14892578 C-97.4136084 70.54290527 -96.71735352 69.93688477 -96 69.3125 C-91.31148166 59.97698805 -92.77413577 47.24423971 -92.5 37.0625 C-92.1942066 26.46360319 -91.80550486 15.88689354 -91 5.3125 C-88.28758685 5.88035487 -85.58114798 6.46607923 -82.875 7.0625 C-81.73417969 7.29839844 -81.73417969 7.29839844 -80.5703125 7.5390625 C-74.19814924 8.96730599 -68.94667591 11.25509488 -65.1875 16.875 C-64.78917969 17.45378906 -64.39085937 18.03257812 -63.98046875 18.62890625 C-61.52827251 22.8396496 -61.66610544 27.33299083 -61.4375 32.0625 C-61.39431641 32.82949219 -61.35113281 33.59648437 -61.30664062 34.38671875 C-60.91528516 42.05231629 -61 49.60503646 -61 57.3125 C-43.18 57.3125 -25.36 57.3125 -7 57.3125 C-7.11873308 39.67600991 -7.11873308 39.67600991 -7.27026367 22.03979492 C-7.27902362 19.83252394 -7.28666872 17.62524813 -7.29296875 15.41796875 C-7.3159906 13.69205505 -7.3159906 13.69205505 -7.33947754 11.93127441 C-7.34002136 10.28729675 -7.34002136 10.28729675 -7.34057617 8.61010742 C-7.35056892 7.18114388 -7.35056892 7.18114388 -7.36076355 5.72331238 C-6.69630532 1.28305191 -4.28655876 -0.10554027 0 0 Z " fill="#000000" transform="translate(419,268.6875)"/>
<path d="M0 0 C1.0209375 0.00580078 1.0209375 0.00580078 2.0625 0.01171875 C4 0.3125 4 0.3125 7 2.3125 C7.99 1.6525 8.98 0.9925 10 0.3125 C14.2475253 0.00358907 17.3586453 -0.01796701 21 2.3125 C21.66 1.6525 22.32 0.9925 23 0.3125 C30.22870318 -0.2612066 30.22870318 -0.2612066 32.602005 1.50410461 C34.50157752 3.9613224 34.36216228 5.5232936 34.34057617 8.61010742 C34.34021362 9.70609253 34.33985107 10.80207764 34.33947754 11.93127441 C34.32412964 13.08188354 34.30878174 14.23249268 34.29296875 15.41796875 C34.28994751 16.47649048 34.28692627 17.53501221 34.28381348 18.62561035 C34.26810453 22.58383926 34.22622063 26.54192931 34.1875 30.5 C34.125625 39.348125 34.06375 48.19625 34 57.3125 C51.82 57.3125 69.64 57.3125 88 57.3125 C88 52.3625 88 47.4125 88 42.3125 C88.04859391 38.99110633 88.11792239 35.6912964 88.25 32.375 C88.26417969 31.60349609 88.27835938 30.83199219 88.29296875 30.03710938 C88.58855843 23.03163406 90.78393721 17.8126734 95.4375 12.5625 C101.62781714 7.87622411 110.49037923 6.44346698 118 5.3125 C118.90631251 17.21026208 119.2860976 29.11790158 119.60717773 41.04321289 C119.49417394 57.37727812 119.49417394 57.37727812 125 72.3125 C125.66 72.6425 126.32 72.9725 127 73.3125 C126.93056646 77.84792964 126.84234047 82.3824856 126.73754883 86.91723633 C126.70453079 88.45619926 126.67642878 89.99527656 126.65356445 91.53442383 C126.35753023 110.94041172 126.35753023 110.94041172 121.203125 117.65234375 C115.61030544 122.22727015 110.96391983 124.64288359 103.5625 124.25 C97.10874933 123.30286253 92.58398617 120.30263647 88.5625 115.25 C81.68977223 102.3292718 86.5083821 79.60294739 87 67.3125 C69.51 67.3125 52.02 67.3125 34 67.3125 C34.03480469 71.17582031 34.06960937 75.03914063 34.10546875 79.01953125 C34.12885108 82.75267803 34.14707526 86.48581671 34.16479492 90.21899414 C34.17990063 92.81766397 34.20038634 95.41630823 34.22631836 98.01489258 C34.26262243 101.74566958 34.27970858 105.47611013 34.29296875 109.20703125 C34.30845261 110.37273148 34.32393646 111.5384317 34.33988953 112.73945618 C34.34011612 113.82035019 34.34034271 114.9012442 34.34057617 116.01489258 C34.35056892 117.44385612 34.35056892 117.44385612 34.36076355 118.90168762 C33.93627394 121.73835117 33.2732454 122.61929047 31 124.3125 C29.0625 124.67578125 29.0625 124.67578125 27 124.625 C25.9790625 124.61919922 25.9790625 124.61919922 24.9375 124.61328125 C23 124.3125 23 124.3125 20 122.3125 C19.01 122.9725 18.02 123.6325 17 124.3125 C12.7524747 124.62141093 9.6413547 124.64296701 6 122.3125 C5.34 122.9725 4.68 123.6325 4 124.3125 C-3.09492669 124.87558942 -3.09492669 124.87558942 -5.60498047 123.31396484 C-7.82865644 120.1236086 -7.36605157 116.67268371 -7.29296875 112.92578125 C-7.28872391 112.10877243 -7.28447906 111.29176361 -7.28010559 110.44999695 C-7.26331691 107.84132893 -7.22566519 105.23343438 -7.1875 102.625 C-7.17245337 100.85613095 -7.15876492 99.08724979 -7.14648438 97.31835938 C-7.11341286 92.98277504 -7.0616299 88.64776864 -7 84.3125 C-10.63 84.3125 -14.26 84.3125 -18 84.3125 C-18 78.7025 -18 73.0925 -18 67.3125 C-33.84 67.3125 -49.68 67.3125 -66 67.3125 C-66 64.0125 -66 60.7125 -66 57.3125 C-50.16 57.3125 -34.32 57.3125 -18 57.3125 C-18 51.7025 -18 46.0925 -18 40.3125 C-14.37 40.3125 -10.74 40.3125 -7 40.3125 C-7.01571045 39.20737061 -7.0314209 38.10224121 -7.04760742 36.96362305 C-7.10188557 32.86555259 -7.13634224 28.76751393 -7.16479492 24.66918945 C-7.17988641 22.89504657 -7.20036191 21.12094102 -7.22631836 19.34692383 C-7.26268641 16.79759513 -7.27972238 14.24875941 -7.29296875 11.69921875 C-7.30845261 10.90537277 -7.32393646 10.11152679 -7.33988953 9.29362488 C-7.34156994 3.80178714 -7.34156994 3.80178714 -5.6027832 1.31103516 C-3.6007416 0.06376171 -2.34874388 -0.05782892 0 0 Z " fill="#000000" transform="translate(66,268.6875)"/>
<path d="M0 0 C7.41491718 5.20169569 13.70171511 13.33063306 15.3515625 22.4140625 C16.62621015 35.16053902 14.36976835 45.24520292 6.14453125 55.30078125 C0.39626471 61.69230619 -7.7774749 65.98542541 -16.43359375 66.5625 C-27.23795826 67.09386219 -36.05144892 64.62221843 -44.6015625 57.84375 C-51.38111423 51.63658068 -55.93124052 43.15105586 -56.63671875 33.8984375 C-56.82323178 22.11703138 -54.19482972 13.58864566 -46.43359375 4.5625 C-33.78946983 -7.89450158 -14.9124517 -8.8086392 0 0 Z " fill="#000000" transform="translate(276.43359375,124.4375)"/>
<path d="M0 0 C25.08 0 50.16 0 76 0 C76.495 4.95 76.495 4.95 77 10 C51.26 10 25.52 10 -1 10 C-0.67 6.7 -0.34 3.4 0 0 Z " fill="#000000" transform="translate(218,326)"/>
</svg>
