<?xml version="1.0" encoding="UTF-8"?>
<svg version="1.1" xmlns="http://www.w3.org/2000/svg" width="512" height="512" viewBox="0 0 512 512">
  <style>
    path { fill: #f97316; }
  </style>
  <path d="M0 0 C0.67634941 -0.00170885 1.35269883 -0.0034177 2.04954368 -0.00517833 C4.32055583 -0.00847802 6.59127388 0.00253814 8.86225891 0.01345825 C10.48829644 0.01402226 12.11433447 0.013706 13.7403717 0.01257324 C18.15951903 0.01199833 22.57855826 0.02377495 26.99768043 0.03772116 C31.61414021 0.05020553 36.23060235 0.0513972 40.84707642 0.05377197 C49.59120279 0.05999349 58.33527928 0.07641339 67.07938367 0.09647095 C77.03330765 0.11880906 86.98723398 0.12981812 96.94117677 0.13986182 C117.41921183 0.16077904 137.89720196 0.19596806 158.37519836 0.24050903 C158.45982726 7.93597581 158.45982726 7.93597581 156.94160461 11.33425903 C156.62731506 12.04678833 156.31302551 12.75931763 155.98921204 13.49343872 C155.46871277 14.60573853 155.46871277 14.60573853 154.93769836 15.74050903 C154.39689636 16.91855103 154.39689636 16.91855103 153.84516907 18.12039185 C145.26787881 36.40137647 133.31474332 51.74523471 119.37519836 66.24050903 C118.85667297 66.78094849 118.33814758 67.32138794 117.8039093 67.87820435 C110.72423556 75.21330829 103.43549501 81.9751524 95.37519836 88.24050903 C94.39293274 89.02812622 93.41066711 89.81574341 92.39863586 90.62722778 C78.36657517 101.78673937 63.0480667 110.83207646 47.31513977 119.35671997 C34.15323974 126.49317458 22.70335525 134.20815963 12.37519836 145.24050903 C10.63247898 142.94328803 8.97608684 140.64184175 7.37519836 138.24050903 C4.29153966 137.99029334 4.29153966 137.99029334 1.37519836 138.24050903 C1.75262998 146.73272048 6.4800813 153.28168559 10.93769836 160.28347778 C24.4834539 181.65042233 32.92158117 204.93957327 35.37519836 230.24050903 C35.48476868 231.26402466 35.59433899 232.28754028 35.70722961 233.34207153 C39.33440339 272.32209899 39.33440339 272.32209899 33.37519836 284.24050903 C11.70581148 277.79475718 -5.70527825 258.48876822 -16.24980164 239.30300903 C-25.71142658 221.41938723 -28.47107155 202.21825636 -29.62480164 182.24050903 C-33.09628006 181.49093746 -33.09628006 181.49093746 -36.62480164 181.24050903 C-37.84634609 211.507666 -28.74373385 241.92340597 -8.13261414 264.55300903 C-7.30503601 265.43988403 -6.47745789 266.32675903 -5.62480164 267.24050903 C-5.04472351 267.90050903 -4.46464539 268.56050903 -3.86698914 269.24050903 C5.74709832 279.67590044 19.03061185 286.60328979 31.37519836 293.24050903 C30.88593991 298.40794166 30.24368039 303.34317999 28.87519836 308.36550903 C19.04775502 344.62877497 31.65636045 385.20150782 47.07051086 418.01785278 C47.52579163 418.99278687 47.98107239 419.96772095 48.45014954 420.97219849 C49.33045412 422.84148529 50.22548797 424.70393802 51.13813782 426.55764771 C55.58109006 435.914148 56.28920155 444.2915159 53.37519836 454.24050903 C50.76832803 460.81975322 46.35631969 465.59637783 39.88691711 468.50222778 C30.04522364 471.39504282 20.93822469 469.00485211 11.43769836 466.24050903 C-9.19794524 460.42493249 -28.25630263 463.4043204 -48.80839539 467.83035278 C-57.28501713 469.63771516 -65.34506858 470.41422568 -73.99980164 470.36550903 C-74.82762146 470.36430054 -75.65544128 470.36309204 -76.50834656 470.36184692 C-81.88045944 470.32768321 -87.14669938 469.98570178 -92.48808289 469.39675903 C-95.31733269 469.18986691 -97.84337603 469.71899173 -100.62480164 470.24050903 C-104.34396427 470.57959333 -107.91811438 470.76157689 -111.62480164 470.24050903 C-113.93730164 468.11550903 -113.93730164 468.11550903 -114.62480164 465.24050903 C-114.11332703 462.2204895 -114.11332703 462.2204895 -112.62480164 459.24050903 C-110.11441101 458.03975993 -108.14871273 457.33837079 -105.49589539 456.68582153 C-104.0331904 456.27837782 -102.57079574 455.86981865 -101.10868835 455.4602356 C-99.98705292 455.15889709 -99.98705292 455.15889709 -98.84275818 454.85147095 C-95.43612217 453.91307346 -92.08139043 452.82776718 -88.72245789 451.73269653 C-88.07088715 451.52226212 -87.41931641 451.3118277 -86.7480011 451.09501648 C-48.20073539 440.34829204 -48.20073539 440.34829204 -18.62480164 416.24050903 C-14.81136331 408.01521592 -13.44957301 400.20891078 -13.49980164 391.17800903 C-13.4950885 390.05918335 -13.4950885 390.05918335 -13.49028015 388.91775513 C-13.50161173 384.31122085 -13.91134622 379.93313739 -14.56230164 375.36550903 C-15.13089102 369.09544804 -13.14454056 365.95056083 -9.53495789 360.96316528 C-0.13876372 347.57022595 2.61823783 328.26685864 2.43769836 312.24050903 C2.43318665 311.46578247 2.42867493 310.69105591 2.42402649 309.89285278 C2.41239594 308.0087038 2.39446743 306.12459538 2.37519836 304.24050903 C0.39519836 304.24050903 -1.58480164 304.24050903 -3.62480164 304.24050903 C-4.50658912 306.8858715 -4.82691799 308.79021403 -5.01933289 311.52957153 C-6.37564865 329.0159429 -8.94126486 343.84918402 -17.62480164 359.24050903 C-18.28480164 359.24050903 -18.94480164 359.24050903 -19.62480164 359.24050903 C-34.11871241 332.98300333 -34.11871241 332.98300333 -39.62480164 321.24050903 C-39.98138855 320.48044556 -40.33797546 319.72038208 -40.70536804 318.93728638 C-55.25290755 287.49013444 -62.91640484 253.54629052 -66.10527039 219.15066528 C-67.49620046 204.19742233 -70.39076071 191.42654264 -76.68608093 177.74685669 C-83.03359055 163.92737874 -87.67323117 148.26021482 -82.62480164 133.24050903 C-77.97239905 121.25649926 -69.91173642 114.77135734 -58.62480164 109.24050903 C-58.62480164 107.59050903 -58.62480164 105.94050903 -58.62480164 104.24050903 C-61.59108635 103.36374877 -63.11087415 103.02602211 -66.01152039 104.23660278 C-67.1504071 104.95009888 -67.1504071 104.95009888 -68.31230164 105.67800903 C-72.46676349 108.24050903 -72.46676349 108.24050903 -74.62480164 108.24050903 C-68.29201202 79.7232887 -37.13075339 -0.05638687 0 0 Z M48.10566711 15.11941528 C21.51100648 32.726633 1.72900059 56.85927556 -5.62480164 88.24050903 C-6.71814085 94.10354056 -6.80811905 99.85955916 -6.81230164 105.80300903 C-6.82454773 106.72275513 -6.83679382 107.64250122 -6.84941101 108.59011841 C-6.86003881 113.51787325 -6.68557475 117.66342348 -4.62480164 122.24050903 C-3.96480164 122.90050903 -3.30480164 123.56050903 -2.62480164 124.24050903 C0.30973097 123.87369246 1.23957082 123.37613658 3.37519836 121.24050903 C3.58748756 118.70081696 3.58748756 118.70081696 3.42988586 115.73660278 C3.40217102 114.61165405 3.37445618 113.48670532 3.34590149 112.32766724 C3.31431946 111.12328003 3.28273743 109.91889282 3.25019836 108.67800903 C2.95944565 82.32162159 12.10176377 61.02974838 30.25898743 41.8899231 C37.93262686 34.06995515 46.45381081 27.56658384 55.37519836 21.24050903 C55.0075811 17.49903988 55.0075811 17.49903988 52.61347961 14.76785278 C50.33777613 14.00908228 50.33777613 14.00908228 48.10566711 15.11941528 Z " fill="#000000" transform="translate(233.6248016357422,20.759490966796875)"/>
</svg>
