<?xml version="1.0" standalone="no"?>
<!DOCTYPE svg PUBLIC "-//W3C//DTD SVG 20010904//EN"
 "http://www.w3.org/TR/2001/REC-SVG-20010904/DTD/svg10.dtd">
<svg version="1.0" xmlns="http://www.w3.org/2000/svg"
 width="512.000000pt" height="747.000000pt" viewBox="0 0 512.000000 747.000000"
 preserveAspectRatio="xMidYMid meet">

<g transform="translate(0.000000,747.000000) scale(0.100000,-0.100000)"
fill="#22c55e" stroke="none">
<path d="M1597 7447 c-17 -26 -177 -344 -177 -352 0 -3 31 -20 69 -40 l70 -35
-49 -87 c-27 -49 -52 -105 -55 -126 -10 -53 17 -118 66 -161 l40 -34 -45 -405
-45 -405 -31 -30 c-36 -37 -40 -86 -9 -125 l20 -26 -25 -226 c-15 -125 -26
-232 -26 -239 0 -21 -76 -66 -112 -66 -65 -1 -158 -65 -158 -109 0 -6 -34 -33
-75 -61 -69 -47 -75 -53 -75 -85 0 -42 35 -71 75 -61 17 4 25 2 25 -6 0 -22
-129 -661 -135 -666 -2 -3 -24 13 -49 36 -83 77 -185 114 -311 114 -429 -2
-636 -520 -324 -817 34 -32 86 -69 124 -86 38 -18 62 -35 59 -41 -4 -6 -51
-60 -105 -120 -168 -188 -178 -249 -101 -638 84 -421 86 -443 87 -805 0 -307
1 -322 22 -360 35 -66 66 -78 233 -86 80 -4 297 -8 483 -8 317 -1 338 -2 333
-18 -3 -10 -60 -236 -126 -503 -135 -541 -135 -540 -79 -638 45 -79 137 -132
230 -132 86 0 190 64 229 140 31 61 350 1363 350 1429 -1 98 -53 181 -142 225
-73 37 -97 34 -133 -17 -59 -81 -192 -137 -294 -122 -72 10 -145 50 -200 110
-44 49 -54 55 -90 55 l-41 0 0 205 c0 228 -14 355 -59 541 -32 129 -91 317
-114 360 l-14 27 -82 -106 c-86 -111 -113 -136 -170 -155 -85 -29 -192 8 -245
85 -40 57 -47 140 -18 204 10 24 155 223 321 442 l302 399 114 551 c64 304
123 569 132 590 31 70 119 127 198 127 26 0 27 1 12 24 -14 21 -14 44 10 257
l26 233 39 36 c48 46 52 88 11 128 l-28 27 44 402 45 402 49 12 c62 15 99 51
157 157 25 45 47 82 51 82 3 0 223 -112 490 -249 l484 -249 3 -2631 2 -2631
-458 0 -458 0 -26 -105 -25 -105 483 0 484 0 0 -305 0 -305 -332 -2 -333 -3 0
-105 0 -105 1463 -3 1462 -2 0 110 0 110 -270 0 -270 0 0 3025 0 3025 115 0
115 0 0 215 0 215 -900 0 -901 0 -547 281 c-301 155 -615 317 -698 360 l-152
79 -15 -23z m56 -618 c28 -15 37 -28 37 -58 0 -24 -25 -61 -41 -61 -4 0 -9 12
-11 28 -3 31 -44 45 -54 18 -10 -25 -24 -18 -24 12 0 32 8 45 35 60 25 14 32
15 58 1z m1399 -218 c47 -52 35 -135 -24 -171 -103 -63 -218 43 -163 150 35
68 135 79 187 21z m1504 5 c29 -29 34 -41 34 -80 0 -89 -90 -142 -169 -101
-33 16 -61 65 -61 105 0 60 55 109 124 110 30 0 45 -7 72 -34z m-1096 -2456
l0 -2160 -95 0 -95 0 0 -50 0 -50 95 0 95 0 0 -40 0 -40 -95 0 -95 0 0 -50 0
-50 95 0 95 0 0 -40 0 -40 -95 0 -95 0 0 -50 0 -50 95 0 95 0 0 -40 0 -40 -95
0 -95 0 0 -50 0 -50 95 0 95 0 0 -40 0 -40 -95 0 -95 0 0 -50 0 -50 95 0 95 0
0 -40 0 -40 -95 0 -95 0 0 -50 0 -50 43 0 c41 0 44 -2 65 -45 12 -25 22 -48
22 -50 0 -3 -74 -5 -165 -5 l-165 0 0 2710 0 2710 195 0 195 0 0 -2160z m500
0 l0 -2160 -220 0 -220 0 0 2160 0 2160 220 0 220 0 0 -2160z m410 -550 l0
-2710 -150 0 c-82 0 -150 2 -150 5 0 2 10 25 22 50 19 40 26 45 55 45 33 0 33
0 33 50 l0 50 -85 0 -85 0 0 40 0 40 85 0 85 0 0 50 0 50 -85 0 -85 0 0 40 0
40 85 0 85 0 0 50 0 50 -85 0 -85 0 0 40 0 40 85 0 85 0 0 50 0 50 -85 0 -85
0 0 40 0 40 85 0 85 0 0 50 0 50 -85 0 -85 0 0 40 0 40 85 0 85 0 0 50 0 50
-85 0 -85 0 0 2160 0 2160 180 0 180 0 0 -2710z m-410 -1750 l0 -40 -220 0
-220 0 0 40 0 40 220 0 220 0 0 -40z m0 -180 l0 -40 -220 0 -220 0 0 40 0 40
220 0 220 0 0 -40z m0 -180 l0 -40 -220 0 -220 0 0 40 0 40 220 0 220 0 0 -40z
m0 -180 l0 -40 -220 0 -220 0 0 40 0 40 220 0 220 0 0 -40z m0 -180 l0 -40
-220 0 -220 0 0 40 0 40 220 0 220 0 0 -40z m-82 -185 c12 -25 22 -48 22 -50
0 -3 -74 -5 -164 -5 l-164 0 21 50 21 50 121 0 121 0 22 -45z m492 -475 l0
-210 -650 0 -650 0 0 210 0 210 650 0 650 0 0 -210z"/>
<path d="M2932 6568 c-7 -7 -12 -21 -12 -33 0 -12 5 -26 12 -33 7 -7 21 -12
33 -12 12 0 26 5 33 12 7 7 12 21 12 33 0 12 -5 26 -12 33 -7 7 -21 12 -33 12
-12 0 -26 -5 -33 -12z"/>
<path d="M4440 6564 c-10 -11 -11 -23 -4 -42 17 -48 84 -38 84 12 0 43 -53 63
-80 30z"/>
<path d="M1395 5026 c-38 -17 -80 -65 -93 -108 -6 -18 -61 -276 -122 -573
l-112 -540 -102 -135 c-55 -74 -198 -263 -316 -419 l-215 -284 0 -66 c0 -79
24 -120 88 -152 49 -26 125 -22 165 8 30 22 665 852 687 898 8 17 69 291 136
610 129 620 132 645 89 705 -42 60 -137 86 -205 56z"/>
<path d="M1666 4770 c-37 -164 -36 -154 -18 -168 25 -19 62 -11 84 19 22 29
17 48 -31 125 -28 45 -30 47 -35 24z"/>
<path d="M1404 2230 c-59 -18 -126 -73 -156 -126 -60 -109 -44 -223 45 -309
133 -129 341 -90 418 80 22 49 25 152 5 199 -19 47 -82 114 -128 137 -44 23
-140 32 -184 19z m132 -159 c37 -22 59 -78 49 -119 -3 -15 -18 -39 -32 -54
-73 -76 -193 -22 -193 88 0 28 8 44 34 70 40 40 92 46 142 15z"/>
<path d="M174 1331 c-72 -18 -114 -71 -114 -146 0 -85 57 -144 140 -145 l45
-1 -25 -16 c-49 -33 -139 -132 -164 -182 -51 -100 -56 -140 -56 -478 l0 -313
105 0 105 0 0 298 c0 336 5 369 66 440 20 24 55 53 78 65 40 22 49 22 468 25
l426 3 41 168 c23 93 41 176 41 185 0 14 -41 16 -428 16 -472 0 -502 3 -558
60 -25 26 -36 29 -84 29 -30 -1 -69 -4 -86 -8z"/>
</g>
</svg>
