<?xml version="1.0" standalone="no"?>
<!DOCTYPE svg PUBLIC "-//W3C//DTD SVG 20010904//EN"
 "http://www.w3.org/TR/2001/REC-SVG-20010904/DTD/svg10.dtd">
<svg version="1.0" xmlns="http://www.w3.org/2000/svg"
 width="512.000000pt" height="512.000000pt" viewBox="0 0 512.000000 512.000000"
 preserveAspectRatio="xMidYMid meet">

<g transform="translate(0.000000,512.000000) scale(0.100000,-0.100000)"
fill="#ef4444" stroke="none">
<path d="M635 4442 c-67 -43 -95 -98 -95 -188 l0 -53 -49 6 c-62 7 -109 -9
-148 -50 -44 -47 -53 -85 -53 -233 l0 -134 -133 0 c-90 0 -137 -4 -145 -12
-17 -17 -17 -239 0 -256 8 -8 55 -12 145 -12 l133 0 0 -127 c0 -71 5 -146 11
-168 23 -82 120 -140 200 -118 l39 10 0 -51 c0 -76 18 -126 59 -167 77 -78
211 -57 262 41 17 31 19 61 19 307 l0 273 85 0 85 0 0 -424 0 -424 -114 -4
c-124 -3 -145 -11 -190 -72 -29 -38 -29 -124 0 -162 44 -60 67 -69 187 -74
l112 -5 3 -633 2 -632 -27 0 c-64 -1 -159 -70 -182 -133 -15 -40 -14 -260 1
-275 17 -17 819 -17 836 0 19 19 16 229 -4 276 -29 71 -110 131 -176 132 l-28
0 0 1215 0 1215 1090 0 1090 0 0 -1215 0 -1215 -27 0 c-67 -1 -148 -61 -177
-132 -20 -47 -23 -257 -4 -276 17 -17 819 -17 836 0 15 15 17 234 3 271 -25
66 -120 136 -184 137 l-27 0 2 632 3 633 112 5 c120 5 143 14 187 74 33 43 29
122 -8 170 -40 54 -77 66 -196 66 l-100 0 0 425 0 425 85 0 84 0 3 -282 c3
-278 3 -284 26 -316 29 -40 89 -72 137 -72 107 0 175 84 175 216 l0 51 39 -10
c80 -22 177 36 200 118 6 22 11 97 11 168 l0 127 133 0 c90 0 137 4 145 12 17
17 17 239 0 256 -8 8 -55 12 -145 12 l-133 0 0 134 c0 148 -9 186 -53 233 -39
41 -86 57 -148 50 l-49 -6 0 53 c0 132 -75 213 -187 204 -57 -5 -92 -25 -127
-72 -20 -26 -21 -44 -26 -309 l-5 -282 -80 0 -80 0 -3 154 c-1 93 -7 160 -13
168 -9 10 -56 13 -199 13 -143 0 -190 -3 -199 -13 -6 -8 -12 -75 -13 -168 l-3
-154 -1085 0 -1085 0 -3 154 c-1 93 -7 160 -13 168 -9 10 -56 13 -199 13 -143
0 -190 -3 -199 -13 -6 -8 -12 -75 -13 -168 l-3 -154 -80 0 -80 0 -5 282 c-5
265 -6 283 -26 309 -36 49 -70 67 -131 71 -45 3 -65 0 -88 -15z m132 -94 l23
-21 0 -678 0 -678 -26 -20 c-39 -31 -77 -27 -108 10 l-26 31 0 655 c0 751 -3
720 84 722 18 1 39 -8 53 -21z m3678 16 c44 -17 45 -25 45 -718 l0 -655 -26
-31 c-31 -36 -69 -40 -108 -9 l-26 20 0 677 0 676 22 23 c21 23 59 30 93 17z
m-3928 -266 l23 -21 0 -424 0 -424 -25 -24 c-33 -33 -70 -32 -106 4 l-29 29 0
407 c0 473 0 472 84 474 18 1 39 -8 53 -21z m4178 16 c43 -17 45 -42 45 -469
l0 -407 -29 -29 c-36 -36 -73 -37 -106 -4 l-25 24 0 422 c0 420 0 423 22 446
21 23 59 30 93 17z m-3315 -199 l0 -125 -120 0 -120 0 0 125 0 125 120 0 120
0 0 -125z m2600 0 l0 -125 -120 0 -120 0 0 125 0 125 120 0 120 0 0 -125z
m-3690 -265 l0 -50 -100 0 -100 0 0 50 0 50 100 0 100 0 0 -50z m3950 0 l0
-50 -1680 0 -1680 0 0 50 0 50 1680 0 1680 0 0 -50z m790 0 l0 -50 -100 0
-100 0 0 50 0 50 100 0 100 0 0 -50z m-3650 -1355 l0 -1215 -120 0 -120 0 0
1215 0 1215 120 0 120 0 0 -1215z m2600 0 l0 -1215 -120 0 -120 0 0 1215 0
1215 120 0 120 0 0 -1215z m-2930 210 l0 -65 -100 0 c-87 0 -103 3 -120 20
-26 26 -25 58 2 87 20 21 30 23 120 23 l98 0 0 -65z m3239 39 c26 -33 27 -58
1 -84 -17 -17 -33 -20 -120 -20 l-100 0 0 65 0 65 99 0 c96 0 100 -1 120 -26z
m-2755 -1569 c49 -24 66 -61 66 -149 l0 -76 -340 0 -340 0 0 75 c0 86 16 127
58 149 40 22 510 23 556 1z m2606 0 c44 -23 60 -63 60 -150 l0 -75 -340 0
-340 0 0 76 c0 87 16 125 64 148 46 23 513 23 556 1z"/>
<path d="M2019 2236 c-62 -16 -104 -48 -136 -104 -26 -43 -28 -57 -32 -175 -4
-180 -24 -167 256 -167 l223 0 0 -425 0 -425 -123 0 c-82 0 -127 -4 -135 -12
-8 -8 -12 -51 -12 -128 0 -77 4 -120 12 -128 17 -17 959 -17 976 0 8 8 12 51
12 128 0 77 -4 120 -12 128 -8 8 -53 12 -135 12 l-123 0 0 425 0 425 223 0
c280 0 260 -13 256 167 -4 119 -6 131 -32 176 -33 55 -83 92 -147 106 -68 16
-1012 13 -1071 -3z m1098 -102 c47 -34 63 -79 63 -171 l0 -83 -620 0 -620 0 0
80 c0 115 28 169 96 190 16 5 259 8 541 7 500 -2 512 -2 540 -23z m-417 -769
l0 -425 -140 0 -140 0 0 425 0 425 140 0 140 0 0 -425z m270 -565 l0 -50 -410
0 -410 0 0 50 0 50 410 0 410 0 0 -50z"/>
</g>
</svg>
