<?xml version="1.0" standalone="no"?>
<!DOCTYPE svg PUBLIC "-//W3C//DTD SVG 20010904//EN"
 "http://www.w3.org/TR/2001/REC-SVG-20010904/DTD/svg10.dtd">
<svg version="1.0" xmlns="http://www.w3.org/2000/svg"
 width="512.000000pt" height="512.000000pt" viewBox="0 0 512.000000 512.000000"
 preserveAspectRatio="xMidYMid meet">

<g transform="translate(0.000000,512.000000) scale(0.100000,-0.100000)"
fill="#3b82f6" stroke="none">
<path d="M1962 5113 c-7 -3 -49 -58 -92 -124 -79 -116 -81 -119 -133 -133 -28
-9 -315 -85 -637 -171 -495 -131 -599 -162 -675 -199 -205 -101 -334 -258
-397 -482 l-23 -79 -3 -1125 -3 -1125 121 -800 c66 -440 120 -806 120 -813 0
-7 11 -24 25 -37 l24 -25 351 0 351 0 24 25 25 24 0 493 1 493 -78 392 -78
392 28 57 c16 31 32 53 36 48 4 -5 26 -54 50 -110 23 -55 60 -132 82 -170 l41
-69 39 -425 c36 -394 39 -450 39 -763 l0 -338 25 -24 24 -25 1311 0 1311 0 24
25 25 24 0 338 c0 312 3 370 39 763 l39 425 41 69 c22 38 59 115 82 170 24 56
46 105 50 110 4 5 20 -17 36 -48 l28 -57 -78 -392 -78 -392 1 -493 0 -493 25
-24 24 -25 351 0 351 0 24 25 c14 13 25 30 25 37 0 7 54 373 120 813 l121 800
-3 1125 c-3 1122 -3 1125 -25 1202 -64 226 -193 382 -398 484 -77 38 -182 69
-710 209 -341 91 -628 168 -638 171 -10 3 -53 59 -97 123 -43 65 -86 121 -95
125 -20 7 -1174 7 -1193 -1z m1191 -267 c42 -63 84 -117 94 -120 10 -3 290
-77 623 -165 333 -88 634 -170 670 -181 190 -58 338 -213 397 -415 16 -55 18
-145 21 -1168 l3 -1108 -111 -737 c-61 -405 -113 -749 -116 -765 l-6 -27 -244
0 -244 0 0 433 -1 432 82 415 82 415 -49 85 c-27 47 -62 123 -78 168 l-28 82
26 158 c36 219 46 345 46 580 l0 202 40 64 c46 73 50 107 15 141 -29 30 -74
33 -103 8 -10 -10 -93 -137 -183 -282 -100 -160 -177 -273 -196 -288 -66 -51
-80 -52 -502 -53 l-395 0 -101 100 c-86 85 -107 100 -134 100 -43 0 -81 -38
-81 -82 0 -28 16 -48 123 -156 l124 -123 454 3 c448 3 455 3 511 26 77 31 155
105 218 205 l52 82 -6 -130 c-10 -245 -54 -498 -121 -700 l-33 -100 -1 243 -1
243 -25 24 c-32 33 -78 33 -110 0 l-25 -24 0 -415 c0 -404 -1 -425 -40 -851
-22 -240 -40 -493 -40 -561 l0 -124 -1200 0 -1200 0 0 124 c0 68 -18 321 -40
561 -39 426 -40 447 -40 851 l0 415 -25 24 c-32 33 -78 33 -110 0 l-25 -24 -1
-243 -1 -243 -33 100 c-67 202 -111 455 -121 700 l-6 130 52 -82 c63 -100 141
-174 218 -205 56 -23 63 -23 509 -26 l453 -3 25 25 c33 33 33 79 0 111 l-24
25 -428 0 c-458 1 -467 2 -534 53 -22 16 -92 120 -198 289 -90 145 -173 271
-183 281 -29 25 -74 22 -103 -8 -35 -34 -31 -68 15 -141 l40 -64 0 -202 c0
-235 10 -361 46 -580 l26 -158 -28 -82 c-16 -45 -51 -121 -78 -168 l-49 -85
82 -415 82 -415 -1 -432 0 -433 -244 0 -244 0 -6 28 c-3 15 -55 359 -116 764
l-111 737 3 1108 c3 1023 5 1113 21 1168 59 202 207 357 397 415 36 11 321 88
635 171 314 83 594 157 623 166 52 14 54 17 129 129 l76 114 517 0 517 0 76
-114z m607 -4606 l0 -80 -1200 0 -1200 0 0 80 0 80 1200 0 1200 0 0 -80z"/>
<path d="M2185 4855 c-16 -16 -25 -35 -25 -57 0 -27 15 -47 103 -135 88 -88
108 -103 135 -103 44 0 82 38 82 82 0 27 -15 47 -103 135 -88 88 -108 103
-135 103 -22 0 -41 -9 -57 -25z"/>
<path d="M2743 4777 c-88 -88 -103 -108 -103 -135 0 -44 38 -82 82 -82 27 0
47 15 135 103 88 88 103 108 103 135 0 22 -9 41 -25 57 -16 16 -35 25 -57 25
-27 0 -47 -15 -135 -103z"/>
<path d="M1785 4535 c-26 -25 -32 -63 -15 -96 6 -11 84 -56 173 -100 151 -76
168 -87 253 -170 103 -100 133 -111 179 -64 47 46 36 76 -67 182 -91 93 -97
97 -270 184 -98 49 -189 89 -203 89 -14 0 -37 -11 -50 -25z"/>
<path d="M3080 4470 c-171 -86 -177 -90 -267 -183 -104 -106 -115 -136 -68
-182 46 -47 76 -36 179 64 85 83 102 94 253 170 89 44 167 89 173 100 27 52
-11 122 -67 120 -15 0 -107 -40 -203 -89z"/>
<path d="M2505 3895 l-25 -24 0 -406 0 -405 -40 -80 c-22 -44 -40 -91 -40
-105 0 -33 42 -75 75 -75 46 0 64 19 115 120 l50 100 0 425 0 426 -25 24 c-15
16 -36 25 -55 25 -19 0 -40 -9 -55 -25z"/>
<path d="M1465 3095 c-22 -21 -25 -33 -25 -95 0 -62 3 -74 25 -95 15 -16 36
-25 55 -25 19 0 40 9 55 25 22 21 25 33 25 95 0 62 -3 74 -25 95 -15 16 -36
25 -55 25 -19 0 -40 -9 -55 -25z"/>
<path d="M3545 3095 c-22 -21 -25 -33 -25 -95 0 -62 3 -74 25 -95 15 -16 36
-25 55 -25 19 0 40 9 55 25 22 21 25 33 25 95 0 62 -3 74 -25 95 -15 16 -36
25 -55 25 -19 0 -40 -9 -55 -25z"/>
<path d="M2112 2383 c-11 -10 -68 -82 -126 -160 -140 -190 -146 -209 -146
-465 0 -187 0 -189 25 -213 15 -16 36 -25 55 -25 19 0 40 9 55 25 25 24 25 26
25 202 0 98 5 195 11 215 5 21 59 104 119 185 120 161 129 185 85 228 -29 30
-74 33 -103 8z"/>
<path d="M2905 2375 c-44 -43 -35 -67 85 -228 60 -81 114 -164 119 -185 6 -20
11 -117 11 -215 0 -176 0 -178 25 -202 32 -33 78 -33 110 0 25 24 25 26 25
213 0 256 -6 275 -146 465 -58 78 -115 150 -126 160 -29 25 -74 22 -103 -8z"/>
<path d="M2505 2295 l-25 -24 0 -311 0 -311 25 -24 c15 -16 36 -25 55 -25 19
0 40 9 55 25 l25 24 0 311 0 311 -25 24 c-15 16 -36 25 -55 25 -19 0 -40 -9
-55 -25z"/>
<path d="M2185 1495 c-16 -15 -25 -36 -25 -55 0 -19 9 -40 25 -55 l24 -25 351
0 351 0 24 25 c16 15 25 36 25 55 0 19 -9 40 -25 55 l-24 25 -351 0 -351 0
-24 -25z"/>
<path d="M1977 1210 c-45 -47 -78 -92 -100 -137 -31 -66 -32 -73 -35 -225 l-4
-157 26 -25 c33 -34 79 -34 111 -1 24 23 25 29 25 157 0 160 12 192 100 284
69 72 78 107 35 149 -44 45 -79 35 -158 -45z"/>
<path d="M2505 1255 c-24 -23 -25 -28 -25 -175 0 -147 1 -152 25 -175 15 -16
36 -25 55 -25 19 0 40 9 55 25 24 23 25 28 25 175 0 147 -1 152 -25 175 -15
16 -36 25 -55 25 -19 0 -40 -9 -55 -25z"/>
<path d="M2985 1255 c-43 -42 -34 -77 35 -149 88 -92 100 -124 100 -284 0
-128 1 -134 25 -157 32 -33 78 -33 111 1 l26 25 -4 157 c-3 152 -4 159 -35
225 -44 93 -155 207 -201 207 -22 0 -41 -9 -57 -25z"/>
<path d="M2505 775 c-22 -21 -25 -33 -25 -95 0 -62 3 -74 25 -95 32 -33 78
-33 110 0 22 21 25 33 25 95 0 62 -3 74 -25 95 -15 16 -36 25 -55 25 -19 0
-40 -9 -55 -25z"/>
</g>
</svg>
