<?xml version="1.0" encoding="UTF-8"?>
<svg version="1.1" xmlns="http://www.w3.org/2000/svg" width="256" height="256">
<path d="M0 0 C1.22377853 -0.00852997 2.44755707 -0.01705994 3.7084198 -0.02584839 C5.05656446 -0.02514943 6.40470902 -0.0242264 7.75285339 -0.02310181 C9.17901969 -0.02908917 10.60518274 -0.0358952 12.03134155 -0.04345703 C15.89924525 -0.06110424 19.76706041 -0.0658119 23.63500047 -0.0670886 C26.05377192 -0.06851161 28.47252097 -0.07278407 30.89128685 -0.07808304 C39.33604228 -0.09657986 47.78073463 -0.10475418 56.22550964 -0.10317993 C64.0866368 -0.10197898 71.94748919 -0.12307305 79.80854684 -0.15466726 C86.56626701 -0.18085532 93.32389758 -0.19154615 100.08166808 -0.19026911 C104.11394933 -0.18976017 108.1459864 -0.19540532 112.17821693 -0.21662521 C115.97290774 -0.2360502 119.76712251 -0.23610341 123.56183052 -0.22159195 C124.9501185 -0.21950792 126.3384366 -0.22418056 127.72667313 -0.23631287 C142.2773125 -0.35518316 142.2773125 -0.35518316 147.90983582 4.26742554 C180.53886858 42.13250356 186.30403892 86.74530301 184.29680514 134.48634124 C183.97650495 142.29823243 183.86776552 150.10993992 183.76044869 157.92713189 C183.58233396 170.09275721 183.31398018 182.25856301 182.8400116 194.41635132 C182.79088623 196.15663101 182.79088623 196.15663101 182.74076843 197.93206787 C182.34016155 206.85541895 180.54729527 215.80935688 173.90983582 222.26742554 C166.66823999 227.79208469 160.49901232 230.57617824 151.27024841 230.53485107 C150.52080389 230.53938219 149.77135936 230.5439133 148.9992044 230.54858172 C146.4983228 230.56119996 143.9976597 230.55960702 141.49674988 230.55795288 C139.69930238 230.5639398 137.90185745 230.57074573 136.10441589 230.57830811 C131.22820843 230.59596011 126.35207118 230.60066319 121.47583485 230.60193968 C118.42670527 230.60336246 115.37759348 230.6076345 112.32846832 230.61293411 C101.6833788 230.63143279 91.03833932 230.63960506 80.39323425 230.63803101 C70.48323945 230.63683013 60.57346262 230.65792231 50.66352296 230.68951833 C42.14525909 230.71570571 33.6270663 230.72639724 25.1087625 230.72512019 C20.02569523 230.72461122 14.94282166 230.73025843 9.85979462 230.75147629 C5.07608106 230.77089975 0.29274514 230.77095508 -4.49098206 230.75644302 C-6.24125472 230.75435882 -7.99155128 230.75903257 -9.74178314 230.77116394 C-20.23227776 230.83913504 -28.69322767 230.1928184 -37.84016418 224.57992554 C-46.49820732 215.6813812 -48.38246438 206.9675046 -48.80915833 194.90219116 C-48.85852602 193.65388425 -48.90789371 192.40557734 -48.9587574 191.11944294 C-49.57443505 174.67392366 -49.92475693 158.22246053 -50.15266418 141.76742554 C-50.16422452 140.97763951 -50.17578485 140.18785348 -50.1876955 139.37413454 C-51.30932778 61.18792132 -51.30932778 61.18792132 -32.96516418 29.95492554 C-32.6068111 29.34144257 -32.24845802 28.72795959 -31.87924576 28.09588623 C-15.28812095 0.04826524 -15.28812095 0.04826524 0 0 Z M-5.2709198 21.05238342 C-5.91898952 22.43867668 -6.53085953 23.84300227 -7.09016418 25.26742554 C-7.52661758 26.05874374 -7.96307098 26.85006195 -8.41275024 27.6653595 C-8.73918015 28.31964432 -9.06561005 28.97392914 -9.40193176 29.64804077 C-9.78194839 30.40499741 -10.16196503 31.16195404 -10.55349731 31.94184875 C-10.94329269 32.72862503 -11.33308807 33.51540131 -11.73469543 34.32601929 C-12.14934555 35.15577774 -12.56399567 35.98553619 -12.99121094 36.84043884 C-13.8577244 38.57646352 -14.72231245 40.31345049 -15.58503723 42.05136108 C-16.91215682 44.72404272 -18.24579963 47.39339394 -19.58039856 50.06234741 C-20.42387786 51.75421514 -21.26699036 53.44626579 -22.10969543 55.13851929 C-22.50961197 55.93946518 -22.9095285 56.74041107 -23.32156372 57.56562805 C-25.22791906 60.77869302 -25.22791906 60.77869302 -26.09016418 64.26742554 C35.28983582 64.26742554 96.66983582 64.26742554 159.90983582 64.26742554 C152.05595634 47.67800261 152.05595634 47.67800261 143.97233582 31.20492554 C143.12832214 29.49852905 143.12832214 29.49852905 142.26725769 27.75765991 C141.72778503 26.67678101 141.18831238 25.5959021 140.63249207 24.48226929 C140.15561951 23.52441528 139.67874695 22.56656128 139.18742371 21.5796814 C137.99318782 19.16614609 137.99318782 19.16614609 135.90983582 17.26742554 C133.4163062 16.94541111 133.4163062 16.94541111 130.46395874 16.9730835 C129.30728195 16.95877289 128.15060516 16.94446228 126.95887756 16.92971802 C125.68352142 16.92434021 124.40816528 16.9189624 123.09416199 16.91342163 C121.74238382 16.90089364 120.39061256 16.88760015 119.03884888 16.87359619 C115.36108695 16.83876508 111.68337703 16.81767 108.00549102 16.80118513 C105.70820381 16.79088724 103.41093279 16.77873571 101.113657 16.76616287 C93.92742273 16.72805573 86.74122961 16.69959416 79.5549137 16.68293893 C71.25657854 16.66338946 62.95930975 16.6107438 54.66135043 16.52993715 C48.24938617 16.46963727 41.83772776 16.44000358 35.42548543 16.43337691 C31.59464033 16.42867292 27.76493412 16.41072212 23.93439293 16.36045456 C20.32976857 16.31391632 16.72703348 16.30541106 13.12218666 16.32597733 C11.17041993 16.32744157 9.21874956 16.28923524 7.26737976 16.24984741 C-0.19500656 16.19388889 -0.19500656 16.19388889 -5.2709198 21.05238342 Z M-31.09016418 81.26742554 C-31.17266418 101.43867554 -31.25516418 121.60992554 -31.34016418 142.39242554 C-31.3765802 148.75926636 -31.41299622 155.12610718 -31.45051575 161.68588257 C-31.46389428 167.39789912 -31.46389428 167.39789912 -31.47193909 173.10992432 C-31.47807752 175.65218913 -31.49213783 178.19444236 -31.51246643 180.7366333 C-31.54173473 184.58971358 -31.54578861 188.44208282 -31.54426575 192.29525757 C-31.55865818 193.4259775 -31.57305061 194.55669743 -31.58787918 195.72168159 C-31.55622498 201.70231824 -31.37514911 205.69143537 -27.09016418 210.26742554 C-22.95111089 213.35127456 -19.88087717 213.64555747 -14.771698 213.65510559 C-14.04478695 213.66049113 -13.3178759 213.66587667 -12.56893724 213.6714254 C-10.13842098 213.68570834 -7.70844909 213.67860065 -5.27790833 213.67147827 C-3.53322919 213.67718168 -1.78855379 213.68414582 -0.04388428 213.692276 C4.69166243 213.71022584 9.42702403 213.70903559 14.16259456 213.70333362 C18.11645073 213.7002444 22.0702712 213.70633125 26.0241223 213.71237236 C35.35186101 213.72642198 44.67950814 213.72485266 54.00724792 213.71347046 C63.62932068 213.70198853 73.25111474 213.71606518 82.87315077 213.74286693 C91.13571732 213.76502001 99.39819636 213.7716622 107.6607905 213.76579052 C112.59506405 213.76241884 117.52915894 213.7648501 122.46340752 213.78204155 C127.10348138 213.79750234 131.7431422 213.7935648 136.38319969 213.7747364 C138.08515595 213.77104812 139.78714276 213.77416598 141.48907089 213.78462219 C143.81465224 213.79781806 146.13886337 213.78629862 148.46438599 213.76863098 C150.41529852 213.76831706 150.41529852 213.76831706 152.40562344 213.76799679 C157.58496317 213.02813622 160.60124113 210.97734773 163.76228809 206.8468523 C165.02798449 204.00185415 165.28010531 202.09870466 165.27059937 198.99659729 C165.27473186 197.9569366 165.27886435 196.91727591 165.28312206 195.84611034 C165.27232774 194.71179231 165.26153341 193.57747427 165.25041199 192.40878296 C165.25077359 191.18898145 165.2511352 189.96917994 165.25150776 188.71241474 C165.25001974 186.08873455 165.24319617 183.46576825 165.2265625 180.84220886 C165.20405449 177.08172363 165.19624726 173.32154991 165.19364929 169.56100464 C165.17792323 160.52560159 165.13603959 151.49025938 165.09733582 142.45492554 C165.00452332 112.16711304 165.00452332 112.16711304 164.90983582 81.26742554 C100.22983582 81.26742554 35.54983582 81.26742554 -31.09016418 81.26742554 Z " fill="#000000" transform="translate(61.09016418457031,12.732574462890625)"/>
<path d="M0 0 C0.66 -0.0103125 1.32 -0.020625 2 -0.03125 C5.11791222 0.79694543 6.07891973 1.86893397 8 4.5 C8.6306891 7.97542785 8.6049806 11.42817048 8.609375 14.953125 C8.62591125 15.96848328 8.64244751 16.98384155 8.65948486 18.02996826 C8.7080339 21.27003995 8.7293516 24.50964205 8.75 27.75 C8.77815383 29.94794038 8.80808042 32.14585882 8.83984375 34.34375 C8.91379443 39.72908122 8.9653965 45.11428 9 50.5 C9.50450684 49.99025635 10.00901367 49.4805127 10.52880859 48.95532227 C12.80827034 46.65511905 15.09157761 44.35877123 17.375 42.0625 C18.1690625 41.26005859 18.963125 40.45761719 19.78125 39.63085938 C20.54179687 38.86708984 21.30234375 38.10332031 22.0859375 37.31640625 C22.7876709 36.60943604 23.4894043 35.90246582 24.21240234 35.17407227 C27.29003326 32.29189319 29.83096559 32.14661931 34.0234375 32.23046875 C36 32.5 36 32.5 38.5 34 C40.19909247 36.83182078 40.75981138 39.08520411 40.55419922 42.3972168 C38.38143862 50.64126394 27.00363978 58.64729896 21.04614258 64.58422852 C19.17085437 66.45409753 17.30104535 68.32932899 15.43164062 70.20507812 C14.23990435 71.39615461 13.04785845 72.5869214 11.85546875 73.77734375 C11.29715866 74.33767807 10.73884857 74.89801239 10.16362 75.47532654 C6.75857685 78.85964175 5.18625917 80.33637805 0.375 81 C-8.96967376 80.77925967 -17.81243175 67.83966708 -24.08422852 61.54614258 C-25.95409753 59.67085437 -27.82932899 57.80104535 -29.70507812 55.93164062 C-30.89615461 54.73990435 -32.0869214 53.54785845 -33.27734375 52.35546875 C-33.83767807 51.79715866 -34.39801239 51.23884857 -34.97532654 50.66362 C-39.90273969 45.70602789 -39.90273969 45.70602789 -40.3125 40.625 C-40.25340627 37.67031347 -40.06564964 36.60941607 -38.5 34 C-35.67947208 32.30768325 -33.42920215 31.74300742 -30.12890625 31.9375 C-25.75959841 33.09195932 -23.09815875 36.37884153 -20 39.5 C-19.07098877 40.42901123 -18.14197754 41.35802246 -17.18481445 42.31518555 C-14.45654297 45.04345703 -11.72827148 47.77172852 -9 50.5 C-8.99635437 49.93259094 -8.99270874 49.36518188 -8.98895264 48.78057861 C-8.94714554 42.87543768 -8.87781314 36.9710753 -8.79248047 31.06640625 C-8.7642529 28.86270941 -8.7430473 26.658911 -8.72900391 24.45507812 C-8.70759953 21.28723068 -8.66096102 18.12060692 -8.609375 14.953125 C-8.60814636 13.96757629 -8.60691772 12.98202759 -8.60565186 11.96661377 C-8.45920125 5.12891115 -8.45920125 5.12891115 -6.08691406 1.87988281 C-3.83245773 0.38921983 -2.68032277 -0.04188004 0 0 Z " fill="#000000" transform="translate(128,119.5)"/>
</svg>
