<?xml version="1.0" encoding="UTF-8"?>
<svg version="1.1" xmlns="http://www.w3.org/2000/svg" width="512" height="512">
<path d="M0 0 C1.30904297 -0.00574036 1.30904297 -0.00574036 2.64453125 -0.01159668 C4.48699092 -0.0143149 6.32948924 -0.00695994 8.171875 0.00976562 C10.99045934 0.03117752 13.80649485 0.00996199 16.625 -0.015625 C18.41667229 -0.01298171 20.20834299 -0.00785669 22 0 C22.84175781 -0.00809692 23.68351562 -0.01619385 24.55078125 -0.02453613 C25.33839844 -0.01192749 26.12601562 0.00068115 26.9375 0.01367188 C27.97197266 0.01844543 27.97197266 0.01844543 29.02734375 0.02331543 C32.1080474 0.81655849 33.16810861 1.92572112 35 4.53125 C35.57068908 7.49985424 35.50535179 10.41616007 35.45410156 13.43066406 C35.45468567 14.32857666 35.45526978 15.22648926 35.45587158 16.15161133 C35.45308668 19.11709359 35.42197534 22.08156851 35.390625 25.046875 C35.38316406 27.10381521 35.37747044 29.16076254 35.37347412 31.2177124 C35.35820628 36.62987922 35.31891426 42.04161621 35.2746582 47.45361328 C35.23373049 52.97682887 35.21546843 58.50011396 35.1953125 64.0234375 C35.15242136 74.85956378 35.08415587 85.69537114 35 96.53125 C32.36 96.53125 29.72 96.53125 27 96.53125 C27.33 104.45125 27.66 112.37125 28 120.53125 C29.8871875 118.5203125 29.8871875 118.5203125 31.8125 116.46875 C39.57921172 108.72634723 48.80358972 103.46291667 59 99.53125 C59.83015625 99.21027344 60.6603125 98.88929687 61.515625 98.55859375 C76.78949601 93.75759628 95.07980646 95.17528309 110 100.53125 C109.125 107.28125 109.125 107.28125 108 109.53125 C109.65 109.86125 111.3 110.19125 113 110.53125 C115.97 112.51125 118.94 114.49125 122 116.53125 C122.33 107.29125 122.66 98.05125 123 88.53125 C116.59745344 88.68905162 116.59745344 88.68905162 110.19628906 88.89160156 C108.99311035 88.90658691 108.99311035 88.90658691 107.765625 88.921875 C106.94868164 88.94282227 106.13173828 88.96376953 105.29003906 88.98535156 C102.05821568 88.34449959 101.05679069 87.08984806 99 84.53125 C97.61244158 82.1754309 96.33558746 79.85772644 95.109375 77.421875 C94.75989807 76.73623474 94.41042114 76.05059448 94.050354 75.34417725 C93.31680692 73.89726189 92.5875336 72.44817279 91.86230469 70.99707031 C90.7561477 68.79349682 89.62504972 66.60400033 88.4921875 64.4140625 C87.77968135 63.00078975 87.06869335 61.58675039 86.359375 60.171875 C86.02194275 59.52575256 85.6845105 58.87963013 85.33685303 58.21392822 C82.99897263 53.4445787 82.35198743 49.8460537 83 44.53125 C84.48339844 42.05566406 84.48339844 42.05566406 87 40.53125 C89.8896512 40.1821495 92.3859271 40.0630938 95.265625 40.140625 C96.05902283 40.14628479 96.85242065 40.15194458 97.66986084 40.15777588 C100.19719473 40.18011853 102.72309665 40.23030824 105.25 40.28125 C106.96612532 40.30131786 108.68227292 40.31956813 110.3984375 40.3359375 C114.5995078 40.37997605 118.79951135 40.44898674 123 40.53125 C122.97905273 39.46165039 122.95810547 38.39205078 122.93652344 37.29003906 C122.86405374 33.31686827 122.81817537 29.34375575 122.78027344 25.37011719 C122.76017372 23.65126721 122.73288911 21.93248548 122.69824219 20.21386719 C122.64964966 17.74136511 122.62701565 15.2697679 122.609375 12.796875 C122.58872986 12.03006409 122.56808472 11.26325317 122.54681396 10.47320557 C122.54543304 7.18024132 122.77825918 4.90792796 124.46191406 2.04785156 C128.25246182 -0.21714292 131.65850189 -0.04176116 136 0 C137.30904297 -0.00574036 137.30904297 -0.00574036 138.64453125 -0.01159668 C140.48699092 -0.0143149 142.32948924 -0.00695994 144.171875 0.00976562 C146.99045934 0.03117752 149.80649485 0.00996199 152.625 -0.015625 C154.41667229 -0.01298171 156.20834299 -0.00785669 158 0 C158.84175781 -0.00809692 159.68351562 -0.01619385 160.55078125 -0.02453613 C161.33839844 -0.01192749 162.12601562 0.00068115 162.9375 0.01367188 C163.97197266 0.01844543 163.97197266 0.01844543 165.02734375 0.02331543 C168.02536361 0.79526844 169.10638697 2.09097827 171 4.53125 C171.39207261 7.28271191 171.53790488 9.63362239 171.50336456 12.38366699 C171.50917833 13.18399636 171.51499209 13.98432573 171.52098203 14.80890751 C171.53565335 17.50767231 171.52166387 20.20553775 171.50793457 22.90429688 C171.51254067 24.85180885 171.51889162 26.79931735 171.52684355 28.74681854 C171.54359995 34.1116955 171.53526187 39.47628923 171.52289867 44.84116745 C171.51387626 50.62175198 171.52780392 56.4022866 171.53881836 62.18286133 C171.55663826 73.51223517 171.55274815 84.84150322 171.5411678 96.17088127 C171.53214738 105.37556708 171.53090343 114.58022316 171.53526306 123.78491211 C171.53587599 125.09318576 171.53648893 126.40145942 171.53712043 127.74937773 C171.53839929 130.40681268 171.53969614 133.06424762 171.5410108 135.72168255 C171.55250327 159.94997648 171.54058499 184.17821686 171.51964041 208.40650165 C171.50065732 230.53405289 171.50235581 252.66151206 171.52148438 274.7890625 C171.54289306 299.63739708 171.55132803 324.48568 171.53903532 349.33402252 C171.53776108 351.98187764 171.53650359 354.62973276 171.53526306 357.27758789 C171.53433741 359.23196376 171.53433741 359.23196376 171.53339306 361.22582197 C171.52993417 370.4232656 171.53578009 379.62067665 171.54518127 388.81811523 C171.55638049 400.02126476 171.55340502 411.22430212 171.5320583 422.42743874 C171.5215199 428.14737753 171.51747348 433.86712909 171.53065491 439.58706665 C171.54252693 444.81777667 171.53610231 450.04812496 171.5147447 455.27880192 C171.51025654 457.1764493 171.51259412 459.0741269 171.52224785 460.97175503 C171.53432213 463.54122231 171.52202924 466.10943261 171.50336456 468.67883301 C171.51272923 469.42443261 171.52209389 470.17003222 171.53174233 470.93822575 C171.48101615 474.40574172 171.24680656 476.21319395 169.09183073 478.99028015 C166.78936442 480.68641699 165.75817853 481.03581214 162.9375 481.04882812 C162.14988281 481.06143677 161.36226563 481.07404541 160.55078125 481.08703613 C159.28814453 481.07489075 159.28814453 481.07489075 158 481.0625 C157.12730469 481.0663269 156.25460937 481.07015381 155.35546875 481.07409668 C153.51300908 481.0768149 151.67051076 481.06945994 149.828125 481.05273438 C147.00954066 481.03132248 144.19350515 481.05253801 141.375 481.078125 C139.58332771 481.07548171 137.79165701 481.07035669 136 481.0625 C135.15824219 481.07059692 134.31648438 481.07869385 133.44921875 481.08703613 C132.66160156 481.07442749 131.87398438 481.06181885 131.0625 481.04882812 C130.37285156 481.04564575 129.68320312 481.04246338 128.97265625 481.03918457 C126.03839905 480.28364966 124.83367941 478.90217294 123 476.53125 C122.51898193 474.07611084 122.51898193 474.07611084 122.54589844 471.30371094 C122.54638184 470.24845215 122.54686523 469.19319336 122.54736328 468.10595703 C122.56782715 467.00364746 122.58829102 465.90133789 122.609375 464.765625 C122.61340332 463.74742676 122.61743164 462.72922852 122.62158203 461.68017578 C122.64249435 457.88035029 122.6983399 454.08078186 122.75 450.28125 C122.8325 441.78375 122.915 433.28625 123 424.53125 C93.96 424.53125 64.92 424.53125 35 424.53125 C35.15823543 441.46461113 35.15823543 441.46461113 35.36035156 458.39746094 C35.3720339 460.52017413 35.3822268 462.64289627 35.390625 464.765625 C35.41108887 465.86793457 35.43155273 466.97024414 35.45263672 468.10595703 C35.45336182 469.68884521 35.45336182 469.68884521 35.45410156 471.30371094 C35.46298401 472.21860291 35.47186646 473.13349487 35.48101807 474.07611084 C34.83981545 477.34883958 33.6199923 478.52330537 31 480.53125 C29.02734375 481.03918457 29.02734375 481.03918457 26.9375 481.04882812 C26.14988281 481.06143677 25.36226563 481.07404541 24.55078125 481.08703613 C23.28814453 481.07489075 23.28814453 481.07489075 22 481.0625 C21.12730469 481.0663269 20.25460937 481.07015381 19.35546875 481.07409668 C17.51300908 481.0768149 15.67051076 481.06945994 13.828125 481.05273438 C11.00954066 481.03132248 8.19350515 481.05253801 5.375 481.078125 C3.58332771 481.07548171 1.79165701 481.07035669 0 481.0625 C-0.84175781 481.07059692 -1.68351562 481.07869385 -2.55078125 481.08703613 C-3.33839844 481.07442749 -4.12601562 481.06181885 -4.9375 481.04882812 C-5.62714844 481.04564575 -6.31679688 481.04246338 -7.02734375 481.03918457 C-9 480.53125 -9 480.53125 -13 476.53125 C-13 459.37125 -13 442.21125 -13 424.53125 C-49.96 424.53125 -86.92 424.53125 -125 424.53125 C-125 441.69125 -125 458.85125 -125 476.53125 C-129.54905722 481.08030722 -130.07331938 481.03209168 -136.13574219 481.03918457 C-137.21469316 481.04854451 -137.21469316 481.04854451 -138.31544113 481.05809355 C-140.72625231 481.07405145 -143.13605629 481.06140917 -145.546875 481.04882812 C-147.27494904 481.05424803 -149.00301846 481.06136995 -150.7310791 481.07006836 C-155.42529098 481.08832037 -160.11915164 481.08122647 -164.81336975 481.06855202 C-169.72292029 481.05843407 -174.63244049 481.06781434 -179.54199219 481.07409668 C-187.78716437 481.0813766 -196.03219331 481.07177634 -204.27734375 481.05273438 C-213.81367345 481.03096498 -223.3496611 481.0380161 -232.88598251 481.06004 C-241.06952724 481.07818418 -249.25296891 481.08075713 -257.43652725 481.07028532 C-262.32602801 481.06404499 -267.21536793 481.06322958 -272.1048584 481.07643127 C-276.70143162 481.08797488 -281.29756329 481.07999143 -285.89408875 481.05685425 C-287.58236457 481.05155917 -289.27067746 481.05309459 -290.9589386 481.06190491 C-293.26121556 481.07281301 -295.56207175 481.05915613 -297.86425781 481.03918457 C-299.15325989 481.03767647 -300.44226196 481.03616837 -301.77032471 481.03461456 C-305.55337248 480.44500353 -306.74165518 479.56864996 -309 476.53125 C-310.85440626 467.23194804 -307.91091766 458.98324172 -302.875 451.28125 C-296.32135457 445.01254568 -288.40564816 441.76655498 -280.1328125 438.3359375 C-279.25310791 437.96847412 -278.37340332 437.60101074 -277.46704102 437.22241211 C-275.31240409 436.32281828 -273.15671838 435.42583942 -271 434.53125 C-271.08761345 433.96086156 -271.1752269 433.39047312 -271.2654953 432.80280018 C-273.40465571 418.87178814 -275.53300005 404.9391589 -277.64957428 391.00469685 C-278.67342371 384.26591052 -279.70081838 377.52770175 -280.73681641 370.79077148 C-281.73767927 364.28225124 -282.72832227 357.77222714 -283.71290588 351.26122093 C-284.08909407 348.78458852 -284.46863332 346.30846259 -284.85166931 343.83288002 C-285.38996862 340.34993474 -285.91603136 336.86533483 -286.43945312 333.38012695 C-286.59841568 332.37023209 -286.75737823 331.36033722 -286.92115784 330.31983948 C-288.90578608 316.87995129 -289.45999224 302.8385718 -281.3125 291.21875 C-274.36653028 282.96386639 -266.67800799 276.85134391 -256 274.53125 C-252.58784669 274.29681221 -249.16938681 274.34210157 -245.75 274.34375 C-244.69184082 274.34165527 -243.63368164 274.33956055 -242.54345703 274.33740234 C-235.24476754 274.37519822 -227.98194628 274.65188005 -220.6953125 275.05078125 C-219.80457031 275.09908585 -218.91382813 275.14739044 -217.99609375 275.19715881 C-213.52038552 275.44370078 -209.04653 275.70828291 -204.57324219 275.99536133 C-202.90040412 276.09349204 -201.22755308 276.19140201 -199.5546875 276.2890625 C-198.79511749 276.34314774 -198.03554749 276.39723297 -197.25296021 276.45295715 C-193.69137816 276.65158068 -191.14004773 276.57209683 -187.67016602 275.56005859 C-182.64364718 274.15104174 -177.91691783 274.25668237 -172.72265625 274.3125 C-171.63146988 274.3187439 -170.54028351 274.32498779 -169.41603088 274.3314209 C-157.06507655 274.46046146 -144.75895369 275.21980399 -132.4375 276.03125 C-130.14262334 276.17649741 -127.8477014 276.32103125 -125.55273438 276.46484375 C-120.03447417 276.81085358 -114.51743603 277.17127747 -109 277.53125 C-109 264.33125 -109 251.13125 -109 237.53125 C-112.96 238.52125 -116.92 239.51125 -121 240.53125 C-125.01283468 240.82642869 -128.8115752 241.01062052 -132.8125 240.96875 C-133.85784912 240.95972656 -134.90319824 240.95070313 -135.98022461 240.94140625 C-154.72479171 240.52437764 -171.10179619 233.53859939 -184.3515625 220.3046875 C-199.42558512 204.51920658 -205.55263619 187.28552748 -205.41772461 165.52978516 C-204.90919003 145.03217492 -196.65211957 128.52299235 -182 114.53125 C-166.5374663 99.87458125 -147.628149 95.67614424 -126.859375 96.19140625 C-107.76415765 97.04965258 -91.93076522 105.89896232 -79 119.53125 C-74.50770438 124.5832653 -70.90695865 129.40808177 -68 135.53125 C-67.16807129 135.54526855 -67.16807129 135.54526855 -66.31933594 135.55957031 C-63.79533519 135.61340722 -61.27316186 135.69702254 -58.75 135.78125 C-57.87730469 135.79542969 -57.00460937 135.80960938 -56.10546875 135.82421875 C-52.39336759 135.965902 -49.70049791 136.15146198 -46.40625 137.9375 C-44.15638471 142.08725154 -44.58275523 146.15315793 -44.75 150.78125 C-44.8325 153.99875 -44.915 157.21625 -45 160.53125 C-37.08 160.53125 -29.16 160.53125 -21 160.53125 C-21.15780162 154.12870344 -21.15780162 154.12870344 -21.36035156 147.72753906 C-21.44110519 141.24380453 -21.44110519 141.24380453 -19.375 137.90625 C-14.84896792 135.28591564 -10.09830801 136.30958443 -5 136.53125 C-5 131.25125 -5 125.97125 -5 120.53125 C-7.64 120.53125 -10.28 120.53125 -13 120.53125 C-13 109.97125 -13 99.41125 -13 88.53125 C-19.40254656 88.68905162 -19.40254656 88.68905162 -25.80371094 88.89160156 C-27.00688965 88.90658691 -27.00688965 88.90658691 -28.234375 88.921875 C-29.05131836 88.94282227 -29.86826172 88.96376953 -30.70996094 88.98535156 C-33.94178432 88.34449959 -34.94320931 87.08984806 -37 84.53125 C-38.38755842 82.1754309 -39.66441254 79.85772644 -40.890625 77.421875 C-41.24010193 76.73623474 -41.58957886 76.05059448 -41.949646 75.34417725 C-42.68319308 73.89726189 -43.4124664 72.44817279 -44.13769531 70.99707031 C-45.2438523 68.79349682 -46.37495028 66.60400033 -47.5078125 64.4140625 C-48.22031865 63.00078975 -48.93130665 61.58675039 -49.640625 60.171875 C-49.97805725 59.52575256 -50.3154895 58.87963013 -50.66314697 58.21392822 C-53.00102737 53.4445787 -53.64801257 49.8460537 -53 44.53125 C-51.51660156 42.05566406 -51.51660156 42.05566406 -49 40.53125 C-46.1103488 40.1821495 -43.6140729 40.0630938 -40.734375 40.140625 C-39.94097717 40.14628479 -39.14757935 40.15194458 -38.33013916 40.15777588 C-35.80280527 40.18011853 -33.27690335 40.23030824 -30.75 40.28125 C-29.03387468 40.30131786 -27.31772708 40.31956813 -25.6015625 40.3359375 C-21.4004922 40.37997605 -17.20048865 40.44898674 -13 40.53125 C-13.02094727 39.46165039 -13.04189453 38.39205078 -13.06347656 37.29003906 C-13.13594626 33.31686827 -13.18182463 29.34375575 -13.21972656 25.37011719 C-13.23982628 23.65126721 -13.26711089 21.93248548 -13.30175781 20.21386719 C-13.35035034 17.74136511 -13.37298435 15.2697679 -13.390625 12.796875 C-13.41127014 12.03006409 -13.43191528 11.26325317 -13.45318604 10.47320557 C-13.45456696 7.18024132 -13.22174082 4.90792796 -11.53808594 2.04785156 C-7.74753818 -0.21714292 -4.34149811 -0.04176116 0 0 Z M-45 176.53125 C-45.20978323 182.97770403 -45.20978323 182.97770403 -45.38793945 189.42504883 C-45.42105225 190.22966553 -45.45416504 191.03428223 -45.48828125 191.86328125 C-45.51446533 192.68546143 -45.54064941 193.5076416 -45.56762695 194.35473633 C-46.0933897 197.00136247 -46.87639385 197.90851847 -49 199.53125 C-51.48046875 200.04296875 -51.48046875 200.04296875 -54.1875 200.21875 C-55.46234253 200.30153198 -55.46234253 200.30153198 -56.76293945 200.38598633 C-57.50116943 200.43392334 -58.23939941 200.48186035 -59 200.53125 C-58.42259794 210.73183026 -57.47010489 220.82235602 -56.1875 230.9609375 C-56.01171268 232.37196796 -55.8361808 233.78303026 -55.66088867 235.19412231 C-55.29722102 238.11365875 -54.93051692 241.03279222 -54.56152344 243.95166016 C-54.0881934 247.6979118 -53.62277819 251.44509965 -53.15953064 255.19260979 C-52.80062262 258.08907022 -52.437643 260.98500888 -52.07339478 263.88080215 C-51.89988699 265.26419391 -51.7276597 266.64774688 -51.55673218 268.03145981 C-51.31932167 269.94841312 -51.07583693 271.86461127 -50.83203125 273.78076172 C-50.69514893 274.87025116 -50.5582666 275.9597406 -50.41723633 277.08224487 C-50.25319062 279.47082749 -50.25319062 279.47082749 -49 280.53125 C-46.63601532 280.6320312 -44.30188689 280.67098215 -41.9375 280.6640625 C-41.23101318 280.66501923 -40.52452637 280.66597595 -39.79663086 280.66696167 C-38.30029207 280.66764333 -36.80395033 280.66579005 -35.30761719 280.66162109 C-33.00969843 280.65627257 -30.71197514 280.66156651 -28.4140625 280.66796875 C-26.96354123 280.66730797 -25.51302009 280.6660268 -24.0625 280.6640625 C-23.0250061 280.66709885 -23.0250061 280.66709885 -21.96655273 280.67019653 C-18.70264362 280.93355733 -18.70264362 280.93355733 -16 279.53125 C-15.63847303 277.33471659 -15.33762036 275.12817888 -15.06030273 272.91943359 C-14.97237457 272.22827454 -14.88444641 271.53711548 -14.79385376 270.82501221 C-14.50274621 268.52709596 -14.21798945 266.22844338 -13.93359375 263.9296875 C-13.73349315 262.33359667 -13.53313675 260.7375379 -13.33253479 259.14151001 C-12.91199745 255.78755461 -12.49459272 252.43322765 -12.0793457 249.07861328 C-11.54832349 244.79074054 -11.00963443 240.50387363 -10.46855068 236.21726036 C-10.05277197 232.91641742 -9.64112696 229.61506887 -9.23069954 226.31355667 C-9.03381722 224.73384431 -8.83566552 223.1542896 -8.63619804 221.57490158 C-8.35671061 219.35690909 -8.08281155 217.13829289 -7.81030273 214.91943359 C-7.65343491 213.65892181 -7.49656708 212.39841003 -7.33494568 211.09970093 C-7.00209661 207.55358696 -6.94066942 204.09061974 -7 200.53125 C-7.68707031 200.49386719 -8.37414062 200.45648438 -9.08203125 200.41796875 C-9.98308594 200.35222656 -10.88414062 200.28648437 -11.8125 200.21875 C-12.70582031 200.16074219 -13.59914063 200.10273438 -14.51953125 200.04296875 C-17.42948814 199.44264694 -18.19161857 198.84238712 -20 196.53125 C-20.43237305 194.35473633 -20.43237305 194.35473633 -20.51171875 191.86328125 C-20.54483154 191.05866455 -20.57794434 190.25404785 -20.61206055 189.42504883 C-20.63695557 188.40822021 -20.66185059 187.3913916 -20.6875 186.34375 C-20.790625 183.105625 -20.89375 179.8675 -21 176.53125 C-28.92 176.53125 -36.84 176.53125 -45 176.53125 Z M117.1875 222.40625 C114.1548602 224.26077419 111.18668427 225.93790787 108 227.53125 C108.99 231.98625 108.99 231.98625 110 236.53125 C106.66666667 237.19791667 103.33333333 237.86458333 100 238.53125 C98.8409314 238.78793457 98.8409314 238.78793457 97.65844727 239.04980469 C77.78475359 242.64893445 60.92767822 237.80556303 43 229.53125 C43 245.04125 43 260.55125 43 276.53125 C44.32 275.54125 45.64 274.55125 47 273.53125 C53.65482139 272.70627214 57.14925035 274.20764563 62.5 278.03125 C63.13164062 278.46050781 63.76328125 278.88976562 64.4140625 279.33203125 C65.95403599 280.38201317 67.47870738 281.45437994 69 282.53125 C70.98639914 280.06877173 72.9352024 277.62381801 74.75 275.03125 C79.74111614 269.4855654 86.47348875 265.86877947 93.93359375 265.3125 C102.2916442 265.07169182 102.2916442 265.07169182 104.64216614 266.59663391 C106.68042416 269.50070552 106.43939285 272.42494128 106.43237305 275.84838867 C106.44766052 276.96095284 106.44766052 276.96095284 106.46325684 278.09599304 C106.49344663 280.54714451 106.50266163 282.99790559 106.51171875 285.44921875 C106.52856105 287.14888311 106.54671068 288.84853497 106.56611633 290.548172 C106.61367142 295.02139381 106.64344502 299.494565 106.66955566 303.96795654 C106.69933349 308.53277589 106.74587331 313.09742068 106.79101562 317.66210938 C106.87711152 326.61841849 106.94287961 335.57470916 107 344.53125 C112.28 344.53125 117.56 344.53125 123 344.53125 C123 303.28125 123 262.03125 123 219.53125 C120.93345225 219.53125 118.87827718 221.37148447 117.1875 222.40625 Z M-221 360.53125 C-220.20994338 361.96963552 -219.41788955 363.40692415 -218.625 364.84375 C-218.18414062 365.64425781 -217.74328125 366.44476563 -217.2890625 367.26953125 C-216.26486665 369.06652943 -215.14732862 370.81025708 -214 372.53125 C-213.31290763 380.50802654 -215.24665431 387.5434907 -217.28125 395.21875 C-217.6188045 396.52921947 -217.95508477 397.84001775 -218.29016113 399.15112305 C-219.52707532 403.97944427 -220.78715308 408.80165527 -222.04656982 413.62414551 C-223.11331996 417.71257747 -224.1710432 421.80314752 -225.2172699 425.8968811 C-225.70706025 427.79836754 -226.20988146 429.69648237 -226.7130127 431.59448242 C-228.38232097 438.10646409 -229.37834281 443.80755785 -229 450.53125 C-228.48445557 450.15468262 -227.96891113 449.77811523 -227.43774414 449.39013672 C-221.41378337 445.16347142 -215.27751811 442.31801747 -208.4375 439.65625 C-207.42880859 439.2540625 -206.42011719 438.851875 -205.38085938 438.4375 C-202.9240788 437.45944517 -200.46399547 436.49094851 -198 435.53125 C-199.41207319 425.89939739 -200.82859045 416.26821003 -202.25085354 406.63785648 C-202.91105985 402.16652537 -203.56970802 397.69497606 -204.22485352 393.22290039 C-204.85665118 388.91059202 -205.49246551 384.59889367 -206.13112068 380.28759575 C-206.37458815 378.6391063 -206.61658454 376.99039892 -206.85711479 375.34147835 C-207.19313774 373.0396467 -207.53428895 370.73863154 -207.87670898 368.43774414 C-207.97597183 367.74938477 -208.07523468 367.06102539 -208.17750549 366.35180664 C-208.44508691 363.16184673 -208.44508691 363.16184673 -210 360.53125 C-211.85287502 360.45898498 -213.70833878 360.4474378 -215.5625 360.46875 C-216.57441406 360.47777344 -217.58632812 360.48679687 -218.62890625 360.49609375 C-219.41136719 360.50769531 -220.19382812 360.51929688 -221 360.53125 Z " fill="#000000" transform="translate(325,15.46875)"/>
<path d="M0 0 C5.75341446 2.20343532 11.53023203 4.66247431 16 9 C17.29138108 12.31844724 17.2342548 15.41858896 17.16455078 18.94921875 C17.18032166 19.93532135 17.19609253 20.92142395 17.21234131 21.93740845 C17.25187456 25.18890019 17.22576811 28.43596563 17.1953125 31.6875 C17.20137708 33.9514246 17.21011338 36.21534348 17.22140503 38.47924805 C17.23466535 43.22078323 17.21541931 47.96079104 17.17333984 52.70214844 C17.12205614 58.77621516 17.15158595 64.8467036 17.20549202 70.92063904 C17.23803606 75.594634 17.22765445 80.26778232 17.20434189 84.94180298 C17.19834387 87.18088201 17.2056863 89.42003825 17.22665787 91.6590271 C17.24956154 94.79167765 17.21464482 97.91856007 17.16455078 101.05078125 C17.18276886 101.97355865 17.20098694 102.89633606 17.21975708 103.84707642 C17.10359349 107.77354401 16.95627317 110.07201907 14.06170273 112.88095093 C9.65990118 115.88322286 4.96594902 118.09814718 0 120 C-0.99 117.69 -1.98 115.38 -3 113 C-3.66902344 113.2165625 -4.33804688 113.433125 -5.02734375 113.65625 C-20.60949104 118.17402693 -36.16626551 117.16544879 -50.6875 109.8125 C-65.30168156 101.46652774 -73.8621253 89.55584993 -78.75 73.54296875 C-82.45982802 58.00806392 -79.63144979 43.22609363 -71.6875 29.5625 C-63.50255385 17.13350769 -51.20962161 8.66473605 -36.875 4.6875 C-25.55244972 2.57341521 -13.90196792 3.47103928 -3 7 C-2.01 4.69 -1.02 2.38 0 0 Z " fill="#66717D" transform="translate(432,124)"/>
<path d="M0 0 C5.28 0 10.56 0 16 0 C16 147.84 16 295.68 16 448 C10.72 448 5.44 448 0 448 C-0.00331015 446.00827098 -0.00662029 444.01654196 -0.01003075 441.96445751 C-0.08884768 394.72583323 -0.17817728 347.48723779 -0.28005161 300.24865739 C-0.29257106 294.43929063 -0.30500375 288.6299237 -0.31738281 282.82055664 C-0.31984881 281.66397566 -0.3223148 280.50739467 -0.32485552 279.31576578 C-0.36462107 260.56810692 -0.39735158 241.820442 -0.42749982 223.07276549 C-0.45857146 203.84783178 -0.49716236 184.62292387 -0.54279006 165.39801913 C-0.57072493 153.52728574 -0.59273621 141.65657129 -0.60726251 129.78581379 C-0.6177733 121.65478611 -0.63556223 113.52379506 -0.65916704 105.39279493 C-0.67258483 100.69581981 -0.68270507 95.99889619 -0.68421364 91.30190086 C-0.68566363 87.00685823 -0.69619512 82.71193983 -0.71413441 78.4169353 C-0.71900808 76.85835281 -0.72046895 75.29975537 -0.71827881 73.74116679 C-0.71579989 71.63165088 -0.72545388 69.5225359 -0.73828697 67.41306591 C-0.74170446 65.65135344 -0.74170446 65.65135344 -0.74519098 63.85405082 C-0.78853133 60.7988154 -0.78853133 60.7988154 -3 58 C-5.85506049 57.04831317 -7.90937282 56.8099054 -10.88671875 56.68359375 C-12.2934082 56.62075195 -12.2934082 56.62075195 -13.72851562 56.55664062 C-15.19321289 56.49766602 -15.19321289 56.49766602 -16.6875 56.4375 C-17.67556641 56.39431641 -18.66363281 56.35113281 -19.68164062 56.30664062 C-22.12092972 56.20058458 -24.56044654 56.09979026 -27 56 C-29.64 50.72 -32.28 45.44 -35 40 C-32.95296875 39.95101562 -30.9059375 39.90203125 -28.796875 39.8515625 C-26.80776094 39.79592295 -24.81864813 39.74021631 -22.82958984 39.68261719 C-21.45044757 39.64440662 -20.07120833 39.60953998 -18.69189453 39.578125 C-16.70583033 39.53230376 -14.72008321 39.47333737 -12.734375 39.4140625 C-11.54038086 39.3826416 -10.34638672 39.3512207 -9.11621094 39.31884766 C-6.15976065 39.01634655 -4.41120106 38.70620087 -2 37 C-0.79838489 33.39515466 -0.76982864 30.02710143 -0.68359375 26.26953125 C-0.66281265 25.51911057 -0.64203156 24.76868988 -0.62062073 23.99552917 C-0.55530074 21.60127816 -0.49632208 19.20691861 -0.4375 16.8125 C-0.39429807 15.18813987 -0.35068324 13.56379067 -0.30664062 11.93945312 C-0.1988611 7.95974498 -0.09965785 3.97995299 0 0 Z " fill="#D3E3EF" transform="translate(464,32)"/>
<path d="M0 0 C5.6925 0.33 11.385 0.66 17.25 1 C17.25 18.16 17.25 35.32 17.25 53 C4 53.25 4 53.25 -0.16113281 53.29785156 C-1.79066895 53.34377441 -1.79066895 53.34377441 -3.453125 53.390625 C-5.11843262 53.4220459 -5.11843262 53.4220459 -6.81738281 53.45410156 C-10.37948812 54.11717744 -11.58085953 55.14273625 -13.75 58 C-14.76490562 64.34316012 -12.23529786 69.31796405 -9.75 75 C-5.93429317 84.15769639 -7.91431719 93.12816942 -10.33984375 102.40625 C-10.60382462 103.45276733 -10.86780548 104.49928467 -11.13978577 105.57751465 C-11.97798406 108.88793317 -12.83274513 112.19382263 -13.6875 115.5 C-14.25819602 117.74973781 -14.82786747 119.9997358 -15.39648438 122.25 C-16.43674081 126.34331753 -17.47732675 130.43651291 -18.53491211 134.52539062 C-18.74587021 135.3435022 -18.95682831 136.16161377 -19.17417908 137.0045166 C-19.75 139 -19.75 139 -20.75 141 C-24.38 141 -28.01 141 -31.75 141 C-33.99567667 131.35041287 -35.59657469 121.74763637 -36.8840332 111.93408203 C-37.40810186 107.94643813 -37.95117931 103.96140426 -38.49609375 99.9765625 C-38.60335785 99.19154358 -38.71062195 98.40652466 -38.82113647 97.59771729 C-39.67958736 91.37708962 -40.67289816 85.18658647 -41.75 79 C-43.36035682 69.62890749 -44.80672997 60.23784336 -46.15576172 50.82592773 C-46.3808979 49.26386582 -46.60959424 47.70231183 -46.84228516 46.14135742 C-51.06486859 17.7177449 -51.06486859 17.7177449 -46.078125 9.640625 C-34.25091511 -4.9694578 -16.74062133 -0.98743151 0 0 Z " fill="#FAC3C8" transform="translate(174.75,307)"/>
<path d="M0 0 C88.44 0 176.88 0 268 0 C268 5.28 268 10.56 268 16 C266.00330576 16.00219984 266.00330576 16.00219984 263.96627426 16.00444412 C232.38380151 16.04012888 200.8014391 16.09634503 169.21905331 16.17792095 C165.33369868 16.18793868 161.44834363 16.19778276 157.56298828 16.20751953 C156.4027083 16.21043159 156.4027083 16.21043159 155.21898833 16.21340248 C142.68633335 16.24444251 130.15369669 16.26140871 117.62101051 16.27319422 C104.76591776 16.28559543 91.91092133 16.31307344 79.05588937 16.35461307 C71.1205354 16.37977812 63.18534112 16.3931151 55.24994668 16.39142957 C49.16999292 16.39139636 43.09029755 16.41231676 37.01040459 16.44116783 C34.51263506 16.44971219 32.0148315 16.45138628 29.5170536 16.44580269 C26.11556127 16.43920964 22.71505284 16.45697158 19.31365967 16.48101807 C18.31755543 16.47325765 17.32145118 16.46549723 16.29516196 16.45750165 C10.98237804 16.4661302 10.98237804 16.4661302 6.38783264 18.88136292 C4.68466154 21.48138928 4.48477655 23.03756878 4.45410156 26.13574219 C4.42452362 27.66687653 4.42452362 27.66687653 4.39434814 29.22894287 C4.39250519 30.87131927 4.39250519 30.87131927 4.390625 32.546875 C4.37408875 33.6732135 4.35755249 34.799552 4.34051514 35.96002197 C4.2919387 39.55673625 4.27064191 43.15302742 4.25 46.75 C4.22184853 49.18882348 4.19192227 51.62762717 4.16015625 54.06640625 C4.08617655 60.04423602 4.03666038 66.02182956 4 72 C-1.28 72 -6.56 72 -12 72 C-14.11471081 49.35764181 -10.27907298 20.55814597 0 0 Z " fill="#D3E3EF" transform="translate(180,408)"/>
<path d="M0 0 C1.48695624 0.09670732 2.97393535 0.19306368 4.4609375 0.2890625 C8.05756362 0.52200752 11.65385951 0.75966071 15.25 1 C14.89413818 1.76546143 14.53827637 2.53092285 14.17163086 3.31958008 C11.36499525 9.63512451 9.47058362 14.7693382 9.8125 21.6875 C9.83860352 22.81418091 9.83860352 22.81418091 9.86523438 23.96362305 C10.08855886 30.82727201 10.87505472 37.62743139 11.8125 44.42578125 C12.17073227 47.35241098 12.28526623 50.06377129 12.25 53 C11.00911621 53.01401855 11.00911621 53.01401855 9.74316406 53.02832031 C5.99483585 53.08200319 2.24775838 53.1656571 -1.5 53.25 C-2.80195312 53.26417969 -4.10390625 53.27835937 -5.4453125 53.29296875 C-6.69570312 53.32519531 -7.94609375 53.35742188 -9.234375 53.390625 C-10.96252441 53.4220459 -10.96252441 53.4220459 -12.72558594 53.45410156 C-15.80846552 53.79546988 -15.80846552 53.79546988 -18.15722656 55.66308594 C-20.244028 58.72483691 -20.27969838 60.35595498 -19.75 64 C-18.49474982 66.51999936 -18.49474982 66.51999936 -16.65234375 68.828125 C-15.69811523 70.15263672 -15.69811523 70.15263672 -14.72460938 71.50390625 C-13.37260614 73.32645327 -12.01067512 75.14167968 -10.63867188 76.94921875 C-10.00380859 77.83738281 -9.36894531 78.72554688 -8.71484375 79.640625 C-8.1230835 80.42985352 -7.53132324 81.21908203 -6.92163086 82.03222656 C-4.03800108 89.3365407 -7.33924104 98.2129955 -9.21875 105.53125 C-9.45911987 106.48898315 -9.69948975 107.44671631 -9.94714355 108.43347168 C-10.45151319 110.43760623 -10.95924409 112.44089766 -11.47021484 114.44335938 C-12.25451517 117.51769878 -13.02850197 120.59449613 -13.80078125 123.671875 C-14.29367997 125.6251492 -14.78714891 127.57827961 -15.28125 129.53125 C-15.51356323 130.45200317 -15.74587646 131.37275635 -15.98522949 132.32141113 C-16.20215454 133.16989624 -16.41907959 134.01838135 -16.64257812 134.89257812 C-16.83275513 135.63963013 -17.02293213 136.38668213 -17.21887207 137.15637207 C-17.75 139 -17.75 139 -18.75 141 C-22.38 141 -26.01 141 -29.75 141 C-31.99567667 131.35041287 -33.59657469 121.74763637 -34.8840332 111.93408203 C-35.40810186 107.94643813 -35.95117931 103.96140426 -36.49609375 99.9765625 C-36.60335785 99.19154358 -36.71062195 98.40652466 -36.82113647 97.59771729 C-37.67958736 91.37708962 -38.67289816 85.18658647 -39.75 79 C-41.36035682 69.62890749 -42.80672997 60.23784336 -44.15576172 50.82592773 C-44.3808979 49.26386582 -44.60959424 47.70231183 -44.84228516 46.14135742 C-49.06486859 17.7177449 -49.06486859 17.7177449 -44.078125 9.640625 C-32.58575841 -4.55582785 -16.32922705 -1.09350779 0 0 Z " fill="#FAC3C7" transform="translate(100.75,307)"/>
<path d="M0 0 C0.87269531 -0.0038269 1.74539063 -0.00765381 2.64453125 -0.01159668 C4.48699092 -0.0143149 6.32948924 -0.00695994 8.171875 0.00976562 C10.99045934 0.03117752 13.80649485 0.00996199 16.625 -0.015625 C18.41667229 -0.01298171 20.20834299 -0.00785669 22 0 C22.84175781 -0.00809692 23.68351562 -0.01619385 24.55078125 -0.02453613 C25.33839844 -0.01192749 26.12601562 0.00068115 26.9375 0.01367188 C27.97197266 0.01844543 27.97197266 0.01844543 29.02734375 0.02331543 C32.1080474 0.81655849 33.16810861 1.92572112 35 4.53125 C35.57068908 7.49985424 35.50535179 10.41616007 35.45410156 13.43066406 C35.45468567 14.32857666 35.45526978 15.22648926 35.45587158 16.15161133 C35.45308668 19.11709359 35.42197534 22.08156851 35.390625 25.046875 C35.38316406 27.10381521 35.37747044 29.16076254 35.37347412 31.2177124 C35.35820628 36.62987922 35.31891426 42.04161621 35.2746582 47.45361328 C35.23373049 52.97682887 35.21546843 58.50011396 35.1953125 64.0234375 C35.15242136 74.85956378 35.08415587 85.69537114 35 96.53125 C29.72 96.53125 24.44 96.53125 19 96.53125 C19 70.13125 19 43.73125 19 16.53125 C13.72 16.53125 8.44 16.53125 3 16.53125 C3.05220703 20.12580078 3.05220703 20.12580078 3.10546875 23.79296875 C3.12888861 26.12295339 3.14709129 28.45292473 3.16479492 30.78295898 C3.17984876 32.39792789 3.20029648 34.01285613 3.22631836 35.62768555 C3.26285286 37.95371555 3.27976015 40.27920341 3.29296875 42.60546875 C3.30845261 43.32337082 3.32393646 44.04127289 3.33988953 44.78092957 C3.3413617 49.20102307 2.80204755 52.06117005 0 55.53125 C-3.3021228 56.6319576 -5.94083279 56.73752072 -9.41796875 56.84765625 C-10.67158203 56.88955078 -11.92519531 56.93144531 -13.21679688 56.97460938 C-14.52712891 57.01392578 -15.83746094 57.05324219 -17.1875 57.09375 C-18.52279978 57.13695992 -19.85808652 57.180575 -21.19335938 57.22460938 C-24.46211234 57.33081434 -27.73104223 57.43154785 -31 57.53125 C-27.535 64.46125 -27.535 64.46125 -24 71.53125 C-21.81310547 71.58732422 -21.81310547 71.58732422 -19.58203125 71.64453125 C-17.6588289 71.71020157 -15.73565295 71.77664855 -13.8125 71.84375 C-12.85279297 71.86630859 -11.89308594 71.88886719 -10.90429688 71.91210938 C-1.90778338 72.25453722 -1.90778338 72.25453722 2 75.53125 C3.15410254 77.83945508 3.1210297 79.13909276 3.11352539 81.70556641 C3.11344986 82.56630768 3.11337433 83.42704895 3.11329651 84.31387329 C3.10813522 85.24412323 3.10297394 86.17437317 3.09765625 87.1328125 C3.0962413 88.08441254 3.09482635 89.03601257 3.09336853 90.01644897 C3.08776012 93.06308097 3.07520619 96.10964013 3.0625 99.15625 C3.05748608 101.21874894 3.05292299 103.28124903 3.04882812 105.34375 C3.03778796 110.40627817 3.02051767 115.46875173 3 120.53125 C-2.28 120.53125 -7.56 120.53125 -13 120.53125 C-13 109.97125 -13 99.41125 -13 88.53125 C-19.40254656 88.68905162 -19.40254656 88.68905162 -25.80371094 88.89160156 C-27.00688965 88.90658691 -27.00688965 88.90658691 -28.234375 88.921875 C-29.05131836 88.94282227 -29.86826172 88.96376953 -30.70996094 88.98535156 C-33.94178432 88.34449959 -34.94320931 87.08984806 -37 84.53125 C-38.38755842 82.1754309 -39.66441254 79.85772644 -40.890625 77.421875 C-41.24010193 76.73623474 -41.58957886 76.05059448 -41.949646 75.34417725 C-42.68319308 73.89726189 -43.4124664 72.44817279 -44.13769531 70.99707031 C-45.2438523 68.79349682 -46.37495028 66.60400033 -47.5078125 64.4140625 C-48.22031865 63.00078975 -48.93130665 61.58675039 -49.640625 60.171875 C-49.97805725 59.52575256 -50.3154895 58.87963013 -50.66314697 58.21392822 C-53.00102737 53.4445787 -53.64801257 49.8460537 -53 44.53125 C-51.51660156 42.05566406 -51.51660156 42.05566406 -49 40.53125 C-46.1103488 40.1821495 -43.6140729 40.0630938 -40.734375 40.140625 C-39.94097717 40.14628479 -39.14757935 40.15194458 -38.33013916 40.15777588 C-35.80280527 40.18011853 -33.27690335 40.23030824 -30.75 40.28125 C-29.03387468 40.30131786 -27.31772708 40.31956813 -25.6015625 40.3359375 C-21.4004922 40.37997605 -17.20048865 40.44898674 -13 40.53125 C-13.02094727 39.46165039 -13.04189453 38.39205078 -13.06347656 37.29003906 C-13.13594626 33.31686827 -13.18182463 29.34375575 -13.21972656 25.37011719 C-13.23982628 23.65126721 -13.26711089 21.93248548 -13.30175781 20.21386719 C-13.35035034 17.74136511 -13.37298435 15.2697679 -13.390625 12.796875 C-13.41127014 12.03006409 -13.43191528 11.26325317 -13.45318604 10.47320557 C-13.45456696 7.18024132 -13.22174082 4.90792796 -11.53808594 2.04785156 C-7.74753818 -0.21714292 -4.34149811 -0.04176116 0 0 Z " fill="#000000" transform="translate(325,15.46875)"/>
<path d="M0 0 C8.25 0 16.5 0 25 0 C25.06786404 8.7624653 25.12286684 17.52475511 25.15543652 26.28742409 C25.17107087 30.35659195 25.19226809 34.42557017 25.22631836 38.49462891 C25.25899183 42.42389151 25.27686979 46.35297207 25.28463173 50.28236008 C25.29016095 51.77903482 25.30095824 53.27569997 25.31719017 54.77229691 C25.33907143 56.87396777 25.34196258 58.97489312 25.34057617 61.07666016 C25.35056892 62.8686937 25.35056892 62.8686937 25.36076355 64.69692993 C24.88628691 69.04113156 23.45671415 72.40292537 20.5 75.64453125 C15.44395912 79.58139641 11.90636723 80.14549592 5.68286133 80.11352539 C4.57029716 80.11374443 4.57029716 80.11374443 3.43525696 80.1139679 C0.98415195 80.11327134 -1.46687702 80.10549097 -3.91796875 80.09765625 C-5.61761941 80.09579116 -7.31727061 80.09436768 -9.016922 80.09336853 C-13.49019861 80.08955055 -17.96344276 80.07972638 -22.43670654 80.06866455 C-27.80399657 80.05663641 -33.17129746 80.05204476 -38.53859711 80.04621124 C-46.69242066 80.03651426 -54.84617295 80.01735267 -63 80 C-63 64.16 -63 48.32 -63 32 C-48.81 32 -34.62 32 -20 32 C-20.61767656 40.02979523 -21.20290737 47.27075692 -23 55 C-21.89591797 55.09087891 -21.89591797 55.09087891 -20.76953125 55.18359375 C-19.79371094 55.26738281 -18.81789063 55.35117187 -17.8125 55.4375 C-16.84957031 55.51871094 -15.88664062 55.59992188 -14.89453125 55.68359375 C-12.21185988 55.97684123 -9.64019215 56.45328372 -7 57 C-6.94417252 56.33514084 -6.88834503 55.67028168 -6.83082581 54.98527527 C-6.24499957 48.25241726 -5.47944764 41.56218792 -4.58984375 34.86328125 C-4.45808243 33.85782761 -4.32632111 32.85237396 -4.19056702 31.81645203 C-3.77490927 28.64819711 -3.35625911 25.48034632 -2.9375 22.3125 C-2.65279562 20.14651055 -2.36828863 17.98049514 -2.08398438 15.81445312 C-1.39196728 10.54261441 -0.69589274 5.27133427 0 0 Z " fill="#519CDE" transform="translate(327,280)"/>
<path d="M0 0 C88.77 0 177.54 0 269 0 C269 5.28 269 10.56 269 16 C181.88 16 94.76 16 5 16 C3.35 10.72 1.7 5.44 0 0 Z " fill="#DF4345" transform="translate(179,376)"/>
<path d="M0 0 C5.8878019 4.32616268 10.22476561 8.39912994 14.1796875 14.6015625 C12.39111328 14.69244141 12.39111328 14.69244141 10.56640625 14.78515625 C8.99998825 14.86957399 7.43358262 14.95422137 5.8671875 15.0390625 C4.68866211 15.09803711 4.68866211 15.09803711 3.48632812 15.15820312 C2.72900391 15.20009766 1.97167969 15.24199219 1.19140625 15.28515625 C0.14666138 15.34014282 0.14666138 15.34014282 -0.91918945 15.39624023 C-3.0419697 15.55737403 -3.0419697 15.55737403 -5.8203125 16.6015625 C-7.87890625 15.4921875 -7.87890625 15.4921875 -10.2578125 13.8515625 C-19.1130464 8.325074 -29.44575816 6.17707706 -39.8203125 7.6015625 C-51.43400919 10.98166825 -60.39566138 17.33838564 -66.8203125 27.6015625 C-71.6273808 36.66267354 -72.37115666 46.71860246 -70.125 56.6875 C-66.4797509 67.62324731 -60.06078265 76.49401802 -49.7578125 81.8515625 C-39.87616642 86.61480839 -29.78459759 87.19452186 -19.3203125 83.7890625 C-15.28171873 82.30862293 -11.70686395 80.54483823 -7.8203125 78.6015625 C-7.8203125 84.8715625 -7.8203125 91.1415625 -7.8203125 97.6015625 C-24.95466181 103.50339393 -39.83146999 104.88910076 -56.7578125 97.28125 C-73.23191453 88.9069148 -81.19053475 75.82949893 -87.1328125 58.8515625 C-90.61526959 42.77868362 -86.52436632 27.21693987 -77.8203125 13.6015625 C-59.61639243 -11.28719959 -25.46364594 -16.71855542 0 0 Z " fill="#66717C" transform="translate(223.8203125,137.3984375)"/>
<path d="M0 0 C5.28 0 10.56 0 16 0 C16 26.4 16 52.8 16 80 C18.64 80 21.28 80 24 80 C25.65292116 109.58411005 25.65292116 109.58411005 19.375 118.0546875 C11.37122483 122.66797458 0.87084953 120.81595078 -8 120 C-8 114.72 -8 109.44 -8 104 C-5.36 104 -2.72 104 0 104 C-0.09347175 97.93079568 -0.19955179 91.86199326 -0.31738281 85.79321289 C-0.35569348 83.72817035 -0.39054266 81.6630606 -0.421875 79.59790039 C-0.46748014 76.63142862 -0.52548201 73.6654204 -0.5859375 70.69921875 C-0.59748871 69.7741301 -0.60903992 68.84904144 -0.62094116 67.8959198 C-0.64081085 67.03525406 -0.66068054 66.17458832 -0.68115234 65.2878418 C-0.69447601 64.53061325 -0.70779968 63.7733847 -0.7215271 62.99320984 C-0.89708612 60.68394812 -0.89708612 60.68394812 -3 58 C-5.85506049 57.04831317 -7.90937282 56.8099054 -10.88671875 56.68359375 C-12.2934082 56.62075195 -12.2934082 56.62075195 -13.72851562 56.55664062 C-15.19321289 56.49766602 -15.19321289 56.49766602 -16.6875 56.4375 C-17.67556641 56.39431641 -18.66363281 56.35113281 -19.68164062 56.30664062 C-22.12092972 56.20058458 -24.56044654 56.09979026 -27 56 C-29.64 50.72 -32.28 45.44 -35 40 C-32.95296875 39.95101562 -30.9059375 39.90203125 -28.796875 39.8515625 C-26.80776094 39.79592295 -24.81864813 39.74021631 -22.82958984 39.68261719 C-21.45044757 39.64440662 -20.07120833 39.60953998 -18.69189453 39.578125 C-16.70583033 39.53230376 -14.72008321 39.47333737 -12.734375 39.4140625 C-11.54038086 39.3826416 -10.34638672 39.3512207 -9.11621094 39.31884766 C-6.15976065 39.01634655 -4.41120106 38.70620087 -2 37 C-0.79838489 33.39515466 -0.76982864 30.02710143 -0.68359375 26.26953125 C-0.66281265 25.51911057 -0.64203156 24.76868988 -0.62062073 23.99552917 C-0.55530074 21.60127816 -0.49632208 19.20691861 -0.4375 16.8125 C-0.39429807 15.18813987 -0.35068324 13.56379067 -0.30664062 11.93945312 C-0.1988611 7.95974498 -0.09965785 3.97995299 0 0 Z " fill="#D3E3EF" transform="translate(328,32)"/>
<path d="M0 0 C5.13599645 2.76781365 8.47477828 5.29970437 12 10 C8.37 13.3 4.74 16.6 1 20 C-1.60742472 18.69628764 -4.11175943 17.39340808 -6.625 15.9375 C-12.91026953 12.32928971 -19.18581519 11.72970249 -26.32421875 13.61328125 C-32.44301784 16.34209735 -37.2376574 21.4048211 -40.171875 27.390625 C-42.07805857 33.39690152 -42.06438687 40.50291558 -39.5 46.3125 C-36.01537862 52.25247737 -30.5654417 56.91635683 -24 59 C-16.5965816 59.8781986 -10.15801888 59.43674131 -4 55 C-2.97696787 54.02357526 -1.9700795 53.0290509 -1 52 C2.47775179 53.51553404 4.9557984 55.5773456 7.75 58.125 C8.54921875 58.84945312 9.3484375 59.57390625 10.171875 60.3203125 C10.77515625 60.87460938 11.3784375 61.42890625 12 62 C7.02723992 69.20192839 -1.09558009 74.07007691 -9.72265625 75.74609375 C-22.24284087 77.1419977 -31.9736094 75.45325247 -42.375 68.125 C-51.50297669 60.7014173 -57.13150945 51.29179929 -58.37109375 39.45703125 C-58.61542996 26.04728498 -54.60749998 16.06739922 -45.44921875 6.35546875 C-32.68564179 -5.67702027 -15.61261744 -6.57585696 0 0 Z " fill="#010101" transform="translate(426,148)"/>
<path d="M0 0 C2.53864469 1.4249167 4.44261922 3.07134988 6.4375 5.1875 C9.39700142 3.81344577 11.85245396 2.16973068 14.4375 0.1875 C20.31199748 9.7785163 23.95259916 18.82256842 21.4375 30.1875 C19.70778654 35.1766055 17.18741562 39.69784184 14.4375 44.1875 C11.4675 41.7125 11.4675 41.7125 8.4375 39.1875 C5.83156936 40.43834671 3.3180129 41.81155314 0.8125 43.25 C-5.47889328 46.86172577 -11.69722274 47.4162731 -18.8515625 45.609375 C-25.29744505 42.78448624 -30.6593369 37.01854261 -33.765625 30.765625 C-35.60988228 24.79891028 -35.63120168 17.71664087 -33.125 11.9375 C-26.30959128 0.30262368 -12.7686815 -6.17152939 0 0 Z " fill="#4E555F" transform="translate(418.5625,161.8125)"/>
<path d="M0 0 C10.56 0 21.12 0 32 0 C32 2.64 32 5.28 32 8 C26.72 8 21.44 8 16 8 C16 13.28 16 18.56 16 24 C21.28 24 26.56 24 32 24 C32 26.64 32 29.28 32 32 C31.25234375 32.02578125 30.5046875 32.0515625 29.734375 32.078125 C28.74953125 32.13484375 27.7646875 32.1915625 26.75 32.25 C25.77546875 32.29640625 24.8009375 32.3428125 23.796875 32.390625 C20.28431939 33.15593041 19.19690783 34.18113115 17 37 C16.6368164 39.81558074 16.6368164 39.81558074 17.08984375 42.96484375 C17.2172998 44.20862793 17.34475586 45.45241211 17.47607422 46.73388672 C17.64847432 48.15619801 17.82325002 49.57822272 18 51 C18.18902887 52.60301979 18.3779909 54.20604747 18.56689453 55.80908203 C19.19970203 61.06448735 19.87823156 66.31358492 20.5625 71.5625 C20.91452914 74.26991534 21.26534371 76.97745991 21.61228943 79.68553162 C21.82627071 81.35540704 22.04312425 83.02491778 22.26332092 84.69398499 C22.36019699 85.44924973 22.45707306 86.20451447 22.55688477 86.98266602 C22.64269302 87.63993179 22.72850128 88.29719757 22.81690979 88.97438049 C23.02779746 91.30753737 23 93.65733173 23 96 C15.41 96 7.82 96 0 96 C0 64.32 0 32.64 0 0 Z " fill="#FBC3C8" transform="translate(232,168)"/>
<path d="M0 0 C13.33749935 0 26.6855162 0.21679507 40 1 C40 17.17 40 33.34 40 50 C26.8 50 13.6 50 0 50 C0 33.5 0 17 0 0 Z " fill="#67727E" transform="translate(208,310)"/>
<path d="M0 0 C5.94 0 11.88 0 18 0 C17.67 1.65 17.34 3.3 17 5 C15.47131357 23.56563307 18.33864237 42.60344285 30.08691406 57.67773438 C32.3780188 61.65646756 32.51581415 64.78759121 32.390625 69.2421875 C32.38496521 70.01055939 32.37930542 70.77893127 32.37347412 71.57058716 C32.35122173 74.00604621 32.30105041 76.43999157 32.25 78.875 C32.22992042 80.5338328 32.2116722 82.19268884 32.1953125 83.8515625 C32.1548073 87.90208288 32.07650731 91.94936307 32 96 C24.41 96 16.82 96 9 96 C9.77057263 84.07826708 11.32699361 72.31127371 12.91870117 60.4765625 C13.26339332 57.90413336 13.60261411 55.3310243 13.94140625 52.7578125 C14.10075401 51.59356247 14.10075401 51.59356247 14.26332092 50.40579224 C15.68883875 41.84068192 15.68883875 41.84068192 13 34 C8.71 33.34 4.42 32.68 0 32 C0 21.44 0 10.88 0 0 Z " fill="#F9C2C7" transform="translate(320,168)"/>
<path d="M0 0 C4.06187665 2.79161704 7.39319551 6.40000555 10.1484375 10.4765625 C10.1484375 11.4665625 10.1484375 12.4565625 10.1484375 13.4765625 C2.8884375 13.4765625 -4.3715625 13.4765625 -11.8515625 13.4765625 C-11.8515625 18.7565625 -11.8515625 24.0365625 -11.8515625 29.4765625 C-4.5915625 29.4765625 2.6684375 29.4765625 10.1484375 29.4765625 C8.66416138 35.41366699 5.13946407 39.45255956 0.0703125 42.8828125 C-6.33464181 46.10832906 -13.10608041 46.75159416 -20.046875 44.88671875 C-26.83700014 41.99758707 -31.9884213 36.04758313 -35.3515625 29.6015625 C-36.4783784 22.55896314 -36.99104744 15.75276855 -33.3203125 9.39453125 C-24.90888135 -1.58954506 -12.98152107 -6.51419289 0 0 Z " fill="#4E555F" transform="translate(203.8515625,162.5234375)"/>
<path d="M0 0 C3.11438163 1.2512827 5.61867478 2.61035295 8 5 C9.01412645 8.8022241 8.75960524 12.41093285 8.5 16.3125 C8.46390625 17.33923828 8.4278125 18.36597656 8.390625 19.42382812 C8.29651459 21.95304545 8.16524592 24.4745974 8 27 C7.13117188 27.42410156 6.26234375 27.84820312 5.3671875 28.28515625 C-4.9441729 33.53310813 -10.18605306 38.4463471 -15 49 C-16.65 49 -18.3 49 -20 49 C-19.79141357 48.36473389 -19.58282715 47.72946777 -19.36791992 47.07495117 C-17.05094731 39.43696422 -16.46876352 32.26408095 -16.3125 24.3125 C-16.27833984 23.12205078 -16.24417969 21.93160156 -16.20898438 20.70507812 C-16.12741334 17.80347982 -16.05797252 14.9021492 -16 12 C-12.4165443 10.44216237 -8.88091939 8.95900504 -5.1875 7.6875 C-1.73206971 6.27528676 -1.73206971 6.27528676 -0.5625 2.8125 C-0.376875 1.884375 -0.19125 0.95625 0 0 Z " fill="#F9C2C7" transform="translate(384,311)"/>
<path d="M0 0 C5.28 0 10.56 0 16 0 C16 13.2 16 26.4 16 40 C10.72 40 5.44 40 0 40 C0 26.8 0 13.6 0 0 Z " fill="#C1D7E6" transform="translate(328,440)"/>
<path d="M0 0 C0 20.46 0 40.92 0 62 C-9.57 62 -19.14 62 -29 62 C-24.8570209 56.82127612 -23.83982883 56.22445812 -17.875 54.4375 C-13.30697148 53.30594152 -13.30697148 53.30594152 -9.82226562 50.46264648 C-8.59325729 46.7818249 -8.7218592 43.1271903 -8.7265625 39.2890625 C-8.7062724 37.5520769 -8.68542159 35.81509778 -8.6640625 34.078125 C-8.64147982 31.35053023 -8.62499612 28.62319174 -8.61914062 25.89550781 C-8.60959229 23.25539271 -8.57578861 20.61642024 -8.5390625 17.9765625 C-8.54410797 17.16700104 -8.54915344 16.35743958 -8.55435181 15.52334595 C-8.44643538 9.27902438 -6.52559209 5.80621343 -2.3125 1.125 C-1 0 -1 0 0 0 Z " fill="#B7895B" transform="translate(416,298)"/>
<path d="M0 0 C3.8053125 0.061875 3.8053125 0.061875 7.6875 0.125 C7.6875 5.405 7.6875 10.685 7.6875 16.125 C-7.4925 16.125 -22.6725 16.125 -38.3125 16.125 C-33.81239866 10.49987332 -33.81239866 10.49987332 -29.50390625 8.73828125 C-28.59189453 8.35736328 -27.67988281 7.97644531 -26.74023438 7.58398438 C-25.79470703 7.20564453 -24.84917969 6.82730469 -23.875 6.4375 C-22.93333984 6.04755859 -21.99167969 5.65761719 -21.02148438 5.25585938 C-18.45750334 4.1973351 -15.88756581 3.15621549 -13.3125 2.125 C-12.4678418 1.75802002 -11.62318359 1.39104004 -10.75292969 1.01293945 C-7.20313575 -0.27863723 -3.72080707 -0.08578011 0 0 Z " fill="#519BDC" transform="translate(144.3125,463.875)"/>
<path d="M0 0 C3.8053125 0.061875 3.8053125 0.061875 7.6875 0.125 C7.6875 5.405 7.6875 10.685 7.6875 16.125 C-7.4925 16.125 -22.6725 16.125 -38.3125 16.125 C-33.81239866 10.49987332 -33.81239866 10.49987332 -29.50390625 8.73828125 C-28.59189453 8.35736328 -27.67988281 7.97644531 -26.74023438 7.58398438 C-25.79470703 7.20564453 -24.84917969 6.82730469 -23.875 6.4375 C-22.93333984 6.04755859 -21.99167969 5.65761719 -21.02148438 5.25585938 C-18.45750334 4.1973351 -15.88756581 3.15621549 -13.3125 2.125 C-12.4678418 1.75802002 -11.62318359 1.39104004 -10.75292969 1.01293945 C-7.20313575 -0.27863723 -3.72080707 -0.08578011 0 0 Z " fill="#519BDC" transform="translate(72.3125,463.875)"/>
<path d="M0 0 C10.56 0 21.12 0 32 0 C32 5.28 32 10.56 32 16 C21.44 16 10.88 16 0 16 C0 10.72 0 5.44 0 0 Z " fill="#000000" transform="translate(408,176)"/>
<path d="M0 0 C1.4540625 0.0309375 1.4540625 0.0309375 2.9375 0.0625 C2.5765625 0.71992188 2.215625 1.37734375 1.84375 2.0546875 C-4.60875127 15.28231511 -2.44891625 29.35474749 -0.5 43.48828125 C-0.14299008 46.40492481 0.0281739 49.13259948 -0.0625 52.0625 C-2.7025 52.0625 -5.3425 52.0625 -8.0625 52.0625 C-13.97181108 16.14562346 -13.97181108 16.14562346 -5.9375 3.625 C-3.33485978 0.06805836 -3.33485978 0.06805836 0 0 Z " fill="#F5939A" transform="translate(113.0625,307.9375)"/>
<path d="M0 0 C8.25 0 16.5 0 25 0 C25.66 5.28 26.32 10.56 27 16 C18.09 15.67 9.18 15.34 0 15 C0 10.05 0 5.1 0 0 Z " fill="#4282C1" transform="translate(232,280)"/>
</svg>
