<?xml version="1.0" encoding="UTF-8"?>
<svg version="1.1" xmlns="http://www.w3.org/2000/svg" width="512" height="512">
<path d="M0 0 C9.80186281 7.71896696 16.40800501 18.60169999 18.5 30.96875 C18.70872825 33.97687307 18.69289016 36.95547135 18.625 39.96875 C18.61597656 40.74347656 18.60695313 41.51820313 18.59765625 42.31640625 C18.57439388 44.20065843 18.5385364 46.08474832 18.5 47.96875 C19.14582031 48.10410156 19.79164063 48.23945313 20.45703125 48.37890625 C41.15256433 53.10688713 66.06860955 61.62270939 78.5 79.96875 C86.75859113 93.72630476 88.14323269 108.67658972 89.87304688 124.35351562 C90.92152349 133.16686091 92.53740101 141.58143219 95.5 149.96875 C96.06835571 151.60928345 96.06835571 151.60928345 96.64819336 153.28295898 C98.32902035 156.32921641 98.32902035 156.32921641 102.07421875 156.9921875 C103.44260481 157.13761984 104.8143372 157.2540008 106.1875 157.34375 C106.88939453 157.41207031 107.59128906 157.48039063 108.31445312 157.55078125 C110.04076316 157.71519173 111.7702747 157.84535016 113.5 157.96875 C113.65819214 156.5775293 113.65819214 156.5775293 113.81958008 155.15820312 C114.21965656 151.6832035 114.62889895 148.20952969 115.04418945 144.73632812 C115.22131815 143.2393569 115.39489394 141.74196046 115.56469727 140.24414062 C117.71790803 121.30093743 117.71790803 121.30093743 122.21875 115.91015625 C122.8065625 115.45511719 123.394375 115.00007813 124 114.53125 C124.5878125 114.05816406 125.175625 113.58507812 125.78125 113.09765625 C130.22215014 110.18079229 135.39332048 110.38756493 140.5 110.96875 C143.1901366 112.02184615 145.0929136 113.29852678 147.5 114.96875 C148.49 115.62875 149.48 116.28875 150.5 116.96875 C151.325 116.47375 152.15 115.97875 153 115.46875 C157.77134068 113.42388971 161.81302017 112.92815599 166.6484375 114.80078125 C169.3402703 116.13669083 171.9209615 117.60871418 174.47265625 119.1953125 C176.4787053 120.18516838 176.4787053 120.18516838 178.54296875 119.4375 C179.25066406 119.1178125 179.95835937 118.798125 180.6875 118.46875 C185.78499132 116.60218093 189.51864228 116.8092543 194.5 118.96875 C199.17257196 121.94139578 201.69614445 124.70262162 203.5 129.96875 C204.66870347 140.2762743 202.55079485 151.02142191 201.19921875 161.234375 C200.95938885 163.08130873 200.71996025 164.92829462 200.48091125 166.77532959 C199.9807582 170.62532412 199.47490745 174.47451622 198.96508789 178.32324219 C198.31444576 183.23956755 197.67955404 188.15778037 197.04905987 193.07672501 C196.5591385 196.88329892 196.06019583 200.68864976 195.5586338 204.49370575 C195.32090214 206.30649536 195.08609138 208.11967065 194.85434532 209.93323517 C194.52892916 212.4701561 194.19117978 215.00515014 193.8503418 217.54003906 C193.71223335 218.64681 193.71223335 218.64681 193.57133484 219.77593994 C192.51188628 227.45164477 190.60675936 233.77800454 184.5 238.96875 C180.54413134 241.60599578 177.21615349 242.03732089 172.5 241.96875 C168.78697965 241.14149676 165.599592 240.08443359 162.8984375 237.34375 C162.43695313 236.89 161.97546875 236.43625 161.5 235.96875 C159.46128755 236.1449544 159.46128755 236.1449544 157.5 236.96875 C152.25364463 238.71753512 146.21157728 239.23385783 141.10546875 236.8515625 C139.75841912 235.96685829 138.43766648 235.03985155 137.15625 234.0625 C135.41356862 232.69321923 135.41356862 232.69321923 132.5 232.96875 C131.778125 233.29875 131.05625 233.62875 130.3125 233.96875 C124.91286709 235.88861948 120.37668828 235.63933567 115.25 233.28125 C110.76258155 230.79509676 108.13525101 227.87450302 106.5 222.96875 C105.91992127 213.18666647 106.98905903 203.74131226 108.5 194.09375 C108.69078125 192.82144531 108.8815625 191.54914063 109.078125 190.23828125 C109.5429893 187.14693368 110.01703096 184.05731132 110.5 180.96875 C98.57984825 179.62192869 98.57984825 179.62192869 88.0625 183.84375 C87.22138672 184.66359375 87.22138672 184.66359375 86.36328125 185.5 C81.83437035 189.06995911 75.04882781 188.96875 69.5 188.96875 C69.665 189.608125 69.83 190.2475 70 190.90625 C70.43469166 193.56873641 70.44604099 195.61963994 70.3125 198.28125 C70.27093714 203.27710534 71.58646199 206.91822155 74.5 210.96875 C76.40274206 212.79382912 78.41805144 214.33939895 80.5 215.96875 C83.09470878 220.15885405 83.16000352 224.17328137 82.5 228.96875 C79.36656286 235.48629924 74.37871361 238.91322168 67.75 241.34375 C60.51623093 242.80171896 52.87792122 241.96665118 46.41796875 238.34375 C39.56555362 233.43122428 34.77264631 228.14034264 33.3125 219.78125 C31.84739743 213.08788799 29.3432385 209.63142917 24.5 204.96875 C19.36248717 199.11041267 18.22794028 196.03511114 18.265625 188.234375 C18.60367802 183.52416954 19.92124786 179.38704793 21.5 174.96875 C2.80612335 173.62503293 -15.91127664 173.85105969 -34.64044189 173.90008545 C-39.03242507 173.91046062 -43.42441426 173.91491297 -47.81640625 173.91992188 C-56.37762037 173.93052931 -64.93880566 173.94751315 -73.5 173.96875 C-73.29059784 174.58317963 -73.08119568 175.19760925 -72.865448 175.83065796 C-72.59257965 176.63854767 -72.3197113 177.44643738 -72.03857422 178.27880859 C-71.76729706 179.07886322 -71.4960199 179.87891785 -71.21652222 180.70321655 C-69.47445003 186.21138186 -68.50378991 192.35464267 -70.6875 197.84375 C-73.06753583 201.94726005 -75.62757202 205.13887948 -79.0625 208.40625 C-82.80903753 212.34491766 -84.3876746 216.06680508 -85.3125 221.34375 C-86.80761197 228.51787598 -91.00817601 233.15895154 -96.875 237.34375 C-104.48649923 241.99945036 -111.74876823 243.0200096 -120.5 240.96875 C-125.78976855 238.82465026 -130.25689093 236.17441621 -133.1875 231.15625 C-134.9658208 226.61548912 -135.38710812 222.53183931 -133.5 217.96875 C-131.37205444 215.40366833 -129.12836429 213.21429092 -126.62890625 211.01171875 C-122.2108204 206.77197765 -122.12599025 202.63793685 -121.875 196.71875 C-121.83632812 195.97367188 -121.79765625 195.22859375 -121.7578125 194.4609375 C-121.66394892 192.6305976 -121.58090282 190.79970857 -121.5 188.96875 C-122.2734375 188.94296875 -123.046875 188.9171875 -123.84375 188.890625 C-130.49523289 188.52841554 -135.95460453 187.84384563 -141.5 183.96875 C-141.94118164 183.45642822 -142.38236328 182.94410645 -142.83691406 182.41625977 C-144.94371274 180.58255317 -145.97335374 180.61711923 -148.73046875 180.67578125 C-149.93413086 180.6902832 -149.93413086 180.6902832 -151.16210938 180.70507812 C-151.99548828 180.73021484 -152.82886719 180.75535156 -153.6875 180.78125 C-154.53248047 180.79478516 -155.37746094 180.80832031 -156.24804688 180.82226562 C-158.33230384 180.85759201 -160.41623277 180.91139861 -162.5 180.96875 C-162.31171631 181.84817261 -162.31171631 181.84817261 -162.11962891 182.74536133 C-160.74648113 189.35290703 -159.73620802 195.9643122 -158.875 202.65625 C-158.67390625 204.14608398 -158.67390625 204.14608398 -158.46875 205.66601562 C-156.49060881 220.85531402 -156.49060881 220.85531402 -160.5 227.96875 C-165.11220159 232.92630968 -168.554681 234.77561433 -175.3125 235.21875 C-179.63782992 235.18628974 -182.65856569 233.88946716 -186.5 231.96875 C-187.8921875 233.1753125 -187.8921875 233.1753125 -189.3125 234.40625 C-194.41018544 238.82424405 -200.04107486 238.40428728 -206.5 237.96875 C-207.61375 237.55625 -208.7275 237.14375 -209.875 236.71875 C-211.174375 236.3475 -211.174375 236.3475 -212.5 235.96875 C-215.08119071 237.69997465 -215.08119071 237.69997465 -217.5 239.96875 C-222.58633705 242.39631995 -227.12205806 242.30116649 -232.5 240.96875 C-236.89667729 238.64597709 -239.71381129 236.06331199 -242.5 231.96875 C-243.20644793 229.34431274 -243.71335958 226.96463642 -244.0949707 224.29736328 C-244.21340238 223.5533684 -244.33183405 222.80937351 -244.45385456 222.04283333 C-244.82191861 219.68724303 -245.16450436 217.32918365 -245.5 214.96875 C-245.60703121 214.22992332 -245.71406242 213.49109665 -245.82433701 212.72988129 C-246.59062319 207.39626634 -247.29135585 202.0549875 -247.98046875 196.7109375 C-248.20017508 195.02561775 -248.42009431 193.34032575 -248.64021301 191.65505981 C-249.09562266 188.16131641 -249.54822355 184.66722413 -249.9987793 181.17285156 C-250.57470071 176.70830716 -251.1582588 172.24479832 -251.74392223 167.78152275 C-252.19750743 164.31774799 -252.64687301 160.85343569 -253.0949955 157.38895035 C-253.3085439 155.74223494 -253.52343495 154.09569303 -253.73973656 152.44933701 C-254.04069367 150.15409666 -254.33588677 147.85818384 -254.62963867 145.56201172 C-254.79823898 144.26093475 -254.96683929 142.95985779 -255.14054871 141.61935425 C-255.86491932 134.26261226 -255.83559183 129.0513303 -251.5 122.96875 C-247.39466607 118.85325435 -243.38062011 117.07191877 -237.5 116.96875 C-233.25179859 117.63951864 -229.23487852 118.79007087 -225.5 120.96875 C-225.17 119.97875 -224.84 118.98875 -224.5 117.96875 C-220.28875172 114.82869206 -215.75349078 113.36986653 -210.53125 113.62890625 C-206.95394226 114.22741735 -203.82753538 115.54266341 -200.5 116.96875 C-199.55125 116.164375 -198.6025 115.36 -197.625 114.53125 C-193.26079966 110.8311671 -190.08550617 110.56177811 -184.39453125 110.62890625 C-179.93905352 111.15201902 -176.64784606 112.77883918 -173.5 115.96875 C-168.38799598 122.61531432 -168.15824197 130.51966426 -167.25 138.59375 C-167.07686646 140.01318561 -166.90239798 141.43245906 -166.7265625 142.8515625 C-165.38738818 153.91200016 -165.38738818 153.91200016 -165.5 158.96875 C-164.39591797 158.7521875 -164.39591797 158.7521875 -163.26953125 158.53125 C-162.29371094 158.345625 -161.31789063 158.16 -160.3125 157.96875 C-159.34957031 157.783125 -158.38664062 157.5975 -157.39453125 157.40625 C-154.7065794 156.99997388 -152.21228981 156.88941428 -149.5 156.96875 C-149.2215625 156.11667969 -148.943125 155.26460937 -148.65625 154.38671875 C-147.12080238 149.8478111 -145.4141229 145.37589803 -143.71875 140.89453125 C-140.85370834 132.37151115 -140.1893692 123.44164074 -139.5625 114.53125 C-138.30669488 99.02106398 -135.79870467 86.06681392 -123.9765625 75.01953125 C-109.31238066 62.87647847 -91.78398305 55.58097776 -74.5 47.96875 C-74.53480469 47.09734375 -74.56960937 46.2259375 -74.60546875 45.328125 C-74.97201421 29.20012471 -71.17457016 16.12830908 -59.95703125 4.296875 C-42.82606927 -11.93532427 -19.53216612 -13.39997443 0 0 Z M-33.859375 129.12890625 C-35.39851563 129.81980347 -35.39851563 129.81980347 -36.96875 130.5246582 C-38.0515625 131.0218335 -39.134375 131.51900879 -40.25 132.03125 C-53.25769962 137.93292651 -53.25769962 137.93292651 -58.890625 140.046875 C-59.67856445 140.34585693 -60.46650391 140.64483887 -61.27832031 140.95288086 C-62.7235569 141.49174764 -64.17595679 142.01190055 -65.63574219 142.51000977 C-67.79822733 143.26493417 -67.79822733 143.26493417 -70.5 144.96875 C-70.83 146.94875 -71.16 148.92875 -71.5 150.96875 C-41.14 150.96875 -10.78 150.96875 20.5 150.96875 C19.22824755 145.15065347 19.22824755 145.15065347 16.32910156 143.46923828 C15.4419043 143.12103027 14.55470703 142.77282227 13.640625 142.4140625 C12.65255859 142.0109082 11.66449219 141.60775391 10.64648438 141.19238281 C9.60814453 140.78858398 8.56980469 140.38478516 7.5 139.96875 C5.47252194 139.11538383 3.44647846 138.2586014 1.421875 137.3984375 C-0.63465236 136.54503084 -2.69194896 135.69347562 -4.75 134.84375 C-6.8178389 133.98729434 -8.8855506 133.13053148 -10.953125 132.2734375 C-11.91541016 131.87737305 -12.87769531 131.48130859 -13.86914062 131.07324219 C-16.07727492 130.14621922 -18.24766146 129.16655123 -20.421875 128.1640625 C-25.59753496 126.154225 -28.88924903 126.86270074 -33.859375 129.12890625 Z " fill="#030201" transform="translate(285.5,143.03125)"/>
<path d="M0 0 C2.50025019 2.38482127 3.74686363 4.38257793 5.125 7.5625 C10.80989487 19.13471923 20.20318009 26.94469425 32.3515625 31.1640625 C45.87182479 34.26185279 57.81405609 31.74567958 69.6875 24.875 C78.96950417 18.65168764 83.95620177 10.22614361 88 0 C107.98570464 1.97833747 129.90434605 11.51116578 142.79296875 27.1796875 C150.2168305 37.48144134 151.80231135 48.95690135 153 61.25 C154.76757532 80.10583958 154.76757532 80.10583958 161.375 97.6875 C164.0005325 103.14529985 162.70647478 108.39415059 161 114 C159.22555185 118.00408083 157.0870542 120.35401913 153 122 C150.76140807 122.43798538 148.50900513 122.80873928 146.25 123.125 C145.07953125 123.29257812 143.9090625 123.46015625 142.703125 123.6328125 C141.81109375 123.75398438 140.9190625 123.87515625 140 124 C135.42341829 118.32578284 133.49170658 115.49732797 134 108 C134.33 106.9275 134.66 105.855 135 104.75 C137.38442657 95.80840035 136.36752056 88.0937343 132 80 C129.91287203 76.61919767 127.74799442 73.28783922 125.55615234 69.97412109 C122.96128639 65.94180454 121.47283488 62.75197821 120.75 57.9375 C119.95968392 54.03275315 119.32925198 53.22020037 115.93359375 50.94921875 C113.50411194 49.69669882 111.0813748 48.67211701 108.54296875 47.6328125 C103.54162606 45.32789382 100.0957242 42.6435863 97 38 C91.2681592 37.31592352 86.94589568 38.819397 81.75 40.9375 C80.34901821 41.48843353 78.9479788 42.03922057 77.546875 42.58984375 C76.37640625 43.05519531 75.2059375 43.52054688 74 44 C66.82708756 46.39097081 61.15059137 45.41103484 54.4375 42.0625 C49.28729282 39.28729282 49.28729282 39.28729282 48 38 C43.14848248 37.55324155 40.56263697 38.52147542 36.4375 41 C28.18826308 45.2511405 21.22939051 45.4161944 12.421875 42.640625 C10.04586853 41.85071256 7.69502023 41.0266586 5.35498047 40.13574219 C0.75306082 38.40656088 -2.99497456 37.47917248 -8 38 C-9.9884805 40.19195735 -9.9884805 40.19195735 -12 43 C-15.41387886 45.61218519 -19.00470148 48.18940998 -23 49.8125 C-25.07996942 50.673177 -26.40482536 51.39631776 -28 53 C-29.11086514 55.97934959 -29.84446382 58.99407767 -30.6328125 62.07421875 C-32.384775 67.82535542 -35.8645833 72.73000909 -39.11621094 77.73095703 C-44.13555789 85.5011266 -45.70257785 91.74488792 -45 101 C-44.3747292 103.34476551 -43.7136591 105.68060793 -43 108 C-42.29079515 113.57232384 -43.46017229 116.88533212 -46.5859375 121.390625 C-48 123 -48 123 -50.3125 124.125 C-56.52226325 123.8361738 -61.54555449 122.58545861 -66 118 C-69.13633692 111.10695183 -70.15444796 104.84595456 -67.5703125 97.59765625 C-66.37709579 94.50630022 -65.07916813 91.46961861 -63.76171875 88.4296875 C-59.67407773 78.61010052 -59.43030752 68.55084297 -58.87695312 58.03710938 C-57.98301087 43.72597973 -54.06711569 33.12015501 -43.56640625 23.09765625 C-30.81898734 12.67853303 -15.36959156 5.60921478 0 0 Z " fill="#E7A175" transform="translate(213,200)"/>
<path d="M0 0 C10.79152848 6.45958277 17.90738819 14.86300175 21.54296875 27.0390625 C24.16258523 40.12155195 22.02772232 51.77923768 14.9296875 62.92578125 C10.15424373 69.52300831 4.83982566 74.38218078 -2.80078125 77.31640625 C-3.7134375 77.66960937 -4.62609375 78.0228125 -5.56640625 78.38671875 C-14.06718781 80.83018012 -23.30966084 80.5664637 -31.30078125 76.75390625 C-42.47094548 70.2606807 -49.23914168 62.07890795 -53.1965332 49.72949219 C-54.18730215 45.77282138 -54.29039892 41.9416029 -54.23828125 37.87890625 C-54.23070801 37.04633301 -54.22313477 36.21375977 -54.21533203 35.35595703 C-54.04468709 28.9872884 -53.07788735 23.86306098 -49.80078125 18.31640625 C-49.36507812 17.54167969 -48.929375 16.76695312 -48.48046875 15.96875 C-38.39851125 -0.53150286 -18.14611443 -8.84199464 0 0 Z " fill="#F1CCB5" transform="translate(273.80078125,145.68359375)"/>
<path d="M0 0 C1 3 1 3 0.0625 5.8125 C-3.41675974 16.98400067 -1.13964404 29.85780697 3.75 40.1875 C9.45398754 50.88418647 17.26375175 57.93346074 28.9375 61.9375 C34.57521806 63.42636596 40.21287249 63.26847499 46 63 C39.92037271 70.78376524 33.00895192 77.24379303 23 79 C10.08650808 80.34713983 1.00439077 77.99476135 -9.375 69.75 C-16.85140469 62.69326875 -21.8521898 52.6204747 -22.43359375 42.31640625 C-22.45690918 40.73194183 -22.45782658 39.14700558 -22.4375 37.5625 C-22.42992676 36.72992676 -22.42235352 35.89735352 -22.41455078 35.03955078 C-22.24390584 28.67088215 -21.2771061 23.54665473 -18 18 C-17.56429687 17.22527344 -17.12859375 16.45054687 -16.6796875 15.65234375 C-12.56887198 8.92453365 -7.22780001 3.32478801 0 0 Z " fill="#EEBA9A" transform="translate(242,146)"/>
<path d="M0 0 C3.34596605 1.50239263 4.38012046 3.8423205 6.18359375 6.98046875 C6.94140625 10.24658203 6.94140625 10.24658203 7.30859375 13.80078125 C7.38082657 14.44865601 7.45305939 15.09653076 7.52748108 15.76403809 C7.68077864 17.15371586 7.82678742 18.54421393 7.96609497 19.93536377 C8.2627645 22.89539889 8.59509495 25.8510964 8.92604065 28.8074646 C9.09558174 30.32259465 9.26340957 31.83791737 9.42955017 33.35342407 C10.21465358 40.46028706 11.20405931 47.53188794 12.24609375 54.60546875 C12.57590908 56.87754784 12.90534298 59.14968234 13.234375 61.421875 C13.39244629 62.51129395 13.55051758 63.60071289 13.71337891 64.72314453 C14.47421719 69.99370757 15.21656134 75.26626794 15.93359375 80.54296875 C16.0612915 81.44031738 16.18898926 82.33766602 16.32055664 83.26220703 C18.54332347 99.87906827 18.54332347 99.87906827 15.12109375 105.16796875 C11.39405605 107.46763031 9.49112238 107.74967029 5.18359375 106.98046875 C0.74310471 103.92146519 -0.27692346 100.97620712 -1.33178711 95.82446289 C-2.23768354 90.50819714 -2.83810187 85.15365433 -3.44830322 79.79705811 C-3.86654085 76.13414492 -4.30139438 72.47322979 -4.73828125 68.8125 C-4.82671295 68.07128906 -4.91514465 67.33007812 -5.0062561 66.56640625 C-5.88076746 59.31408029 -6.89164371 52.08458278 -7.94140625 44.85546875 C-8.19204834 43.12139771 -8.19204834 43.12139771 -8.44775391 41.35229492 C-9.02014758 37.40738075 -9.59455251 33.46282835 -10.18457031 29.52050781 C-13.43843444 7.75361373 -13.43843444 7.75361373 -9.87890625 1.66796875 C-6.20884466 -0.35431009 -4.08170795 -0.37492291 0 0 Z " fill="#818282" transform="translate(50.81640625,269.01953125)"/>
<path d="M0 0 C4.00538252 0.64372219 5.65945826 1.72195826 8.5 4.5625 C11.52470069 10.61190138 8.71714689 19.59815434 7.75 25.9375 C6.26544307 35.95759655 4.92912805 45.97996007 3.74597168 56.03973389 C2.41680636 67.3079555 1.04609734 78.57185083 -0.5 89.8125 C-0.64179688 90.93084229 -0.78359375 92.04918457 -0.9296875 93.20141602 C-2.28371373 102.70855083 -2.28371373 102.70855083 -6.5 106.5625 C-9.67878694 108.15189347 -11.9956772 107.97826711 -15.5 107.5625 C-19.4223595 104.22432171 -19.4223595 104.22432171 -20.5 101.5625 C-20.80450943 96.08707578 -20.21621512 91.01594429 -19.25 85.625 C-17.88434741 77.51223669 -16.83167336 69.37605346 -15.87075806 61.20687866 C-15.18960026 55.43661866 -14.48313133 49.66935283 -13.78253174 43.90142822 C-13.48980504 41.47810143 -13.20160513 39.05426013 -12.91357422 36.63037109 C-12.41896795 32.48930176 -11.90037893 28.35177624 -11.36688232 24.21554565 C-11.1653705 22.62464474 -10.97145052 21.03276218 -10.78546143 19.43997192 C-10.52412349 17.21213213 -10.2359612 14.98928295 -9.94140625 12.765625 C-9.70466187 10.85765137 -9.70466187 10.85765137 -9.46313477 8.91113281 C-7.94846038 3.64490368 -5.44534649 0.87514497 0 0 Z " fill="#818282" transform="translate(471.5,268.4375)"/>
<path d="M0 0 C3 1.8125 3 1.8125 5 5 C5.89122994 12.88975706 4.47225245 20.84585487 3.25 28.625 C1.74676116 38.6369345 0.38461214 48.64887772 -0.81088257 58.70144653 C-1.06154614 60.80449719 -1.31602788 62.90705402 -1.5715332 65.00952148 C-2.33755427 71.3329539 -3.07640296 77.65720198 -3.7421875 83.9921875 C-3.97395441 86.05729211 -4.20572497 88.1223963 -4.4375 90.1875 C-4.56620483 91.56675659 -4.56620483 91.56675659 -4.69750977 92.97387695 C-5.37962675 98.84298326 -6.65590982 101.91525849 -11 106 C-14.4375 107.1875 -14.4375 107.1875 -18 107 C-22.33429416 104.87225559 -22.33429416 104.87225559 -24 102 C-25.34587698 92.38300591 -23.1510748 82.17405938 -21.8125 72.625 C-21.58603351 70.96853354 -21.36038182 69.31195551 -21.13549805 67.65527344 C-20.78505352 65.07586837 -20.43381075 62.49659101 -20.079422 59.91772461 C-19.23268705 53.7533996 -18.41961815 47.58530872 -17.625 41.4140625 C-17.40260208 39.69319478 -17.18019015 37.97232887 -16.95776367 36.25146484 C-16.63804529 33.77648251 -16.3190687 31.30141929 -16.00283813 28.82598877 C-13.04038104 5.68061552 -13.04038104 5.68061552 -10.375 1.375 C-6.92225972 -0.6239549 -3.81971931 -0.83201807 0 0 Z " fill="#666666" transform="translate(450,266)"/>
<path d="M0 0 C3.39826923 2.20428275 3.94608938 3.79730456 4.9921875 7.73046875 C6.2349224 13.67822536 6.88943561 19.69486385 7.57504272 25.72775269 C9.25958859 40.51716039 11.23480527 55.25815774 13.3371582 69.9934082 C17.33957959 98.14611304 17.33957959 98.14611304 14.5625 104.0625 C11.31521975 106.51776068 9.19608409 106.55959575 5.21875 106.56640625 C2.14117554 105.78075784 1.01461106 104.43642184 -1 102 C-1.76220703 99.21386719 -1.76220703 99.21386719 -2.1328125 96.046875 C-2.28008789 94.88994141 -2.42736328 93.73300781 -2.57910156 92.54101562 C-2.78744629 90.78821289 -2.78744629 90.78821289 -3 89 C-3.30354564 86.92093795 -3.61331369 84.84277366 -3.9296875 82.765625 C-6.02474812 68.40907369 -7.90262032 54.03939106 -9.60498047 39.63183594 C-10.53120672 31.80410644 -11.51957878 23.99019265 -12.59179688 16.18139648 C-13.854671 6.33898457 -13.854671 6.33898457 -11.125 2.0625 C-7.327934 -1.62288759 -5.08789001 -1.14038914 0 0 Z " fill="#818282" transform="translate(103,263)"/>
<path d="M0 0 C3.31544309 1.12398544 5.29337898 2.74375982 7.0625 5.69921875 C8.20090363 9.7268421 8.64995202 13.79771253 9.125 17.94921875 C9.28291016 19.17705078 9.44082031 20.40488281 9.60351562 21.66992188 C10.02569588 24.99229695 10.42858559 28.31574472 10.81964111 31.6418457 C11.22349892 35.06311714 11.64219298 38.48258049 12.05859375 41.90234375 C12.56295124 46.05351614 13.06408999 50.20500036 13.55395508 54.35791016 C14.79992534 64.87011298 16.24724295 75.34130213 17.84375 85.80664062 C20.00163042 100.25921877 20.00163042 100.25921877 17.1875 104.57421875 C14.67583682 107.08588193 13.76865837 107.62075671 10.25 108.01171875 C6.2053851 107.61518788 4.80819969 106.67372674 2.0625 103.69921875 C0.49548033 99.04136344 -0.33875862 94.51285629 -0.90234375 89.640625 C-0.98009537 88.98336426 -1.05784698 88.32610352 -1.13795471 87.64892578 C-1.30316097 86.24664408 -1.46577581 84.84405498 -1.62597656 83.44119263 C-1.87934196 81.22371751 -2.13988569 79.00718769 -2.40234375 76.79077148 C-2.75484769 73.81000929 -3.10500421 70.82899051 -3.45263672 67.84765625 C-4.09811943 62.31702506 -4.75740378 56.78820699 -5.4375 51.26171875 C-5.55254883 50.32537598 -5.66759766 49.3890332 -5.78613281 48.42431641 C-6.88639397 39.69867579 -8.24040653 31.01388559 -9.66796875 22.33618164 C-11.91274023 8.3754129 -11.91274023 8.3754129 -8.9375 3.26171875 C-5.58232274 0.39583817 -4.22255038 0.02553962 0 0 Z " fill="#666666" transform="translate(74.9375,265.30078125)"/>
<path d="M0 0 C2.73430905 2.08722168 3.85800335 3.28166399 4.53125 6.6875 C4.42767464 17.66648809 2.78628076 28.34092446 1.14453125 39.18359375 C0.01588756 46.71075691 -0.91936751 54.25348634 -1.81088257 61.81195068 C-2.06098548 63.92470603 -2.31542185 66.03689093 -2.5715332 68.14892578 C-2.69583458 69.17406281 -2.69583458 69.17406281 -2.82264709 70.21990967 C-2.90437668 70.89370667 -2.98610626 71.56750366 -3.0703125 72.26171875 C-3.6489145 77.0328774 -4.20375032 81.80616724 -4.7421875 86.58203125 C-4.97271073 88.4715068 -5.2043815 90.36084289 -5.4375 92.25 C-5.52330322 93.08265381 -5.60910645 93.91530762 -5.69750977 94.77319336 C-6.22301397 98.82984522 -6.76197687 100.69414028 -9.34375 104.01171875 C-13.3690929 107.0248063 -15.0785167 106.70306904 -20 106 C-22.43119623 104.12984906 -23.64069173 102.71861655 -25 100 C-25.39544547 93.43920013 -24.23736208 87.09684991 -23.25 80.625 C-21.76544307 70.60490345 -20.42912805 60.58253993 -19.24597168 50.52276611 C-17.91680636 39.2545445 -16.54609734 27.99064917 -15 16.75 C-14.85820312 15.63165771 -14.71640625 14.51331543 -14.5703125 13.36108398 C-13.21628627 3.85394917 -13.21628627 3.85394917 -9 0 C-5.81452856 -1.59273572 -3.39809153 -0.76164121 0 0 Z " fill="#818282" transform="translate(425,263)"/>
<path d="M0 0 C9.22287114 7.19383949 14.24989541 15.94880681 18 27 C18 27.99 18 28.98 18 30 C16.87980469 30.40992188 15.75960937 30.81984375 14.60546875 31.2421875 C13.132737 31.78625401 11.66008489 32.33053611 10.1875 32.875 C9.44951172 33.14441406 8.71152344 33.41382813 7.95117188 33.69140625 C7.23896484 33.95566406 6.52675781 34.21992188 5.79296875 34.4921875 C5.1383667 34.73308105 4.48376465 34.97397461 3.80932617 35.22216797 C1.72104063 36.05526168 1.72104063 36.05526168 -1 38 C-1.98142479 40.60808448 -1.98142479 40.60808448 -2.625 43.5625 C-3.92109777 48.92109777 -3.92109777 48.92109777 -5 50 C-6.37833832 50.22668078 -7.76650978 50.39436274 -9.15625 50.53515625 C-10.44402344 50.66567383 -10.44402344 50.66567383 -11.7578125 50.79882812 C-13.11519531 50.9293457 -13.11519531 50.9293457 -14.5 51.0625 C-15.37398437 51.15337891 -16.24796875 51.24425781 -17.1484375 51.33789062 C-22.79457936 51.89496545 -28.32696681 52.08647916 -34 52 C-34.27240765 47.37588016 -33.64039902 44.53044388 -31.5 40.4375 C-30.68595703 38.87902344 -30.68595703 38.87902344 -29.85546875 37.2890625 C-27.30576488 32.7693769 -24.51686378 28.41446725 -21.72265625 24.04296875 C-20.16217705 21.28647601 -19.40914505 19.18197982 -18.75 16.125 C-17.86424143 12.9008388 -17.11309161 12.0819168 -14.3359375 10.0703125 C-12.21168774 8.86605412 -10.06545396 7.69970308 -7.8984375 6.57421875 C-4.54118538 4.75080554 -2.44741254 2.88445049 0 0 Z " fill="#DE7B53" transform="translate(209,245)"/>
<path d="M0 0 C0.54527344 0.37511719 1.09054687 0.75023437 1.65234375 1.13671875 C2.40644531 1.64847656 3.16054688 2.16023437 3.9375 2.6875 C4.75605469 3.24566406 5.57460938 3.80382812 6.41796875 4.37890625 C8.81352744 5.8829257 11.17294447 6.97723577 13.75 8.125 C18.67077333 10.8221249 19.68283304 14.20426985 21.4765625 19.34375 C23.73933503 24.77440406 26.969266 29.55047728 30.25537109 34.41674805 C33.68472724 39.71564116 34.72502872 43.68190986 35 50 C31.99978513 49.85785272 28.99988211 49.71138304 26 49.5625 C25.16082031 49.52318359 24.32164062 49.48386719 23.45703125 49.44335938 C18.25986542 49.18148668 13.15542847 48.7100648 8 48 C7.32968281 46.0429132 6.66385317 44.08428887 6 42.125 C5.62875 41.03445313 5.2575 39.94390625 4.875 38.8203125 C4 36 4 36 4 34 C3.31550781 33.88785156 2.63101562 33.77570313 1.92578125 33.66015625 C-1.47738305 32.89228607 -4.56743098 31.71586052 -7.8125 30.4375 C-8.97394531 29.98246094 -10.13539063 29.52742188 -11.33203125 29.05859375 C-12.21246094 28.70925781 -13.09289062 28.35992187 -14 28 C-13.78693414 17.13364094 -7.30515208 7.66150096 0 0 Z " fill="#DD7B52" transform="translate(307,247)"/>
<path d="M0 0 C1.76568108 -0.00067738 3.53136207 -0.00165096 5.29704285 -0.00289917 C8.97530008 -0.00436005 12.65353277 -0.00227699 16.33178711 0.00244141 C20.95247942 0.00809215 25.57311355 0.00478211 30.19380379 -0.00099564 C55.52912689 -0.0279298 80.83931587 0.03355616 106.10546875 2.1328125 C105.77546875 4.1128125 105.44546875 6.0928125 105.10546875 8.1328125 C101.89715615 8.16266368 98.68888055 8.17988744 95.48046875 8.1953125 C94.15402344 8.20788086 94.15402344 8.20788086 92.80078125 8.22070312 C87.80875407 8.23853179 82.89520106 8.06014082 77.9206543 7.63500977 C68.9802252 6.97861393 60.0621652 6.98803872 51.1015625 7 C49.28857917 6.99932382 47.47559594 6.99835119 45.66261292 6.99710083 C41.87980274 6.995636 38.09701636 6.99773723 34.31420898 7.00244141 C29.52997892 7.00810909 24.74580536 7.00487069 19.96157742 6.99886894 C16.21972755 6.99520555 12.47789043 6.99642848 8.73604012 6.99899673 C6.9754746 6.99965166 5.21490783 6.99888948 3.4543438 6.99651718 C-7.83856906 6.98464389 -19.07562667 7.30367114 -30.35269165 7.90919495 C-35.80563637 8.19593766 -41.24755555 8.25071702 -46.70703125 8.1953125 C-47.61388672 8.19080078 -48.52074219 8.18628906 -49.45507812 8.18164062 C-51.60159416 8.1702834 -53.7480744 8.15238505 -55.89453125 8.1328125 C-56.22453125 6.4828125 -56.55453125 4.8328125 -56.89453125 3.1328125 C-53.93670599 2.81479997 -50.97839151 2.50343606 -48.01953125 2.1953125 C-47.21644531 2.10830078 -46.41335937 2.02128906 -45.5859375 1.93164062 C-30.41093776 0.36780477 -15.24249119 -0.02117949 0 0 Z " fill="#626262" transform="translate(233.89453125,301.8671875)"/>
<path d="M0 0 C2.1682057 2.1682057 2.93954961 3.90623172 4.1875 6.6875 C7.25785838 12.96447527 11.39896295 18.27072507 18 21 C22.06005557 21.46223721 22.06005557 21.46223721 26 21 C28.8971941 18.68726558 28.8971941 18.68726558 31 16 C31.66 15.67 32.32 15.34 33 15 C33.02578125 15.7734375 33.0515625 16.546875 33.078125 17.34375 C33.4835689 24.78917434 34.05847488 31.36896701 39.78515625 36.64453125 C41.01861784 37.64497751 42.25540973 38.64133715 43.49609375 39.6328125 C45 41 45 41 46.25 43.5625 C46 46 46 46 43.875 48.6875 C39.12375689 52.50915207 35.28814928 53.47827287 29.26953125 53.30859375 C23.26624715 52.49231243 18.92951112 48.63031367 15.203125 44.05078125 C13.41236372 40.99834725 13.07388236 37.94497411 12.5390625 34.484375 C11.08266859 27.77229872 6.32592286 23.0003192 1.453125 18.4453125 C-0.65055179 16.3529458 -0.98646523 15.27666653 -1.1328125 12.28515625 C-1.13023437 11.22167969 -1.12765625 10.15820312 -1.125 9.0625 C-1.12757813 8.00160156 -1.13015625 6.94070313 -1.1328125 5.84765625 C-1 3 -1 3 0 0 Z " fill="#B2312E" transform="translate(314,323)"/>
<path d="M0 0 C0.66 0.33 1.32 0.66 2 1 C2.625 3.125 2.625 3.125 3 6 C3.2475 7.6396875 3.2475 7.6396875 3.5 9.3125 C2.77047529 14.69274476 -0.29603519 17.23217373 -4 21 C-8.31032982 26.02871813 -10.81998392 30.512884 -11.9375 37.0625 C-13.02560815 42.96305396 -15.1977005 45.64827538 -20 49.25 C-25.07319324 52.20936272 -30.19635794 52.75437289 -36 52 C-39.18970398 50.26016146 -41.44695493 48.55304507 -44 46 C-44.359375 43.61328125 -44.359375 43.61328125 -44 41 C-42.390625 39.04296875 -42.390625 39.04296875 -40.25 37.1875 C-33.26022225 30.5688609 -31.39010078 24.51845903 -31 15 C-29.989375 15.825 -28.97875 16.65 -27.9375 17.5 C-25.29524557 19.34798957 -23.87176259 20.02612243 -20.625 20.6875 C-12.91375568 19.22502263 -7.53748908 14.28530282 -3.15234375 7.96875 C-1.6578125 5.41538135 -0.7163134 2.8652536 0 0 Z " fill="#B3322F" transform="translate(204,324)"/>
<path d="M0 0 C1.88801786 0.82499348 3.76248374 1.68144446 5.625 2.5625 C15.29397609 6.65731729 23.97906513 5.17087951 34 3 C33.44570313 4.09699219 32.89140625 5.19398438 32.3203125 6.32421875 C31.58843442 7.77859187 30.85666955 9.23302196 30.125 10.6875 C29.76019531 11.40873047 29.39539063 12.12996094 29.01953125 12.87304688 C27.1820758 16.53125364 25.43861498 20.1611695 24 24 C10.3568532 18.85482563 10.3568532 18.85482563 4.1953125 15.69921875 C-3.18108442 13.34979695 -8.77064864 16.33136509 -15.3125 19.5 C-17.09883604 20.34676143 -18.88653151 21.19066287 -20.67578125 22.03125 C-21.45864502 22.40830078 -22.24150879 22.78535156 -23.0480957 23.17382812 C-25 24 -25 24 -27 24 C-27.48919922 22.67935547 -27.48919922 22.67935547 -27.98828125 21.33203125 C-28.42527344 20.17058594 -28.86226562 19.00914062 -29.3125 17.8125 C-29.74175781 16.66394531 -30.17101562 15.51539063 -30.61328125 14.33203125 C-31.85821463 11.34068429 -33.32736856 8.76155865 -35 6 C-35 5.34 -35 4.68 -35 4 C-33.25976562 4.08701172 -33.25976562 4.08701172 -31.484375 4.17578125 C-22.52493283 4.48227584 -15.60420972 4.32172206 -7.48046875 -0.00390625 C-4.41805584 -1.23369411 -3.11592018 -1.00171777 0 0 Z " fill="#D88C2D" transform="translate(261,247)"/>
<path d="M0 0 C0.54527344 0.37511719 1.09054687 0.75023437 1.65234375 1.13671875 C2.40644531 1.64847656 3.16054688 2.16023437 3.9375 2.6875 C4.75605469 3.24566406 5.57460938 3.80382812 6.41796875 4.37890625 C8.81352744 5.8829257 11.17294447 6.97723577 13.75 8.125 C18.67077333 10.8221249 19.68283304 14.20426985 21.4765625 19.34375 C23.73933503 24.77440406 26.969266 29.55047728 30.25537109 34.41674805 C33.68472724 39.71564116 34.72502872 43.68190986 35 50 C33.02 50 31.04 50 29 50 C30.98 49.505 30.98 49.505 33 49 C32.44570313 48.10796875 31.89140625 47.2159375 31.3203125 46.296875 C30.58845201 45.11463883 29.85668616 43.93234407 29.125 42.75 C28.76019531 42.16347656 28.39539063 41.57695312 28.01953125 40.97265625 C24.28756622 34.9336583 22.70080375 31.00803753 22 24 C21.26523437 23.87882812 20.53046875 23.75765625 19.7734375 23.6328125 C13.53214736 22.20874348 8.58738438 18.8686761 4.375 14.125 C2.77679534 12.30658514 2.77679534 12.30658514 1 11 C-2.71307604 10.89864511 -2.71307604 10.89864511 -6 12 C-6.99 12 -7.98 12 -9 12 C-7.68858144 10.18671738 -6.37583526 8.37439486 -5.0625 6.5625 C-3.96615234 5.04849609 -3.96615234 5.04849609 -2.84765625 3.50390625 C-1 1 -1 1 0 0 Z " fill="#D36342" transform="translate(307,247)"/>
<path d="M0 0 C5.6249793 4.38748386 9.30620592 8.91132843 13 15 C11 16 11 16 9.01171875 15.40625 C7.4690188 14.80472666 5.92733842 14.20058152 4.38671875 13.59375 C1.45801748 12.86516965 -0.14132448 13.03811861 -3 14 C-5.30930298 15.72412592 -5.30930298 15.72412592 -7.4375 17.875 C-11.55705287 21.69980948 -15.13533719 25 -21 25 C-20.65818124 20.19012177 -20.20110135 15.10337334 -16.54833984 11.61279297 C-13.62441241 9.45400542 -10.52903514 7.68509563 -7.34765625 5.9375 C-4.34180688 4.19782522 -2.29185106 2.57330645 0 0 Z " fill="#D56442" transform="translate(209,245)"/>
<path d="M0 0 C0.83265381 0.00523682 1.66530762 0.01047363 2.52319336 0.01586914 C3.42231445 0.0190918 4.32143555 0.02231445 5.24780273 0.02563477 C6.66609375 0.03820312 6.66609375 0.03820312 8.11303711 0.05102539 C9.06243164 0.05553711 10.01182617 0.06004883 10.98999023 0.06469727 C13.34356776 0.07652429 15.69702188 0.09300514 18.05053711 0.11352539 C18.45422508 6.71335428 16.20469544 9.30966457 12.05053711 14.11352539 C11.20491211 15.12415039 10.35928711 16.13477539 9.48803711 17.17602539 C7.05053711 19.11352539 7.05053711 19.11352539 4.48803711 19.48852539 C0.4511218 17.21129111 -0.60090985 13.40071642 -1.94946289 9.11352539 C-2.53858323 6.37799763 -2.79883635 3.9252208 -2.94946289 1.11352539 C-1.94946289 0.11352539 -1.94946289 0.11352539 0 0 Z " fill="#D97951" transform="translate(178.949462890625,317.886474609375)"/>
<path d="M0 0 C2.93902349 -0.13481759 5.87189559 -0.23399416 8.8125 -0.3125 C10.06256836 -0.3753418 10.06256836 -0.3753418 11.33789062 -0.43945312 C13.6580116 -0.4860419 15.72715541 -0.47360485 18 0 C20.29545477 2.6141483 21.05787323 3.90040871 20.875 7.375 C18 16 18 16 15 19 C10.81151953 18.85041141 7.77119173 15.89006322 5 13 C1.97518583 8.90648178 0.71205308 5.01257166 0 0 Z " fill="#D97951" transform="translate(322,318)"/>
<path d="M0 0 C2.57213966 2.28552981 3.7642843 4.42277451 5.125 7.5625 C10.94124342 19.40209342 20.38896372 26.67644214 32.5625 31.375 C37.35182445 32.24578626 42.14641017 32.66648026 47 33 C47 33.33 47 33.66 47 34 C32.60762504 34.4821267 21.71769782 33.35313996 10 24 C3.843782 17.66847931 -1.87668522 9.98651822 -3 1 C-2.01 0.67 -1.02 0.34 0 0 Z " fill="#D16544" transform="translate(213,200)"/>
<path d="M0 0 C3.15998545 1.05332848 5.14745336 2.68060155 7.625 4.875 C7.02494141 4.82279297 6.42488281 4.77058594 5.80664062 4.71679688 C-1.45145086 4.36315437 -6.44315163 6.16870433 -12.875 9.375 C-14.63409543 10.22150113 -16.39445054 11.06539117 -18.15625 11.90625 C-18.92001953 12.28330078 -19.68378906 12.66035156 -20.47070312 13.04882812 C-22.375 13.875 -22.375 13.875 -24.375 13.875 C-24.705 11.565 -25.035 9.255 -25.375 6.875 C-24.68535156 6.84921875 -23.99570313 6.8234375 -23.28515625 6.796875 C-15.45651215 6.32436424 -6.65840666 -0.35044246 0 0 Z " fill="#EEA637" transform="translate(258.375,257.125)"/>
<path d="M0 0 C0.66 0 1.32 0 2 0 C3.95826696 2.45873648 5.46383227 5.23536713 7.0625 7.9375 C7.52205078 8.67291016 7.98160156 9.40832031 8.45507812 10.16601562 C11.64937212 15.53674488 12.69626156 19.75786512 13 26 C11.02 26 9.04 26 7 26 C8.32 25.67 9.64 25.34 11 25 C10.44570313 24.10796875 9.89140625 23.2159375 9.3203125 22.296875 C8.58845201 21.11463883 7.85668616 19.93234407 7.125 18.75 C6.76019531 18.16347656 6.39539063 17.57695312 6.01953125 16.97265625 C2.28756622 10.9336583 0.70080375 7.00803753 0 0 Z " fill="#C75E3F" transform="translate(329,271)"/>
<path d="M0 0 C1.84304292 3.68608583 -0.42401575 7.69723995 -1.609375 11.4453125 C-3.6971528 16.78204788 -6.68337602 21.35113661 -10 26 C-7.69 26 -5.38 26 -3 26 C-3 26.33 -3 26.66 -3 27 C-5.97 27 -8.94 27 -12 27 C-12.62955267 16.88218921 -5.66057124 7.94888728 0 0 Z " fill="#C55E3E" transform="translate(187,270)"/>
<path d="M0 0 C11.52164009 -0.18451025 11.52164009 -0.18451025 17 1 C16.67 2.98 16.34 4.96 16 7 C10.72 6.67 5.44 6.34 0 6 C0 4.02 0 2.04 0 0 Z " fill="#5F5F5F" transform="translate(382,309)"/>
<path d="M0 0 C0 1.65 0 3.3 0 5 C-1.91595482 5.33740085 -3.83279722 5.66976412 -5.75 6 C-7.35101563 6.2784375 -7.35101563 6.2784375 -8.984375 6.5625 C-12 7 -12 7 -16 7 C-16 5.02 -16 3.04 -16 1 C-10.61509359 0.08342019 -5.45769811 -0.11138159 0 0 Z " fill="#646464" transform="translate(137,309)"/>
<path d="M0 0 C5.61 0.66 11.22 1.32 17 2 C16.67 3.98 16.34 5.96 16 8 C13.89216499 7.23925498 11.78883243 6.46602644 9.6875 5.6875 C8.51574219 5.25824219 7.34398437 4.82898438 6.13671875 4.38671875 C3 3 3 3 0 0 Z " fill="#EDA637" transform="translate(269,263)"/>
</svg>
