<?xml version="1.0" encoding="UTF-8"?>
<svg version="1.1" xmlns="http://www.w3.org/2000/svg" width="512" height="512">
  <style>
    path { fill: #a855f7; }
  </style>
<path d="M0 0 C7.26856284 5.66255657 9.65386394 12.66693706 11.05078125 21.59765625 C11.23918733 24.32745094 11.20875191 26.85949812 11.05078125 29.59765625 C12.04078125 29.92765625 13.03078125 30.25765625 14.05078125 30.59765625 C16.40070461 35.29750298 15.83673414 42.2137233 14.2265625 47.09765625 C12.81054433 49.96127665 11.31365739 52.33478011 9.05078125 54.59765625 C7.42951486 59.8691423 6.31239752 65.25833479 8.05078125 70.59765625 C15.51488018 81.02342747 27.96837808 87.60971264 38.7890625 94.0546875 C39.49369629 94.4770166 40.19833008 94.8993457 40.92431641 95.33447266 C42.36359365 96.1894463 43.81156481 97.02992344 45.26708984 97.85693359 C50.38006705 100.85049363 53.06313493 103.30718151 54.81640625 109.1484375 C56.33180575 117.78865885 56.05192398 125.94430079 55.05078125 134.59765625 C54.93347656 135.65210938 54.81617188 136.7065625 54.6953125 137.79296875 C53.01897721 147.24598733 47.10772709 153.55676865 41.05078125 160.59765625 C32.91028287 170.20752593 25.15378016 179.52638687 19.05078125 190.59765625 C18.59960938 191.30148438 18.1484375 192.0053125 17.68359375 192.73046875 C14.75365637 197.88311725 14.67704245 203.05335738 14.61328125 208.84765625 C14.60296875 209.60965332 14.59265625 210.37165039 14.58203125 211.15673828 C14.77931371 224.24040117 19.51063111 235.94912707 24.42578125 247.84765625 C32.21712843 266.74987226 38.46573451 285.09119812 38.36328125 305.78515625 C38.36134766 307.44889282 38.36134766 307.44889282 38.359375 309.14624023 C38.24511359 319.2648025 37.11380627 329.15467039 35.70703125 339.1640625 C33.76632774 353.72379291 35.39836245 367.49076805 43.5703125 379.90625 C50.83636864 391.108853 52.68099714 402.91741156 52.35144043 416.07032013 C52.29904215 418.18341485 52.27400269 420.29547398 52.25488281 422.40911865 C52.20984027 426.88910699 52.13282234 431.36821279 52.05078125 435.84765625 C51.95558903 441.06307021 51.87437598 446.27798605 51.82702637 451.49407196 C51.80150858 453.55455128 51.75153632 455.61342927 51.70019531 457.67340088 C51.58218562 469.03525153 53.65159488 478.23530697 61.640625 486.59765625 C65.97236405 490.19222739 70.9461635 492.31493281 76.05078125 494.59765625 C79.85838972 496.53775485 82.61939771 497.95058094 85.05078125 501.59765625 C84.72664435 504.92005949 84.44301822 506.20541928 82.05078125 508.59765625 C80.0546875 508.85644531 80.0546875 508.85644531 77.61328125 508.86328125 C76.71738281 508.86585938 75.82148438 508.8684375 74.8984375 508.87109375 C73.95871094 508.86335937 73.01898438 508.855625 72.05078125 508.84765625 C71.14199219 508.85539063 70.23320312 508.863125 69.296875 508.87109375 C63.77300574 508.85537862 58.72069466 508.25616071 53.33251953 507.06103516 C50.22278731 506.42950597 47.15491927 506.28237737 43.98828125 506.16015625 C30.91267531 505.33402864 30.91267531 505.33402864 26.26953125 500.89453125 C24.57076552 497.69301121 25.17910309 495.71748114 25.73828125 492.16015625 C27.77024578 473.51320732 17.39493203 453.49167958 6.65234375 438.8984375 C-0.44447169 428.70325629 -2.31688991 419.28960625 -2.26171875 407.09765625 C-2.26115479 405.94378418 -2.26059082 404.78991211 -2.26000977 403.60107422 C-2.17720023 395.88625622 -1.4537619 388.81061713 0.4921875 381.35546875 C1.06406608 378.53206821 1.1949796 377.21217712 0.05078125 374.59765625 C-1.50347712 372.76153901 -1.50347712 372.76153901 -3.44921875 370.91015625 C-17.74455923 355.20577683 -22.2298571 333.2795155 -27.03393555 313.25366211 C-27.27023682 312.27147705 -27.50653809 311.28929199 -27.75 310.27734375 C-27.95794189 309.39804199 -28.16588379 308.51874023 -28.38012695 307.61279297 C-28.76650279 305.61760066 -28.76650279 305.61760066 -29.94921875 304.59765625 C-30.10890137 305.25846191 -30.26858398 305.91926758 -30.43310547 306.60009766 C-34.19008137 321.98392528 -38.50995257 336.95021484 -43.83544922 351.85791016 C-44.25455566 353.05851074 -44.67366211 354.25911133 -45.10546875 355.49609375 C-45.48509766 356.55489746 -45.86472656 357.61370117 -46.25585938 358.70458984 C-47.32135444 363.15040553 -46.29990194 366.3181393 -44.20703125 370.26953125 C-43.86285156 370.9346875 -43.51867187 371.59984375 -43.1640625 372.28515625 C-42.44565948 373.64471465 -41.7269174 375.00409396 -41.0078125 376.36328125 C-36.2656794 385.53022999 -34.44015567 393.16920722 -34.57421875 403.53515625 C-34.58001953 404.63327637 -34.58582031 405.73139648 -34.59179688 406.86279297 C-34.70769565 414.22129227 -35.48616162 421.19522863 -36.86816406 428.40966797 C-40.21186049 446.14915714 -36.04591457 463.15070673 -31.57543945 480.29150391 C-30.03180027 486.41052978 -28.53708858 492.50441873 -31.26171875 498.47265625 C-32.94921875 500.59765625 -32.94921875 500.59765625 -35.94921875 502.59765625 C-38.85605468 502.71659864 -41.67255922 502.73460287 -44.57421875 502.66015625 C-55.34212624 502.37899709 -55.34212624 502.37899709 -65.8046875 504.59765625 C-75.23500113 507.59661313 -89.28735907 508.48494281 -98.69921875 505.34765625 C-100.94921875 503.59765625 -100.94921875 503.59765625 -102.01171875 501.72265625 C-101.91739401 498.5156151 -100.95403695 497.103679 -98.94921875 494.59765625 C-94.6650314 491.49845689 -90.97785692 490.29484411 -85.82421875 489.16015625 C-80.74972089 487.99251682 -78.29335524 486.72864838 -74.94921875 482.59765625 C-73.40234375 481.39109375 -73.40234375 481.39109375 -71.82421875 480.16015625 C-68.67123537 477.34988845 -67.25983229 475.60659179 -65.94921875 471.59765625 C-66.17851013 463.45781224 -69.00908471 456.91127049 -72.13671875 449.47265625 C-77.18794394 437.0557038 -81.17669715 424.73026521 -83.94921875 411.59765625 C-84.09166016 410.92371826 -84.23410156 410.24978027 -84.38085938 409.55541992 C-88.20153858 391.35638681 -91.29421368 373.52606492 -92.1003418 354.92260742 C-92.70226262 343.94397644 -95.33721745 333.79060362 -98.390625 323.265625 C-107.04103971 293.14019677 -95.05134917 260.22874968 -82.83203125 232.83984375 C-76.86494139 219.15392185 -74.21070986 205.31730278 -71.94921875 190.59765625 C-73.86805505 189.9518325 -75.78743005 189.30760916 -77.70703125 188.6640625 C-79.31022217 188.12567749 -79.31022217 188.12567749 -80.94580078 187.57641602 C-85.84981895 185.96553787 -85.84981895 185.96553787 -90.94921875 185.59765625 C-94.10770658 187.92417133 -94.10770658 187.92417133 -96.94921875 190.59765625 C-99.26171875 191.41015625 -99.26171875 191.41015625 -101.94921875 191.59765625 C-102.65433594 191.64792969 -103.35945312 191.69820312 -104.0859375 191.75 C-108.9072268 191.94922683 -112.1037587 191.80220629 -115.94921875 188.59765625 C-122.26296527 182.13358243 -124.55957511 175.05974937 -125.12890625 166.07421875 C-124.94921875 163.59765625 -124.94921875 163.59765625 -123.07421875 160.78515625 C-122.04296875 160.06328125 -121.01171875 159.34140625 -119.94921875 158.59765625 C-119.24667969 158.08460938 -118.54414063 157.5715625 -117.8203125 157.04296875 C-109.70994236 151.30670019 -109.70994236 151.30670019 -104.94921875 150.59765625 C-100.99686362 151.42202662 -97.85645848 152.46893076 -95.28515625 155.66796875 C-91.72460606 158.60929282 -88.18819946 158.27050189 -83.69921875 158.34765625 C-82.85875 158.37730469 -82.01828125 158.40695313 -81.15234375 158.4375 C-79.08514725 158.50797261 -77.01717842 158.55510564 -74.94921875 158.59765625 C-75.28695312 157.74042969 -75.6246875 156.88320312 -75.97265625 156 C-78.21592026 150.2492047 -80.41849896 144.58137905 -81.94921875 138.59765625 C-82.61308594 138.94699219 -83.27695313 139.29632813 -83.9609375 139.65625 C-84.84394531 140.11128906 -85.72695312 140.56632813 -86.63671875 141.03515625 C-87.50683594 141.48761719 -88.37695312 141.94007813 -89.2734375 142.40625 C-101.32352778 147.77161866 -115.71672826 143.28826646 -127.63671875 139.53515625 C-133.39530535 137.80432683 -138.86593688 137.12836734 -144.82421875 136.66015625 C-168.71142203 134.66411769 -189.10806822 123.1612131 -206.94921875 107.59765625 C-210.75256262 104.93797522 -214.65329714 105.57169248 -219.07421875 105.78515625 C-226.32228109 105.95335697 -232.09158844 105.31873143 -237.94921875 100.59765625 C-240.67132729 97.17557694 -241.16623442 94.59817015 -240.94921875 90.34765625 C-239.44164035 80.90545471 -234.2861834 73.54891187 -226.94921875 67.59765625 C-223.14038055 65.31384116 -219.3130484 64.84190922 -214.94921875 65.59765625 C-210.16546319 67.70575192 -208.6760012 70.40828045 -206.44921875 75.03515625 C-203.86514764 80.3922282 -201.50066857 83.96609911 -195.9765625 86.50390625 C-189.40936857 88.36972583 -182.7635616 89.62144288 -176.06396484 90.90185547 C-169.45203039 92.20515182 -162.98699396 93.85887994 -156.51171875 95.72265625 C-155.6302417 95.97635986 -154.74876465 96.23006348 -153.84057617 96.49145508 C-150.5160717 97.46932652 -147.3326457 98.42664675 -144.1640625 99.83984375 C-141.33446444 100.80799547 -139.77894328 100.49533054 -136.94921875 99.59765625 C-135.02173268 98.55972804 -135.02173268 98.55972804 -133.13671875 97.28515625 C-124.16143533 92.14368594 -113.6669163 90.67947058 -103.51171875 89.72265625 C-97.60402006 89.14213912 -93.71606444 87.73737222 -88.984375 84.12890625 C-80.15914748 77.48881184 -69.53535644 77.51215625 -58.94921875 78.59765625 C-56.15654781 79.22354109 -53.63509095 79.95590535 -50.9921875 81.0390625 C-46.57774901 82.24606958 -42.11819731 80.0519511 -37.94921875 78.59765625 C-38.33802004 70.11743063 -38.33802004 70.11743063 -41.94921875 62.59765625 C-42.74165007 60.31022563 -43.43837385 58.0104843 -44.10546875 55.68359375 C-45.04087778 53.37105476 -46.18961086 52.32476479 -47.94921875 50.59765625 C-49.81654648 44.89739264 -51.77458869 37.24839613 -48.94921875 31.59765625 C-47.95921875 31.59765625 -46.96921875 31.59765625 -45.94921875 31.59765625 C-45.995625 30.46328125 -46.04203125 29.32890625 -46.08984375 28.16015625 C-46.56323254 11.92634065 -46.56323254 11.92634065 -40.51171875 4.9375 C-30.47001565 -4.88695471 -12.07864071 -7.2877849 0 0 Z M-36.94921875 9.59765625 C-42.49064927 17.25896288 -41.08907684 27.55349969 -40.94921875 36.59765625 C-41.93921875 36.92765625 -42.92921875 37.25765625 -43.94921875 37.59765625 C-43.83463182 39.03602376 -43.70712759 40.47336591 -43.57421875 41.91015625 C-43.46980469 43.11091797 -43.46980469 43.11091797 -43.36328125 44.3359375 C-43.05357449 46.86990066 -43.05357449 46.86990066 -40.94921875 49.59765625 C-40.28921875 49.59765625 -39.62921875 49.59765625 -38.94921875 49.59765625 C-38.67658203 50.82742187 -38.67658203 50.82742187 -38.3984375 52.08203125 C-38.02138672 53.69851562 -38.02138672 53.69851562 -37.63671875 55.34765625 C-37.39308594 56.415 -37.14945313 57.48234375 -36.8984375 58.58203125 C-36.15895131 61.57863201 -36.15895131 61.57863201 -34.40234375 63.5 C-31.56912963 67.58988167 -31.84790774 72.87774968 -32.0703125 77.70703125 C-32.94921875 81.59765625 -32.94921875 81.59765625 -35.421875 84.23828125 C-39.72278518 86.86039749 -42.97946046 88.75367671 -48.10546875 88.34765625 C-50.47738601 87.72209565 -52.57921421 86.99929721 -54.82421875 86.03515625 C-64.98017247 82.59275035 -75.6709205 83.66977094 -85.30078125 88.015625 C-88.10819518 89.54929335 -88.10819518 89.54929335 -90.5546875 92.17578125 C-94.8526272 95.87916342 -100.19597302 95.72717895 -105.63671875 96.16015625 C-116.20826105 97.05717587 -126.75030928 98.16043204 -134.12109375 106.5234375 C-137.1710999 108.31564197 -139.5864435 107.33995263 -142.94921875 106.59765625 C-145.69242261 105.7736454 -148.37923525 104.81630289 -151.07421875 103.84765625 C-162.54811033 99.87827755 -174.34427792 96.93453502 -186.296875 94.796875 C-194.78323764 93.27629551 -203.14738169 91.50770938 -208.94921875 84.59765625 C-210.06895581 82.09471459 -210.96475418 79.55415704 -211.88671875 76.97265625 C-212.970609 74.54984276 -213.86839662 73.2236253 -215.94921875 71.59765625 C-219.49197539 71.05854111 -221.33027797 71.2417653 -224.44921875 73.03515625 C-229.60493773 78.31976821 -234.12404617 84.76450257 -235.38671875 92.16015625 C-235.15004116 94.83911675 -235.15004116 94.83911675 -232.63671875 96.84765625 C-228.58335471 99.48705609 -225.85423318 99.62882334 -221.09887695 99.42895508 C-213.03231568 99.14064716 -207.45730907 99.42684476 -200.94921875 104.59765625 C-200.45421875 104.98953125 -199.95921875 105.38140625 -199.44921875 105.78515625 C-197.10936895 107.63937685 -194.77449717 109.49976826 -192.44360352 111.36523438 C-177.76288262 122.98006267 -161.70654528 129.4699195 -143.06201172 130.69628906 C-134.28561279 131.39301565 -126.01325935 133.7340115 -117.58813477 136.21069336 C-107.80051355 138.98759868 -98.30639855 140.55894136 -88.9140625 135.8203125 C-86.99162719 134.6240456 -85.33856422 133.33730154 -83.63671875 131.84765625 C-80.94921875 129.59765625 -80.94921875 129.59765625 -76.94921875 129.59765625 C-76.79066406 130.54125 -76.63210938 131.48484375 -76.46875 132.45703125 C-74.90665888 141.05284759 -72.6976709 148.64145545 -68.94921875 156.59765625 C-64.54802129 155.98889249 -61.27917618 154.3216606 -57.38671875 152.22265625 C-41.45106275 143.93274696 -23.52098009 143.13144413 -5.94921875 145.59765625 C-5.7790625 144.54707031 -5.60890625 143.49648437 -5.43359375 142.4140625 C-3.72942307 132.36029382 -2.00673286 123.41133259 5.05078125 115.59765625 C6.37078125 115.92765625 7.69078125 116.25765625 9.05078125 116.59765625 C7.92970635 119.85896506 6.47205092 122.51392518 4.55078125 125.34765625 C-0.47734445 133.28913714 -0.4110843 142.43520912 -0.94921875 151.59765625 C-1.69042969 151.45328125 -2.43164062 151.30890625 -3.1953125 151.16015625 C-24.8205253 147.34861324 -43.9001695 149.50806889 -62.94921875 160.59765625 C-63.55378906 161.12222412 -64.15835938 161.64679199 -64.78125 162.18725586 C-69.22692244 165.07944614 -75.05798814 164.15199557 -80.19921875 164.16015625 C-81.40191406 164.19689453 -82.60460937 164.23363281 -83.84375 164.27148438 C-90.78628198 164.30577789 -95.14262813 163.85092246 -100.29199219 158.98803711 C-102.18862694 157.39679744 -103.51078914 156.92882409 -105.94921875 156.59765625 C-110.92794784 158.6762509 -115.62023451 162.4095793 -118.94921875 166.59765625 C-118.94452669 168.69996866 -118.94452669 168.69996866 -117.94921875 170.59765625 C-117.73265625 171.52578125 -117.73265625 171.52578125 -117.51171875 172.47265625 C-117.32609375 173.17390625 -117.14046875 173.87515625 -116.94921875 174.59765625 C-116.70171875 175.56703125 -116.45421875 176.53640625 -116.19921875 177.53515625 C-114.65695844 181.313694 -113.23893099 183.16612981 -109.94921875 185.59765625 C-105.37114194 186.49659036 -101.03247006 185.8661292 -96.94921875 183.59765625 C-96.3665625 182.9015625 -95.78390625 182.20546875 -95.18359375 181.48828125 C-92.94921875 179.59765625 -92.94921875 179.59765625 -90.13671875 179.50390625 C-73.21664615 182.65568448 -73.21664615 182.65568448 -66.046875 186.66015625 C-53.67294038 192.19040636 -35.23489723 189.05397819 -22.94921875 184.59765625 C-15.91951214 181.81952491 -9.71685787 178.46031827 -4.07421875 173.41015625 C0.52853595 169.47140551 5.10591033 168.32218813 10.87304688 167.09375 C23.57655 164.29730623 35.26527311 157.6853145 42.92578125 146.9765625 C49.88269295 135.72175103 51.4550175 123.68808084 49.01171875 110.7109375 C46.30967271 104.76863299 40.55429766 101.92932794 35.11328125 98.91015625 C23.81982634 92.44036717 12.66265728 85.5170946 4.05078125 75.59765625 C3.37015625 74.83453125 2.68953125 74.07140625 1.98828125 73.28515625 C0.39494798 68.71760087 1.3162845 64.30101262 2.05078125 59.59765625 C2.17710937 58.75976562 2.3034375 57.921875 2.43359375 57.05859375 C3.32375862 52.21933381 4.60360674 49.26722912 8.05078125 45.59765625 C9.19431041 43.31059794 9.15412564 42.00500863 9.11328125 39.47265625 C9.08234375 37.55453125 9.08234375 37.55453125 9.05078125 35.59765625 C7.73078125 35.26765625 6.41078125 34.93765625 5.05078125 34.59765625 C5.08558594 33.69144531 5.12039063 32.78523438 5.15625 31.8515625 C5.35243401 23.02328215 5.21461737 15.46555241 -0.26171875 8.22265625 C-10.9379827 -2.20532249 -26.15028322 0.96240636 -36.94921875 9.59765625 Z M20.67578125 169.41015625 C16.81179496 171.01922259 13.1523571 172.03687963 9.05078125 172.84765625 C3.33307586 174.18445141 0.16869871 176.66512546 -4.1953125 180.46875 C-19.99577561 192.68329241 -41.02546037 194.75748676 -60.26953125 193.08984375 C-61.33703613 192.99815918 -62.40454102 192.90647461 -63.50439453 192.81201172 C-64.31118652 192.74127441 -65.11797852 192.67053711 -65.94921875 192.59765625 C-66.78724788 196.70087865 -67.61883753 200.80537987 -68.44921875 204.91015625 C-68.68769531 206.07740234 -68.92617188 207.24464844 -69.171875 208.44726562 C-69.51025391 210.1246582 -69.51025391 210.1246582 -69.85546875 211.8359375 C-70.16967773 213.38341675 -70.16967773 213.38341675 -70.49023438 214.9621582 C-71.03500488 217.64438091 -71.03500488 217.64438091 -70.94921875 220.59765625 C-44.54921875 220.59765625 -18.14921875 220.59765625 9.05078125 220.59765625 C9.05078125 213.66765625 9.05078125 206.73765625 9.05078125 199.59765625 C11.95541842 187.60024186 19.79485893 177.42826069 27.05078125 167.59765625 C24.53488229 167.59765625 22.98841489 168.41100871 20.67578125 169.41015625 Z M-72.94921875 226.59765625 C-73.60921875 228.24765625 -74.26921875 229.89765625 -74.94921875 231.59765625 C-63.06921875 231.59765625 -51.18921875 231.59765625 -38.94921875 231.59765625 C-39.27921875 233.24765625 -39.60921875 234.89765625 -39.94921875 236.59765625 C-58.75921875 237.09265625 -58.75921875 237.09265625 -77.94921875 237.59765625 C-78.27921875 238.91765625 -78.60921875 240.23765625 -78.94921875 241.59765625 C-67.39921875 241.92765625 -55.84921875 242.25765625 -43.94921875 242.59765625 C-43.45421875 244.57765625 -43.45421875 244.57765625 -42.94921875 246.59765625 C-55.81921875 246.92765625 -68.68921875 247.25765625 -81.94921875 247.59765625 C-82.27921875 248.91765625 -82.60921875 250.23765625 -82.94921875 251.59765625 C-81.87027344 252.2525 -80.79132813 252.90734375 -79.6796875 253.58203125 C-71.48122568 258.5687817 -63.31255211 263.5984022 -55.19921875 268.72265625 C-54.01598022 269.46696899 -54.01598022 269.46696899 -52.80883789 270.22631836 C-49.10746815 272.56287285 -45.43537926 274.92807757 -41.81640625 277.390625 C-41.18057617 277.81778809 -40.54474609 278.24495117 -39.88964844 278.68505859 C-38.19595144 279.82800797 -36.51352009 280.98760243 -34.83203125 282.1484375 C-31.4273226 283.86001868 -30.51853073 283.61020301 -26.94921875 282.59765625 C-24.87826436 281.62979331 -24.87826436 281.62979331 -22.89453125 280.3671875 C-22.12560547 279.90054688 -21.35667969 279.43390625 -20.56445312 278.953125 C-19.74267578 278.44394531 -18.92089844 277.93476563 -18.07421875 277.41015625 C-17.21376953 276.88421875 -16.35332031 276.35828125 -15.46679688 275.81640625 C-13.61072868 274.68177329 -11.75629483 273.54446342 -9.90332031 272.40478516 C-6.83340654 270.5268098 -3.74887833 268.67498484 -0.66015625 266.828125 C1.41023318 265.5847635 3.48054727 264.34127655 5.55078125 263.09765625 C6.53546387 262.51089111 7.52014648 261.92412598 8.53466797 261.31958008 C9.91936279 260.48269653 9.91936279 260.48269653 11.33203125 259.62890625 C12.14736328 259.13970703 12.96269531 258.65050781 13.80273438 258.14648438 C16.5054369 256.38448183 16.5054369 256.38448183 20.05078125 252.59765625 C16.75078125 244.01765625 13.45078125 235.43765625 10.05078125 226.59765625 C-17.33921875 226.59765625 -44.72921875 226.59765625 -72.94921875 226.59765625 Z M-85.94921875 256.59765625 C-94.4497623 280.58733251 -98.40007638 303.91334015 -90.94921875 328.59765625 C-90.38078585 330.61682877 -89.81760684 332.63749413 -89.26171875 334.66015625 C-89.03097656 335.45550781 -88.80023438 336.25085938 -88.5625 337.0703125 C-87.37493659 341.96428398 -86.90766521 346.83388082 -86.66015625 351.8515625 C-84.96075993 385.39640304 -78.41516101 419.58700594 -65.26953125 450.57421875 C-61.7092638 459.0196263 -58.99413204 466.21444025 -60.63671875 475.47265625 C-63.85479636 482.67292121 -71.02878806 489.54120294 -77.97265625 493.18359375 C-80.61645938 494.14695215 -83.21731945 494.93015335 -85.94921875 495.59765625 C-89.94864339 496.8117673 -92.12728994 497.57064541 -94.94921875 500.59765625 C-79.91651052 500.89921936 -79.91651052 500.89921936 -65.20751953 498.08398438 C-62.40872794 497.48126082 -59.73265842 497.37944094 -56.87109375 497.28125 C-55.13085938 497.2184082 -55.13085938 497.2184082 -53.35546875 497.15429688 C-52.14890625 497.11498047 -50.94234375 497.07566406 -49.69921875 497.03515625 C-47.86617187 496.97038086 -47.86617187 496.97038086 -45.99609375 496.90429688 C-42.98057955 496.7982827 -39.96498427 496.69621689 -36.94921875 496.59765625 C-34.48671106 491.67264086 -36.18858143 485.76194692 -37.4453125 480.66796875 C-37.59831314 480.0333371 -37.75131378 479.39870544 -37.90895081 478.74484253 C-38.39405044 476.7355342 -38.8893765 474.72896634 -39.38671875 472.72265625 C-43.19549504 457.27397484 -45.75159706 442.68380101 -42.44921875 426.84765625 C-38.43076327 406.41612754 -39.27230328 387.594528 -50.88671875 369.97265625 C-53.34896317 365.94352901 -53.33712637 364.25733667 -52.94921875 359.59765625 C-52.15361756 356.78239622 -51.05689931 354.11539633 -49.94921875 351.41015625 C-45.0371199 338.74531843 -41.46874504 325.70601961 -37.94921875 312.59765625 C-37.66175781 311.52870117 -37.37429688 310.45974609 -37.078125 309.35839844 C-36.30562903 306.44305779 -35.55824731 303.52289214 -34.82421875 300.59765625 C-34.48753174 299.30819092 -34.48753174 299.30819092 -34.14404297 297.99267578 C-33.95342285 297.20231934 -33.76280273 296.41196289 -33.56640625 295.59765625 C-33.39737793 294.91703125 -33.22834961 294.23640625 -33.05419922 293.53515625 C-32.91253323 290.92059508 -33.47143523 289.75618614 -34.94921875 287.59765625 C-37.10421399 285.87429451 -37.10421399 285.87429451 -39.7265625 284.34765625 C-40.70641113 283.74477783 -41.68625977 283.14189941 -42.69580078 282.52075195 C-43.74880371 281.88613037 -44.80180664 281.25150879 -45.88671875 280.59765625 C-48.07058833 279.25826213 -50.25417842 277.91841222 -52.4375 276.578125 C-53.53143066 275.91087402 -54.62536133 275.24362305 -55.75244141 274.55615234 C-60.38688976 271.7168714 -64.98275252 268.81825337 -69.57421875 265.91015625 C-70.33597412 265.42998047 -71.09772949 264.94980469 -71.88256836 264.45507812 C-75.07430413 262.43962331 -78.23895571 260.40719511 -81.34765625 258.265625 C-83.7147725 256.41774457 -83.7147725 256.41774457 -85.94921875 256.59765625 Z M21.05078125 259.59765625 C18.39981206 260.88793798 18.39981206 260.88793798 15.3984375 262.796875 C14.83045944 263.14358246 14.26248138 263.49028992 13.67729187 263.84750366 C11.81769274 264.98556981 9.96549559 266.13511747 8.11328125 267.28515625 C6.84378044 268.06560211 5.5739222 268.84546683 4.30371094 269.62475586 C-5.83708811 275.85862297 -15.91933887 282.18693253 -25.94921875 288.59765625 C-25.34729278 294.07774645 -24.42760263 299.31069951 -23.09375 304.65625 C-22.90963058 305.40366959 -22.72551117 306.15108917 -22.53581238 306.92115784 C-22.14568603 308.49743884 -21.75309576 310.0731119 -21.3581543 311.64819336 C-20.77158884 313.9956557 -20.19884902 316.34619295 -19.62695312 318.69726562 C-14.98425237 337.48879145 -9.52907606 358.10494711 5.265625 371.62109375 C7.05078125 373.59765625 7.05078125 373.59765625 6.98828125 377.28515625 C6.7069271 379.06120433 6.38810651 380.83138373 6.05078125 382.59765625 C2.23970596 402.57473299 1.57384053 418.47595595 12.05078125 436.59765625 C13.17073866 438.19939714 14.31518024 439.78441843 15.48828125 441.34765625 C25.93116362 455.73302005 33.82411657 476.56972857 31.4453125 494.421875 C31.31511719 495.13988281 31.18492187 495.85789062 31.05078125 496.59765625 C35.18313372 499.55496956 38.2665129 499.99959831 43.30078125 500.16015625 C47.41220894 500.33764923 51.37376653 500.51104886 55.36328125 501.59765625 C62.67890498 503.49745001 70.53618353 503.28961449 78.05078125 503.59765625 C75.84628316 501.12889656 73.93458086 499.97562459 70.86328125 498.78515625 C66.60060094 496.99510912 63.25067723 494.684036 59.6796875 491.76953125 C58.11463691 490.40299059 58.11463691 490.40299059 56.05078125 490.59765625 C55.77105469 490.01113281 55.49132812 489.42460937 55.203125 488.8203125 C54.13232544 486.75493979 52.93658459 484.94384611 51.61328125 483.03515625 C46.20492525 474.34375586 45.60325029 465.04039843 45.80078125 455.03515625 C45.8172168 453.33214355 45.8172168 453.33214355 45.83398438 451.59472656 C45.9383332 443.57120952 46.31508465 435.58063807 46.8203125 427.57421875 C47.7341187 411.80718971 46.91334796 397.64610277 38.859375 383.76953125 C38.46113525 383.08213867 38.06289551 382.39474609 37.65258789 381.68652344 C36.85844317 380.33434388 36.04985985 378.99049849 35.22436523 377.65722656 C29.75548387 368.45845435 29.71862464 358.81748882 29.80078125 348.34765625 C29.80464844 347.14036865 29.80851562 345.93308105 29.8125 344.68920898 C29.86864786 338.92196573 30.030665 333.35094761 31.05078125 327.66015625 C34.06689899 310.28469537 33.34513844 291.43879404 28.05078125 274.59765625 C27.83695801 273.90881348 27.62313477 273.2199707 27.40283203 272.51025391 C26.12030188 268.47118445 24.80565471 264.45957164 23.05078125 260.59765625 C22.39078125 260.26765625 21.73078125 259.93765625 21.05078125 259.59765625 Z " fill="#000000" transform="translate(333.94921875,3.40234375)"/>
<path d="M0 0 C3 1 3 1 4.28125 3.08203125 C12.34280035 21.14300464 15.27719528 41.94422862 9 61 C7.0625 61.5625 7.0625 61.5625 5 62 C4 61 4 61 3.875 57.75 C4 54 4 54 4.48828125 51.8125 C7.03161322 37.83388155 5.11005253 22.17051326 -0.625 9.19921875 C-1.94979698 6.11680759 -2.29956635 4.29522984 -2 1 C-1.34 0.67 -0.68 0.34 0 0 Z " fill="#a855f7" transform="translate(343,291)"/>
<path d="M0 0 C2.125 0.9375 2.125 0.9375 4 2 C3.82984375 2.55945313 3.6596875 3.11890625 3.484375 3.6953125 C2.64837156 6.46123878 1.82299457 9.23017373 1 12 C0.65195312 13.16660156 0.30390625 14.33320313 -0.0546875 15.53515625 C-0.40789062 16.74042969 -0.76109375 17.94570313 -1.125 19.1875 C-1.45757812 20.31542969 -1.79015625 21.44335938 -2.1328125 22.60546875 C-5.08493528 34.16130072 -4.77761687 46.10978949 -2.2421875 57.70703125 C-2.16226562 58.46371094 -2.08234375 59.22039062 -2 60 C-2.66 60.66 -3.32 61.32 -4 62 C-6.125 61.625 -6.125 61.625 -8 61 C-12.44821477 39.8974573 -11.24051967 20.7680198 -2 1 C-1.34 0.67 -0.68 0.34 0 0 Z " fill="#a855f7" transform="translate(267,291)"/>
<path d="M0 0 C2.5625 2.3125 2.5625 2.3125 4 4 C3.34 5.32 2.68 6.64 2 8 C-1.10403031 7.38880819 -3.16437002 6.362825 -5.75 4.5625 C-11.71404493 0.73400362 -17.88287173 -0.72377576 -25 0 C-29.80366893 1.40713534 -34.37820238 3.00929837 -38.66015625 5.625 C-41.34300135 7.2015634 -42.94158413 7.26214993 -46 7 C-46.2890625 4.69921875 -46.2890625 4.69921875 -46 2 C-33.38519347 -9.04418833 -13.43098267 -9.88874548 0 0 Z " fill="#a855f7" transform="translate(263,112)"/>
<path d="M0 0 C1.921875 0.71484375 1.921875 0.71484375 4 2 C7.92329941 11.78974239 6.43939193 23.3491689 3 33 C0.34997381 38.11729195 -2.88924518 43.1170101 -8 46 C-10.8125 45.75 -10.8125 45.75 -13 45 C-12.9375 42.875 -12.9375 42.875 -12 40 C-10.515625 38.71875 -10.515625 38.71875 -8.6875 37.375 C-3.90911114 33.52082627 -2.27532905 28.90031755 -1 23 C-0.48342751 17.21438812 -0.8791906 11.62049464 -1.625 5.875 C-1.74875 4.59625 -1.8725 3.3175 -2 2 C-1.34 1.34 -0.68 0.68 0 0 Z " fill="#a855f7" transform="translate(363,112)"/>
<path d="M0 0 C1.32 0.33 2.64 0.66 4 1 C3.97905273 1.57854736 3.95810547 2.15709473 3.93652344 2.75317383 C3.5644312 14.58829757 3.42250878 24.43309803 9.125 35.10546875 C10.22846445 37.49466633 10.14444011 39.400078 10 42 C8.515 42.495 8.515 42.495 7 43 C3.39952956 39.86782102 1.93373774 36.95968237 0.3125 32.5 C-0.10386719 31.3759375 -0.52023437 30.251875 -0.94921875 29.09375 C-2.6855729 23.98151028 -3.21031099 19.53262811 -3.25 14.125 C-3.270625 13.43019531 -3.29125 12.73539062 -3.3125 12.01953125 C-3.34845019 7.24714393 -2.43369156 4.08604004 0 0 Z " fill="#a855f7" transform="translate(352,390)"/>
<path d="M0 0 C2.0625 0.4375 2.0625 0.4375 4 1 C8.92606722 14.54668486 4.85935785 27.26055563 -0.71875 39.8828125 C-2 42 -2 42 -5 43 C-5.99 42.01 -6.98 41.02 -8 40 C-7.57847656 38.97519531 -7.15695312 37.95039063 -6.72265625 36.89453125 C-6.1690397 35.53394819 -5.61566714 34.17326584 -5.0625 32.8125 C-4.78470703 32.13896484 -4.50691406 31.46542969 -4.22070312 30.77148438 C-1.37250653 23.73678195 -0.88677327 17.80222304 -1 10.25 C-1.02538877 8.52610274 -1.0464627 6.80213462 -1.0625 5.078125 C-1.07410156 4.31918945 -1.08570313 3.56025391 -1.09765625 2.77832031 C-1 1 -1 1 0 0 Z " fill="#a855f7" transform="translate(280,390)"/>
</svg>
