<?xml version="1.0" encoding="UTF-8"?>
<svg version="1.1" xmlns="http://www.w3.org/2000/svg" width="512" height="512">
  <style>
    path { fill: #8b5cf6; }
  </style>
<path d="M0 0 C5.75 0.875 5.75 0.875 8 2 C6.32438301 10.37808497 2.31556046 18.1255439 -1 26 C48.5 26 98 26 149 26 C146.03 19.07 143.06 12.14 140 5 C140 4.01 140 3.02 140 2 C143.08809695 0.23537317 144.23312136 0 148 0 C174.32102727 57.72353801 200.01308233 131.17312919 176.5625 194.1875 C174.6178392 199.2547423 172.49170464 204.20981791 170.1875 209.125 C163.5245289 223.52490794 165.28041788 238.68158722 168.375 253.8125 C175.02475572 286.50713229 175.84186903 322.08773784 170 355 C169.83371094 355.96357422 169.66742188 356.92714844 169.49609375 357.91992188 C166.96102406 372.20081449 163.12976889 386.01015517 158.8671875 399.86328125 C158.24343318 401.90844033 157.62098896 403.95399955 157 406 C156.70504639 406.9590625 156.41009277 407.918125 156.10620117 408.90625 C154.37350361 414.81689717 153.4805538 420.21602766 153.5625 426.375 C153.57007324 427.19081543 153.57764648 428.00663086 153.58544922 428.84716797 C153.88371996 439.9093114 157.00267499 449.3682633 164 458 C164.71736328 458.90298828 164.71736328 458.90298828 165.44921875 459.82421875 C172.09075867 467.26876602 181.88407086 471.84770112 191.0625 475.375 C196.28727188 477.62188275 198.04752953 480.53749791 200.1953125 485.6953125 C202.4200165 492.06703756 203.09185646 497.896829 200.8125 504.375 C198.13448157 508.25350945 195.47625233 510.50791589 191 512 C176.35690076 513.25277567 166.07819232 508.10198719 154.703125 499.203125 C151.61990612 496.58354806 149.10459739 494.14134783 146.6875 490.875 C139.17312354 482.83636472 126.35723772 480.84909299 116.0625 478.26171875 C109.28445345 476.45625695 105.95271427 473.92907141 102 468 C100.66196097 458.31208278 102.51344566 450.47393211 105.77734375 441.42041016 C111.60828997 425.14352002 107.26404063 409.7486837 103.39111328 393.46386719 C98.97321959 374.67241398 95.75292828 355.55939649 93.30859375 336.41210938 C93.10740976 334.83956361 92.89940215 333.26787121 92.68359375 331.69726562 C91.12585656 320.21141861 90.79461325 308.76358459 90.75 297.1875 C90.74473297 296.49579712 90.73946594 295.80409424 90.73403931 295.09143066 C90.66084193 282.67405799 90.99022983 269.964403 95.5 258.25 C95.9228125 257.12078125 96.345625 255.9915625 96.78125 254.828125 C98 252 98 252 100 249 C101.52120801 240.35034051 97.7808474 233.23226841 93.75390625 225.84375 C85.28041677 210.29476523 75 190.15579373 75 172 C74.34 172 73.68 172 73 172 C72.88914062 173.299375 72.77828125 174.59875 72.6640625 175.9375 C72.11403758 180.84364564 70.9102692 185.31972223 69.375 190 C69.11066162 190.81742676 68.84632324 191.63485352 68.57397461 192.47705078 C64.58418942 204.55946775 59.73298211 215.94279925 53.578125 227.07421875 C49.83441697 234.01490517 46.36377974 240.95756142 48 249 C49.10070988 251.50390492 50.37221236 253.85842952 51.69140625 256.25390625 C70.48695811 295.69651209 52.70345686 361.8590637 42.625 401.9375 C38.72759579 417.45192576 37.65759987 430.61111275 43.625 445.75 C46.36750178 453.13929263 47.31773655 460.14810771 46 468 C42.65680455 474.14857249 39.41681604 475.88779805 33 478 C29.91932066 478.84237326 26.83077108 479.64488556 23.73681641 480.43676758 C12.05878744 483.48581926 3.9607858 487.71700956 -4.3125 496.4375 C-14.772936 506.4114041 -25.28281007 512.39915301 -39.79296875 512.28515625 C-45.14482035 511.80929125 -48.23544703 509.94100827 -51.875 505.9375 C-54.64177322 501.17250168 -54.64663988 496.34555634 -54 491 C-50.42760314 479.22537997 -50.42760314 479.22537997 -45 476 C-43.16515409 475.20390044 -41.30830767 474.45746921 -39.4375 473.75 C-24.91979563 467.83669115 -14.14502533 459.1469019 -7.9609375 444.546875 C-6.06517722 438.77100723 -5.70447758 433.0927034 -5.625 427.0625 C-5.61098145 426.34771484 -5.59696289 425.63292969 -5.58251953 424.89648438 C-5.66818442 415.11750753 -8.99684654 405.82515981 -11.85473633 396.56616211 C-16.0752997 382.84806873 -19.59648333 369.15326626 -22 355 C-22.16371094 354.04528809 -22.32742187 353.09057617 -22.49609375 352.10693359 C-28.04401507 317.9769011 -26.57939088 281.76510642 -19.28588867 248.06689453 C-15.69483849 230.59391647 -18.55970807 216.05765081 -25.94189453 200.06347656 C-48.65838322 149.89221912 -34.32428055 87.29489556 -16 38 C-11.11432406 25.14859198 -6.04357408 12.35738927 0 0 Z M-5 35 C-7.2013866 38.80427492 -7.2013866 38.80427492 -8 43 C18.73 43.33 45.46 43.66 73 44 C72.67 45.98 72.34 47.96 72 50 C68.93200879 51.53399561 65.70597732 51.17947954 62.33740234 51.20532227 C61.54707108 51.21522186 60.75673981 51.22512146 59.94245911 51.23532104 C57.3236493 51.26697122 54.70482134 51.29170733 52.0859375 51.31640625 C50.27275108 51.33697274 48.45956948 51.35796913 46.64639282 51.37937927 C41.86901758 51.43463142 37.09159885 51.48402682 32.31414795 51.53222656 C27.44116332 51.58241866 22.56824202 51.63811667 17.6953125 51.69335938 C8.1302624 51.80097938 -1.43484262 51.90241581 -11 52 C-11.66 53.98 -12.32 55.96 -13 58 C3.83 58.33 20.66 58.66 38 59 C38 61.31 38 63.62 38 66 C22.49 66.33 6.98 66.66 -9 67 C-5.07220377 70.98660085 -5.07220377 70.98660085 -0.90625 74.54296875 C-0.08386841 75.18564697 -0.08386841 75.18564697 0.75512695 75.84130859 C1.33093506 76.28555176 1.90674316 76.72979492 2.5 77.1875 C3.11383545 77.66525879 3.7276709 78.14301758 4.36010742 78.63525391 C6.23705588 80.09411204 8.11793588 81.54774983 10 83 C10.54221191 83.41942871 11.08442383 83.83885742 11.64306641 84.27099609 C15.4201177 87.19193148 19.20823723 90.098215 23 93 C23.64308105 93.49226074 24.28616211 93.98452148 24.94873047 94.49169922 C28.49986467 97.20946446 32.05218452 99.92567145 35.60546875 102.640625 C38.50580791 104.85690369 41.40417238 107.07572336 44.30078125 109.296875 C53.82089013 116.593777 63.39014632 123.82171091 73 131 C76.11895029 129.57399345 78.59657812 127.85384269 81.25 125.6875 C82.12914062 124.97335938 83.00828125 124.25921875 83.9140625 123.5234375 C85.44160156 122.27433594 85.44160156 122.27433594 87 121 C88.21573215 120.01251132 89.43190242 119.02556185 90.6484375 118.0390625 C94.06193968 115.27019576 97.47200365 112.49712871 100.88134766 109.72314453 C102.98646524 108.01100811 105.09263866 106.30018031 107.19921875 104.58984375 C112.97319906 99.90180803 118.74635822 95.21299805 124.5 90.5 C130.93408403 85.22962923 137.39231032 79.98905927 143.84912109 74.74658203 C147.56676832 71.72773433 151.28331934 68.70753754 155 65.6875 C156.35416191 64.58723372 157.70832812 63.48697275 159.0625 62.38671875 C160.031875 61.59910156 161.00125 60.81148437 162 60 C160.69233076 56.01922912 159.37806177 52.04066885 158.0625 48.0625 C157.68931641 46.92619141 157.31613281 45.78988281 156.93164062 44.61914062 C156.57392578 43.53955078 156.21621094 42.45996094 155.84765625 41.34765625 C155.3527771 39.84730835 155.3527771 39.84730835 154.84790039 38.31665039 C154.20971989 36.0693892 154.20971989 36.0693892 153 35 C150.96238813 34.90321761 148.92136288 34.87813035 146.88145447 34.87974548 C146.23539877 34.87889106 145.58934307 34.87803663 144.92370993 34.87715632 C142.74330183 34.87549976 140.56296945 34.88102571 138.38256836 34.88647461 C136.82579042 34.88675647 135.26901236 34.88659877 133.7122345 34.8860321 C129.47274796 34.88574408 125.23328946 34.89164154 120.99380946 34.89860606 C116.5681858 34.90483885 112.14256157 34.90544334 107.7169342 34.90663147 C99.33046022 34.90974501 90.9439992 34.9179587 82.55753094 34.92798096 C73.01234651 34.9391414 63.46716148 34.94465237 53.92197216 34.94967639 C34.28130752 34.96014129 14.64065458 34.97774117 -5 35 Z M159 72.5 C154.97873092 76.15511519 150.83820581 79.58165 146.578125 82.953125 C143.99028829 85.00771051 141.42962127 87.09179273 138.875 89.1875 C134.26076803 92.97169307 129.63309801 96.73893156 125 100.5 C120.49352505 104.15882097 115.99023871 107.82125021 111.5 111.5 C107.70530121 114.60890985 103.90222649 117.70725965 100.09399414 120.79956055 C98.70738739 121.92556218 97.32115163 123.05202084 95.93530273 124.17895508 C92.81803675 126.71372246 89.69826547 129.24499683 86.56640625 131.76171875 C85.57511719 132.56222656 84.58382812 133.36273438 83.5625 134.1875 C82.69753906 134.88230469 81.83257812 135.57710938 80.94140625 136.29296875 C78.91281097 137.86071541 78.91281097 137.86071541 78 140 C79.35219418 172.5966809 91.07920886 203.00588305 105.87109375 231.58203125 C108.91222311 238.09573047 109.54279668 246.18533155 107.34082031 253.05712891 C106.21734816 255.91454138 105.00917704 258.71022669 103.66601562 261.47143555 C85.92753288 299.18415056 104.19464912 364.94061673 114.13427734 403.30566406 C118.29716756 419.42998343 117.97460486 434.03333967 111.8125 449.625 C109.93940392 454.62233357 108.71684008 459.70696534 110 465 C113.30124746 470.0358012 118.88233362 470.52146307 124.375 471.8125 C136.15876432 474.82378855 147.44435053 477.87742594 155.1796875 487.88671875 C161.75313828 495.51812835 172.22936318 502.63417134 182.2890625 504.40234375 C186.594848 504.60392547 189.80077839 503.90838328 193 501 C194.78576741 496.31236055 193.56004887 492.62710317 192.08203125 488.05078125 C189.52671235 483.2076678 183.97482115 481.44079231 179.25 479.1875 C173.96609767 476.61692077 169.11123667 474.0182774 164.578125 470.2265625 C163.0061756 468.9019236 163.0061756 468.9019236 160.921875 468.0859375 C158.48765601 466.71050482 158.11453295 465.53261756 157 463 C155.8814736 461.34976031 154.75578676 459.70436287 153.625 458.0625 C144.36112042 443.66488715 143.38900516 427.12278787 146.8203125 410.74609375 C148.14994835 405.03308351 150.0324077 399.50150644 151.875 393.9375 C166.55782942 349.52353368 170.07945529 299.47194843 159.8125 253.6875 C155.1698352 232.80949883 158.19276469 215.16113268 166.65429688 195.9206543 C184.10193181 155.82905473 175.78672472 109.77908126 165 69 C162.05755873 69 161.13277894 70.51956242 159 72.5 Z M-18 73 C-22.4061478 91.11564129 -22.4061478 91.11564129 -25.8125 109.4375 C-25.92376221 110.14946533 -26.03502441 110.86143066 -26.1496582 111.5949707 C-30.80469112 143.22627062 -28.97462381 174.55753988 -15.09765625 203.60546875 C-8.01901729 219.04748184 -8.32817826 236.81679476 -11.8125 253.1875 C-22.00548932 301.2284156 -17.61887411 350.3948932 -3 397 C-2.02858827 400.16283432 -1.0743965 403.33050354 -0.125 406.5 C0.17954102 407.47779419 0.17954102 407.47779419 0.49023438 408.4753418 C5.27928364 424.32767484 3.65269199 441.34590895 -4 456 C-12.5547509 469.61776674 -25.17561724 476.96128148 -39.33984375 483.5546875 C-42.88776536 485.48233947 -43.62770875 487.24425552 -45 491 C-45.97991974 494.98967321 -46.39985065 497.0803435 -44.75 500.875 C-42.33903623 503.80259886 -40.3814298 503.94242569 -36.6875 504.5 C-26.87770137 504.37330518 -15.83072576 496.45586886 -9 490 C-7.92224581 488.67896634 -6.85974565 487.34534775 -5.8125 486 C2.48182936 476.30460149 16.17337627 473.50320811 27.99975586 470.39624023 C29.00530518 470.12626221 30.01085449 469.85628418 31.046875 469.578125 C31.95276367 469.34512695 32.85865234 469.11212891 33.79199219 468.87207031 C36.3394365 468.10846594 36.3394365 468.10846594 38 465 C39.75216934 456.879369 36.26640654 449.38040565 33.41015625 441.953125 C27.40376702 425.89843144 32.66573596 408.03830239 36.28457642 391.98080444 C53.75688776 321.94629765 53.75688776 321.94629765 40.8671875 254.078125 C38.20022648 247.68702922 39.3247102 238.97286729 41.5 232.5625 C43.27863012 228.24744311 45.49790289 224.20536582 47.75 220.125 C59.417246 198.90659931 65.63330126 174.82693771 68.70654297 150.92822266 C69 149 69 149 69.78515625 145.91796875 C70.39852382 143.27358276 70.6711595 141.63074929 70 139 C67.4227278 135.85132334 64.30217558 133.66629535 60.96386719 131.37109375 C57.90998485 129.23899489 54.95489614 126.97871709 51.98339844 124.73388672 C49.39983353 122.78407315 46.80600062 120.84853778 44.2109375 118.9140625 C37.05644577 113.56081303 30.02482408 108.05176603 22.98535156 102.54882812 C18.59592515 99.12451416 14.17898056 95.73599873 9.76025391 92.34960938 C8.47555257 91.36461229 7.19145571 90.37882665 5.90771484 89.39257812 C3.64774125 87.65633506 1.38649522 85.9217605 -0.875 84.1875 C-1.5769751 83.64794678 -2.2789502 83.10839355 -3.00219727 82.55249023 C-9.98160016 76.27607524 -9.98160016 76.27607524 -18 73 Z " fill="#000000" transform="translate(182,0)"/>
<path d="M0 0 C2.90202631 0.22910734 4.49530195 0.45335303 6.50390625 2.62890625 C17.3621392 19.83764621 16.4452905 43.94162145 12.3125 63.0625 C8.4232614 79.69359073 2.30583568 97.19604529 -8 111 C-10.625 111.5 -10.625 111.5 -13 111 C-13.66 110.34 -14.32 109.68 -15 109 C-14.69324268 104.40693096 -12.4183782 100.61986066 -10.3125 96.625 C2.49062545 71.54502313 9.78864303 43.84439885 2 16 C0.98697304 13.31969949 -0.07966846 10.72677165 -1.328125 8.1484375 C-2.17950673 5.42599592 -1.79484446 3.70801658 -1 1 C-0.67 0.67 -0.34 0.34 0 0 Z " fill="#8b5cf6" transform="translate(323,119)"/>
<path d="M0 0 C0.97055398 2.50726444 1.27068971 4.30562205 0.28125 6.84375 C-0.0590625 7.5346875 -0.399375 8.225625 -0.75 8.9375 C-11.01883096 30.7587658 -6.4488755 56.58426204 1.24609375 78.40234375 C4.35712453 86.81671825 8.01660395 95.52490593 13 103 C13.1875 106.125 13.1875 106.125 13 109 C12 110 12 110 9.62695312 110.30761719 C7 110 7 110 5.35742188 108.35644531 C4.89916016 107.60459961 4.44089844 106.85275391 3.96875 106.078125 C3.46472656 105.25248047 2.96070313 104.42683594 2.44140625 103.57617188 C0.27584829 99.70575054 -1.6941655 95.80073787 -3.5 91.75 C-3.88164307 90.89519043 -4.26328613 90.04038086 -4.65649414 89.15966797 C-16.04532438 62.81505749 -20.64961469 33.53335164 -9.96484375 6.19921875 C-6.56315366 -1.55443113 -6.56315366 -1.55443113 0 0 Z " fill="#8b5cf6" transform="translate(192,120)"/>
<path d="M0 0 C0.78375 0.04125 1.5675 0.0825 2.375 0.125 C4.12517942 3.33266672 4.50348621 4.66047292 3.51171875 8.24609375 C3.03347656 9.34050781 2.55523437 10.43492187 2.0625 11.5625 C-5.50915167 29.13288073 -2.44328739 49.99355879 4.25048828 67.40185547 C6.59552148 73.20338957 9.18133351 78.86189475 12.1015625 84.3984375 C13.57080369 87.54423612 13.48525003 88.88677075 12.375 92.125 C11.375 93.125 11.375 93.125 8.8125 93.1875 C8.008125 93.166875 7.20375 93.14625 6.375 93.125 C-7.17529702 69.33670079 -16.13717602 42.87163305 -9.55078125 15.37109375 C-5.23810561 0.2494336 -5.23810561 0.2494336 0 0 Z " fill="#8b5cf6" transform="translate(307.625,282.875)"/>
<path d="M0 0 C2.75 0.5625 2.75 0.5625 5.3125 3.5625 C14.86699324 20.88757793 13.67382925 42.98419759 8.39599609 61.43359375 C0.77996378 86.53253622 0.77996378 86.53253622 -6.25 93.5625 C-8.75 93.6875 -8.75 93.6875 -11.25 93.5625 C-12.25 92.5625 -12.25 92.5625 -12.54296875 89.9921875 C-12.16696833 85.59047593 -10.57147931 82.56585917 -8.5625 78.6875 C2.0924284 57.05719423 6.01799583 34.87844283 -1.25 11.5625 C-1.9111323 10.22641381 -2.57615534 8.89222012 -3.25 7.5625 C-3.4375 4.375 -3.4375 4.375 -3.25 1.5625 C-2.25 0.5625 -2.25 0.5625 0 0 Z " fill="#8b5cf6" transform="translate(210.25,282.4375)"/>
</svg>
